<?xml version="1.0" encoding="UTF-8"?>
<svg width="20px" height="24px" viewBox="0 0 20 24" version="1.1" xmlns="http://www.w3.org/2000/svg" xmlns:xlink="http://www.w3.org/1999/xlink">
    <!-- Generator: Sketch 48 (47235) - http://www.bohemiancoding.com/sketch -->
    <title>Shape</title>
    <desc>Created with Sketch.</desc>
    <defs></defs>
    <g id="cart-icon" stroke="none" stroke-width="1" fill="none" fill-rule="evenodd" transform="translate(1.000000, 1.000000)">
        <g id="bag-icon" fill="#00AEEF" fill-rule="nonzero" stroke="#00AEEF" stroke-width="0.4">
            <path d="M16.6752843,4.70611025 C16.6601878,4.51994719 16.4997196,4.37940756 16.3023741,4.37940756 L13.3097253,4.37940756 L13.3097253,4.18581743 C13.3049963,1.87776681 11.3716471,0 8.99981811,0 C6.62826193,0 4.6948673,1.87776681 4.69022923,4.18581743 L4.6899564,4.37940756 L1.69753495,4.37940756 C1.50341793,4.37940756 1.3429042,4.52021244 1.32417002,4.70761335 L0.000454713101,19.213036 L0,19.2605162 C0,20.7710409 1.43939432,22 3.2083647,22 L14.7914079,22 C16.5606966,22 18,20.7710409 18,19.2605162 L18,19.2182968 L16.6752843,4.70611025 Z M8.99981811,0.724183595 C10.9605865,0.724183595 12.559676,2.2766624 12.5646324,4.18497746 L12.5651781,4.37936335 L5.43473099,4.37936335 L5.43532211,4.18497746 C5.4400966,2.2766624 7.03936805,0.724183595 8.99981811,0.724183595 Z M14.7914079,21.2711303 L3.2083647,21.2711303 C1.86596068,21.2711303 0.760598605,20.378644 0.744865531,19.2818248 L0.744729117,19.2717894 L2.03934279,5.10354695 L4.69022923,5.10354695 L4.69022923,7.24851147 C4.69022923,7.44820241 4.85738176,7.61058116 5.06277567,7.61058116 C5.26816958,7.61058116 5.43532211,7.44820241 5.43532211,7.24851147 L5.43532211,5.10354695 L12.5646324,5.10354695 L12.5646324,7.24851147 C12.5646324,7.44820241 12.731785,7.61058116 12.9371789,7.61058116 C13.1425273,7.61058116 13.3096344,7.44820241 13.3096344,7.24851147 L13.3096344,5.10354695 L15.9605663,5.10354695 L17.2552709,19.2762545 L17.255089,19.2862899 C17.2393105,20.3808544 16.1340393,21.2711303 14.7914079,21.2711303 Z" id="Shape"></path>
        </g>
    </g>
</svg>