<?xml version="1.0" encoding="UTF-8"?>
<svg width="20px" height="15px" viewBox="0 0 20 15" version="1.1" xmlns="http://www.w3.org/2000/svg" xmlns:xlink="http://www.w3.org/1999/xlink">
    <!-- Generator: Sketch 48.2 (47327) - http://www.bohemiancoding.com/sketch -->
    <title>logout-icon</title>
    <desc>Created with Sketch.</desc>
    <defs></defs>
    <g id="Top-panel" stroke="none" stroke-width="1" fill="none" fill-rule="evenodd" transform="translate(-1426.000000, -37.000000)">
        <g fill="#00AEEF" id="Log-up-btn" stroke="#00AEEF">
            <g transform="translate(1361.000000, 35.000000)">
                <g id="logout-icon" transform="translate(65.000000, 2.000000)">
                    <g id="logout" transform="translate(0.183486, 0.178571)">
                        <path d="M0,2.44178687 L0,12.2010703 C0,13.5458225 1.11870696,14.6428571 2.49002516,14.6428571 L10.5334881,14.6428571 C11.9048063,14.6428571 13.0235132,13.5458225 13.0235132,12.2010703 L13.0235132,10.6203967 C13.0235132,10.353019 12.8029796,10.1367577 12.5303198,10.1367577 C12.2576601,10.1367577 12.0371265,10.353019 12.0371265,10.6203967 L12.0371265,12.2010703 C12.0371265,13.0149992 11.3594868,13.6795113 10.5294784,13.6795113 L2.49002516,13.6795113 C1.66001677,13.6795113 0.982377076,13.0149992 0.982377076,12.2010703 L0.982377076,2.44178687 C0.982377076,1.62785791 1.66001677,0.963345865 2.49002516,0.963345865 L10.5334881,0.963345865 C11.3634965,0.963345865 12.0411362,1.62785791 12.0411362,2.44178687 L12.0411362,4.02246049 C12.0411362,4.28983812 12.2616698,4.50609943 12.5343295,4.50609943 C12.8069893,4.50609943 13.0275229,4.28983812 13.0275229,4.02246049 L13.0275229,2.44178687 C13.0275229,1.09703468 11.908816,0 10.5374978,0 L2.49002516,0 C1.11870696,2.79387105e-16 0,1.09310265 0,2.44178687 Z" id="Shape" stroke-width="0.1" fill-rule="nonzero"></path>
                        <path d="M15.4310634,10.931023 C15.5271999,11.0246267 15.6513761,11.0714286 15.7795581,11.0714286 C15.90774,11.0714286 16.0319163,11.0246267 16.1280527,10.931023 L19.4888228,7.65879207 C19.6810957,7.47158458 19.6810957,7.17127257 19.4888228,6.98406508 L16.1280527,3.71183419 C15.9357798,3.5246267 15.627342,3.5246267 15.4350691,3.71183419 C15.2427962,3.89904168 15.2427962,4.19935369 15.4350691,4.38656118 L17.958651,6.84365946 L8.74958005,6.84365946 C8.47719344,6.84365946 8.25688073,7.05816804 8.25688073,7.32337865 C8.25688073,7.58858926 8.47719344,7.80309784 8.74958005,7.80309784 L17.9546453,7.80309784 L15.4310634,10.2601961 C15.2387905,10.4435035 15.2387905,10.7477156 15.4310634,10.931023 Z" id="Shape" stroke-width="0.1" fill-rule="nonzero"></path>
                    </g>
                </g>
            </g>
        </g>
    </g>
</svg>