<?xml version="1.0" encoding="UTF-8"?>
<svg width="8px" height="18px" viewBox="0 0 8 18" version="1.1" xmlns="http://www.w3.org/2000/svg" xmlns:xlink="http://www.w3.org/1999/xlink">
    <!-- Generator: Sketch 48.2 (47327) - http://www.bohemiancoding.com/sketch -->
    <title>facebook-logo</title>
    <desc>Created with Sketch.</desc>
    <defs></defs>
    <g id="05-3-Footer-desktop-small-option1" stroke="none" stroke-width="1" fill="none" fill-rule="evenodd" transform="translate(-1254.000000, -954.000000)">
        <g id="Footer" transform="translate(0.000000, 630.000000)" fill="#111111" fill-rule="nonzero">
            <g id="Connect">
                <g transform="translate(1254.000000, 268.000000)">
                    <g id="facebook-logo" transform="translate(0.000000, 56.000000)">
                        <path d="M5.32314203,5.8979705 L5.32314203,4.34702271 C5.32314203,4.11419499 5.33335766,3.93385489 5.35411726,3.80646149 C5.3748039,3.6788768 5.42186873,3.5533962 5.49491043,3.42952237 C5.56784268,3.30572505 5.68594257,3.22026053 5.84902769,3.17289925 C6.01233172,3.12546147 6.22934073,3.10181909 6.50027363,3.10181909 L7.97931336,3.10181909 L7.97931336,0 L5.61479806,0 C4.24663432,0 3.26400088,0.340366113 2.6667518,1.02109834 C2.06957569,1.70198359 1.77102412,2.70491019 1.77102412,4.03026072 L1.77102412,5.89793225 L0,5.89793225 L0,8.99998087 L1.77091466,8.99998087 L1.77091466,18 L5.32310555,18 L5.32310555,9.00001913 L7.68747492,9.00001913 L8,5.8979705 L5.32314203,5.8979705 Z" id="Shape"></path>
                    </g>
                </g>
            </g>
        </g>
    </g>
</svg>