<?xml version="1.0" encoding="UTF-8"?>
<svg width="18px" height="18px" viewBox="0 0 18 18" version="1.1" xmlns="http://www.w3.org/2000/svg" xmlns:xlink="http://www.w3.org/1999/xlink">
    <!-- Generator: Sketch 48.2 (47327) - http://www.bohemiancoding.com/sketch -->
    <title>instagram-logo</title>
    <desc>Created with Sketch.</desc>
    <defs></defs>
    <g id="05-3-Footer-desktop-small-option1" stroke="none" stroke-width="1" fill="none" fill-rule="evenodd" transform="translate(-1341.000000, -955.000000)">
        <g id="Footer" transform="translate(0.000000, 630.000000)" fill="#111111">
            <g id="Connect">
                <g transform="translate(1254.000000, 268.000000)">
                    <g id="instagram-logo" transform="translate(87.000000, 57.000000)">
                        <g id="Shape">
                            <path d="M13.0325443,0 L4.96724279,0 C2.22830678,0 0,2.22841324 0,4.96734926 L0,13.0326507 C0,15.7716932 2.22830678,18 4.96724279,18 L13.0325443,18 C15.7716932,18 18,15.7715868 18,13.0326507 L18,4.96734926 C18.0001065,2.22841324 15.7716932,0 13.0325443,0 Z M16.4030592,13.0326507 C16.4030592,14.8910814 14.8910814,16.4029528 13.0326507,16.4029528 L4.96724279,16.4029528 C3.10891862,16.4030592 1.59704724,14.8910814 1.59704724,13.0326507 L1.59704724,4.96734926 C1.59704724,3.10902509 3.10891862,1.59704724 4.96724279,1.59704724 L13.0325443,1.59704724 C14.8909749,1.59704724 16.4029528,3.10902509 16.4029528,4.96734926 L16.4029528,13.0326507 L16.4030592,13.0326507 Z" fill-rule="nonzero"></path>
                            <path d="M9,4.28571429 C6.4005037,4.28571429 4.28571429,6.40055225 4.28571429,9.00010822 C4.28571429,11.599556 6.4005037,13.7142857 9,13.7142857 C11.5994963,13.7142857 13.7142857,11.599556 13.7142857,9.00010822 C13.7142857,6.40055225 11.5994963,4.28571429 9,4.28571429 Z M9,12.0908754 C7.29568015,12.0908754 5.90897911,10.704359 5.90897911,9 C5.90897911,7.2955328 7.29557193,5.90890816 9,5.90890816 C10.7044281,5.90890816 12.0910209,7.2955328 12.0910209,9 C12.0910209,10.704359 10.7043199,12.0908754 9,12.0908754 Z" fill-rule="nonzero"></path>
                            <path d="M13.7142857,3.42857143 C13.4890909,3.42857143 13.2678701,3.51974026 13.1088312,3.67948052 C12.949013,3.83844156 12.8571429,4.05974026 12.8571429,4.28571429 C12.8571429,4.51098701 12.9490909,4.73220779 13.1088312,4.89194805 C13.2677922,5.05090909 13.4890909,5.14285714 13.7142857,5.14285714 C13.9402597,5.14285714 14.1607792,5.05090909 14.3205195,4.89194805 C14.4802597,4.73220779 14.5714286,4.51090909 14.5714286,4.28571429 C14.5714286,4.05974026 14.4802597,3.83844156 14.3205195,3.67948052 C14.1615584,3.51974026 13.9402597,3.42857143 13.7142857,3.42857143 Z" fill-rule="nonzero"></path>
                        </g>
                    </g>
                </g>
            </g>
        </g>
    </g>
</svg>