<?xml version="1.0" encoding="UTF-8"?>
<svg width="15px" height="18px" viewBox="0 0 15 18" version="1.1" xmlns="http://www.w3.org/2000/svg" xmlns:xlink="http://www.w3.org/1999/xlink">
    <!-- Generator: Sketch 48.2 (47327) - http://www.bohemiancoding.com/sketch -->
    <title>pinterest-logo</title>
    <desc>Created with Sketch.</desc>
    <defs></defs>
    <g id="05-3-Footer-desktop-small-option1" stroke="none" stroke-width="1" fill="none" fill-rule="evenodd" transform="translate(-1389.000000, -955.000000)">
        <g id="Footer" transform="translate(0.000000, 630.000000)" fill="#111111" fill-rule="nonzero">
            <g id="Connect">
                <g transform="translate(1254.000000, 268.000000)">
                    <g id="pinterest-logo" transform="translate(135.000000, 57.000000)">
                        <path d="M14.9111119,5.00514209 C14.3845136,1.44790868 10.5872892,-0.363329789 6.535804,0.0607715699 C3.33268756,0.396018883 0.139204013,2.81365568 0.00664267359,6.27074788 C-0.0741071616,8.38122575 0.56701561,9.96409341 2.71808498,10.4096219 C3.64962174,8.87064464 2.4180381,8.53425011 2.2252216,7.41937423 C1.43587908,2.86313417 7.85535224,-0.248607781 11.2175502,2.93514999 C13.5457777,5.14014399 12.0116894,11.9193635 8.26147991,11.2140082 C4.6691231,10.5412561 10.0208908,5.14465885 7.15401395,4.08603377 C4.82336836,3.22428645 3.5857592,6.71853378 4.69080702,8.45553601 C4.04246949,11.442416 2.64700768,14.2548815 3.21217725,18 C5.0438943,16.7580047 5.66210426,14.3831481 6.16824755,11.9047827 C7.08892253,12.4279151 7.58182555,12.9690329 8.75557217,13.0534091 C13.0842311,13.3672293 15.5052198,9.01911712 14.9111119,5.00514209 Z" id="Shape"></path>
                    </g>
                </g>
            </g>
        </g>
    </g>
</svg>