<?xml version="1.0" encoding="UTF-8"?>
<svg width="18px" height="14px" viewBox="0 0 18 14" version="1.1" xmlns="http://www.w3.org/2000/svg" xmlns:xlink="http://www.w3.org/1999/xlink">
    <!-- Generator: Sketch 48.2 (47327) - http://www.bohemiancoding.com/sketch -->
    <title>Shape</title>
    <desc>Created with Sketch.</desc>
    <defs></defs>
    <g id="05-3-Footer-desktop-small-option1" stroke="none" stroke-width="1" fill="none" fill-rule="evenodd" transform="translate(-1292.000000, -957.000000)">
        <g id="Footer" transform="translate(0.000000, 630.000000)" fill="#111111" fill-rule="nonzero">
            <g id="Connect">
                <g transform="translate(1254.000000, 268.000000)">
                    <g id="twitter-logo-silhouette" transform="translate(38.000000, 59.000000)">
                        <path d="M18,1.65642029 C17.3374989,1.93750792 16.6266448,2.12813833 15.8797612,2.21324472 C16.6423801,1.77596913 17.2261458,1.08238872 17.5028227,0.258473323 C16.7874686,0.663418618 15.9978497,0.95746089 15.1564954,1.11685934 C14.482759,0.428657927 13.5244339,0 12.461491,0 C10.4222523,0 8.76880845,1.58319839 8.76880845,3.53473112 C8.76880845,3.81150992 8.80142615,4.08183956 8.86442625,4.34034105 C5.79600947,4.19277075 3.07515208,2.78513595 1.2541197,0.646183308 C0.935795647,1.16746694 0.754707116,1.77487081 0.754707116,2.42325077 C0.754707116,3.64997113 1.40709053,4.73235986 2.39691568,5.36561668 C1.79176763,5.34624104 1.22261964,5.18684259 0.724354125,4.92189194 L0.724354125,4.96605038 C0.724354125,6.67848543 1.99762091,8.10766436 3.68591779,8.43293859 C3.37659375,8.51263782 3.05041675,8.55679626 2.71297502,8.55679626 C2.47453346,8.55679626 2.24394484,8.53418196 2.01785624,8.49109368 C2.48800407,9.89658814 3.851271,10.9186533 5.46647952,10.9466747 C4.2033304,11.8944478 2.61062191,12.4577214 0.880707321,12.4577214 C0.582648011,12.4577214 0.289059296,12.4404861 0,12.4092541 C1.6343262,13.4141121 3.57459408,14 5.65995042,14 C12.4525498,14 16.165497,8.61281102 16.165497,3.94077474 L16.1531146,3.48305335 C16.8785864,2.98759452 17.5062051,2.36509568 18,1.65642029 Z" id="Shape"></path>
                    </g>
                </g>
            </g>
        </g>
    </g>
</svg>