<?xml version="1.0" encoding="UTF-8"?>
<svg width="12px" height="10px" viewBox="0 0 12 10" version="1.1" xmlns="http://www.w3.org/2000/svg" xmlns:xlink="http://www.w3.org/1999/xlink">
    <!-- Generator: Sketch 48.2 (47327) - http://www.bohemiancoding.com/sketch -->
    <title>Shape</title>
    <desc>Created with Sketch.</desc>
    <defs></defs>
    <g id="02-1-Stories-Detail-Page-option1" stroke="none" stroke-width="1" fill="none" fill-rule="evenodd" transform="translate(-439.000000, -676.000000)">
        <g id="::HEADER::" fill="#111111" fill-rule="nonzero">
            <g id="Hero" transform="translate(0.000000, 79.000000)">
                <g id="SM-icons" transform="translate(240.000000, 577.000000)">
                    <g id="Share" transform="translate(180.000000, 0.000000)">
                        <path d="M30.8728527,23.318754 L27.4442377,20.1187802 C27.3594025,20.0396007 27.2589934,20 27.1429166,20 C27.0268399,20 26.9263604,20.0396007 26.8415955,20.1187802 C26.7567603,20.1980035 26.714284,20.2917624 26.714284,20.4000788 L26.714284,22.0000657 L25.2142928,22.0000657 C22.0311301,22.0000657 20.0781135,22.8396708 19.3547975,24.5188372 C19.118258,25.0770999 19,25.7709332 19,26.6000963 C19,27.2917187 19.2834956,28.2312778 19.8504399,29.4188175 C19.863809,29.4480419 19.8871698,29.4979313 19.9207098,29.5687485 C19.9542264,29.6395219 19.9843187,29.7020205 20.0111038,29.7562444 C20.0379827,29.8103369 20.0670195,29.8561765 20.0982376,29.8936319 C20.151761,29.9644929 20.2142909,30 20.2857336,30 C20.3526964,30 20.4051643,29.9791817 20.4431373,29.9375233 C20.4810164,29.8958867 20.4999912,29.8437425 20.4999912,29.7813971 C20.4999912,29.7437884 20.494409,29.6886671 20.4832212,29.6157046 C20.4720568,29.5427421 20.4664511,29.4939034 20.4664511,29.4688601 C20.4440989,29.1856352 20.4329345,28.9291828 20.4329345,28.7001817 C20.4329345,28.2793722 20.4720568,27.9022788 20.5501137,27.5689674 C20.6282878,27.2355903 20.7365307,26.9471115 20.8749597,26.703334 C21.0133652,26.4594689 21.1918781,26.2492065 21.4106859,26.0721088 C21.6293999,25.8950111 21.8648605,25.7502682 22.1170912,25.6377487 C22.3693687,25.5252074 22.6662334,25.4366586 23.0077557,25.3721022 C23.3492544,25.3075239 23.6929814,25.2627132 24.0390069,25.2376918 C24.3850325,25.2126705 24.776771,25.2002364 25.2142928,25.2002364 L26.714284,25.2002364 L26.714284,26.8002671 C26.714284,26.9085834 26.7566665,27.0023642 26.8414314,27.0815 C26.926337,27.1605919 27.026746,27.2002364 27.1427524,27.2002364 C27.2588057,27.2002364 27.3592852,27.1605919 27.4442377,27.0815 L30.8727823,23.8814168 C30.9576176,23.8022373 31,23.7085221 31,23.6001839 C30.9999765,23.4918675 30.9576176,23.3980867 30.8728527,23.318754 Z" id="Shape"></path>
                    </g>
                </g>
            </g>
        </g>
    </g>
</svg>