<?xml version="1.0" encoding="UTF-8"?>
<svg width="84px" height="79px" viewBox="0 0 84 79" version="1.1" xmlns="http://www.w3.org/2000/svg" xmlns:xlink="http://www.w3.org/1999/xlink">
    <!-- Generator: Sketch 48.2 (47327) - http://www.bohemiancoding.com/sketch -->
    <title>Press-icon</title>
    <desc>Created with Sketch.</desc>
    <defs></defs>
    <g id="13-1-Support" stroke="none" stroke-width="1" fill="none" fill-rule="evenodd" transform="translate(-992.000000, -1511.000000)">
        <g id="Contact" transform="translate(318.000000, 1511.000000)" stroke="#999999" stroke-width="2">
            <g id="Icons" transform="translate(260.000000, 0.000000)">
                <g id="Email-02" transform="translate(415.000000, 1.000000)">
                    <g id="Press-icon">
                        <path d="M76,77 C76,69.1884058 75.6354167,63.6086957 74.90625,60.2608696 C73.8125,55.2391304 56.859375,50.7753623 53.03125,49.6594203 C50.4791667,48.9154589 49.0208333,46.4691013 48.65625,42.3203473 C51.5729167,39.7734491 53.03125,37.7560386 53.03125,36.2681159 C53.03125,34.7801932 53.03125,33.1062802 53.03125,31.2463768 C54.4895833,30.1304348 55.21875,28.4565217 55.21875,26.2246377 C55.21875,22.8768116 56.859375,20.6449275 54.671875,20.6449275 C53.2135417,20.6449275 53.2135417,18.0410628 54.671875,12.8333333 C55.0364583,9.85748792 54.125,7.25362319 51.9375,5.02173913 C48.65625,1.67391304 43.1875,0 41,0" id="Path-11"></path>
                        <path d="M41,77 C41,69.197065 40.6410256,63.62354 39.9230769,60.279425 C38.8461538,55.2632525 22.1538462,50.8044325 18.3846154,49.6897275 C15.8717949,48.9465908 14.4358974,46.502945 14.0769231,42.35879 C16.9487179,39.814715 18.3846154,37.7995408 18.3846154,36.3132675 C18.3846154,34.8269942 18.3846154,33.1549367 18.3846154,31.297095 C19.8205128,30.18239 20.5384615,28.5103325 20.5384615,26.2809225 C20.5384615,22.9368075 22.1538462,20.7073975 20,20.7073975 C18.5641026,20.7073975 18.5641026,18.1064192 20,12.9044625 C20,6.21623253 18.7435897,3.40101835 16.2307692,4.45882 C15.1136457,4.92908642 15.1519912,3.34508434 14.0769231,2.7867625 C11.5246574,1.46127847 7.52592296,0 6,0" id="Path-11-Copy" transform="translate(23.500000, 38.500000) scale(-1, 1) translate(-23.500000, -38.500000) "></path>
                        <path d="M82,77 L0,77" id="Path-12" stroke-linecap="round" stroke-linejoin="round"></path>
                    </g>
                </g>
            </g>
        </g>
    </g>
</svg>