<?xml version="1.0" encoding="UTF-8"?>
<svg width="14px" height="11px" viewBox="0 0 14 11" version="1.1" xmlns="http://www.w3.org/2000/svg" xmlns:xlink="http://www.w3.org/1999/xlink">
    <!-- Generator: Sketch 48.2 (47327) - http://www.bohemiancoding.com/sketch -->
    <title>Shape</title>
    <desc>Created with Sketch.</desc>
    <defs></defs>
    <g id="02-1-Stories-Detail-Page-option1" stroke="none" stroke-width="1" fill="none" fill-rule="evenodd" transform="translate(-318.000000, -676.000000)">
        <g id="::HEADER::" fill="#111111" fill-rule="nonzero">
            <g id="Hero" transform="translate(0.000000, 79.000000)">
                <g id="SM-icons" transform="translate(240.000000, 577.000000)">
                    <g id="Twitter" transform="translate(60.000000, 0.000000)">
                        <path d="M32,21.301467 C31.484743,21.5223369 30.9318539,21.6721114 30.3509087,21.7389817 C30.9440619,21.3953942 31.3980828,20.8504373 31.6132912,20.2030758 C31.0569021,20.5212585 30.4427489,20.7522849 29.7883596,20.8775213 C29.2643385,20.3367894 28.518977,20 27.6922474,20 C26.1061842,20 24.8201696,21.2439406 24.8201696,22.7772736 C24.8201696,22.9947309 24.8455377,23.2071507 24.8945378,23.4102535 C22.508009,23.2943069 20.3917648,22.1883322 18.97541,20.5077165 C18.7278335,20.9172806 18.5869932,21.3945276 18.5869932,21.9039774 C18.5869932,22.8678424 19.0943822,23.7182797 19.8642437,24.2158126 C19.3935628,24.2005914 18.9509099,24.075355 18.5633611,23.8671875 L18.5633611,23.9018821 C18.5633611,25.2473876 19.5536951,26.3702898 20.8668137,26.6258544 C20.6262373,26.6884996 20.3725567,26.7231942 20.1101122,26.7231942 C19.9246398,26.7231942 19.7452995,26.7054271 19.5694311,26.6715722 C19.9351119,27.7758677 20.995446,28.5789351 22.2516965,28.6009273 C21.2692585,29.3456286 20.0304801,29.7882081 18.6849934,29.7882081 C18.4531809,29.7882081 18.2248124,29.7746661 18,29.750128 C19.2711185,30.5396534 20.7802376,31 22.4021688,31 C27.6853314,31 30.5731731,26.7672328 30.5731731,23.096323 L30.5635131,22.7367018 C31.1277983,22.3474236 31.6159232,21.8583138 32,21.301467 Z" id="Shape"></path>
                    </g>
                </g>
            </g>
        </g>
    </g>
</svg>