<?xml version="1.0" encoding="UTF-8" standalone="no"?>
<svg width="26px" height="24px" viewBox="0 0 26 24" version="1.1" xmlns="http://www.w3.org/2000/svg" xmlns:xlink="http://www.w3.org/1999/xlink" xmlns:sketch="http://www.bohemiancoding.com/sketch/ns">
    <!-- Generator: Sketch 3.0.2 (7799) - http://www.bohemiancoding.com/sketch -->
    <title>Rectangle 6</title>
    <description>Created with Sketch.</description>
    <defs></defs>
    <g id="Approved" stroke="none" stroke-width="1" fill="none" fill-rule="evenodd" sketch:type="MSPage">
        <g id="loandsons" sketch:type="MSArtboardGroup" transform="translate(-1129.000000, -44.000000)" fill="#333333">
            <g id="navigation" sketch:type="MSLayerGroup" transform="translate(-38.000000, -77.000000)">
                <g id="cart-nav" transform="translate(1167.000000, 121.000000)" sketch:type="MSShapeGroup">
                    <path d="M17.6640766,14.9877219 L17.2312529,17.602795 L17.2312529,17.602795 L5.72093353,17.6541039 C4.97723639,17.6541039 3.1157693,17.6190777 2.60870306,17.6015646 C2.54109423,17.6365908 2.50728981,17.7066433 2.50728981,17.7766958 C2.82843176,18.4071683 3.21663814,20.0980623 3.3518558,20.5358903 C3.40256242,20.623456 3.63919333,20.623456 3.68989996,20.5358903 L3.79131321,20.3607591 C4.09555295,19.8353654 4.02873749,18.9275463 5.64311201,19.0169651 L17.0754457,19.0169652 C17.0754457,19.0169652 17.0773061,19.0108676 17.0806218,19 L17.8783633,19 C18.0186973,19 18.1529675,18.9677372 18.2228278,18.9179782 C18.2926881,18.8682191 18.3374939,18.7555066 18.3524584,18.6623186 C19.1430415,13.7391668 21,3 21,3 L19.6481776,3 L19.6392492,3.05394437 C19.5617166,3.01930281 19.4757565,3 19.3855868,3 C19.3855868,3 13.6505677,4.11064712 10.5878218,4.45328772 C7.39350986,4.81064708 0.614413237,5.09999988 0.614413237,5.09999988 C0.275082176,5.09999988 0,5.3667784 0,5.70052287 L1.53846154,14.3994769 C1.53846154,14.7311366 1.81635064,14.9999999 2.15287478,14.9999999 L17.5394329,15 C17.5821385,15 17.6238265,14.9957745 17.6640766,14.9877219 L17.6640766,14.9877219 Z M20.5694945,1.95851477 C20.2732452,2.27562818 20.0806026,2.63900354 20.0000023,2.99612126 C19.9986176,3.00225627 20.629122,2.99976572 21.0037912,2.99774499 C21.162096,2.99689119 21.2747286,2.99612126 21.2747286,2.99612126 C21.3821447,2.47367549 22.0215117,2.2442631 22.9926472,2.2442631 C22.9945311,2.2442631 22.9960527,2.19837585 22.9972124,2.12422565 C23.2925484,2.18132382 23.5927754,2.30076677 23.7888802,2.54993144 L23.9086161,2.70206423 C23.968484,2.77813062 24.2478678,2.77813062 24.3077358,2.70206423 C24.4673836,2.32173225 24.8410979,1.45892485 25.2202616,0.911246812 C25.2202616,0.850393696 25.1803496,0.78954058 25.1005257,0.759114022 C24.5018461,0.774327301 23.8844158,0.804753858 23.0063525,0.804753858 C23.0063525,0.804753858 22.2069078,0.804753825 21.2916157,1.2423651 C20.3763236,1.67997638 20.2202616,1.9305365 20.2202616,1.9305365 C20.2202616,1.9305365 20.3602756,1.94204926 20.5694945,1.95851477 L20.5694945,1.95851477 Z M16,24 C17.1045695,24 18,23.1045695 18,22 C18,20.8954305 17.1045695,20 16,20 C14.8954305,20 14,20.8954305 14,22 C14,23.1045695 14.8954305,24 16,24 Z M7,24 C8.1045695,24 9,23.1045695 9,22 C9,20.8954305 8.1045695,20 7,20 C5.8954305,20 5,20.8954305 5,22 C5,23.1045695 5.8954305,24 7,24 Z" id="Rectangle-6" transform="translate(13.000000, 12.000000) scale(-1, 1) translate(-13.000000, -12.000000) "></path>
                </g>
            </g>
        </g>
    </g>
</svg>