<?xml version="1.0" encoding="UTF-8"?>
<svg width="20px" height="24px" viewBox="0 0 20 24" version="1.1" xmlns="http://www.w3.org/2000/svg" xmlns:xlink="http://www.w3.org/1999/xlink">
    <!-- Generator: Sketch 48 (47235) - http://www.bohemiancoding.com/sketch -->
    <title>Shape</title>
    <desc>Created with Sketch.</desc>
    <defs></defs>
    <g id="cart-icon" stroke="none" stroke-width="1" fill="none" fill-rule="evenodd" transform="translate(1.000000, 1.000000)">
        <g id="bag-icon" fill="#2D2D2D" fill-rule="nonzero" stroke="#2D2D2D" stroke-width="0.4">
            <path d="M16.6752843,4.70611025 C16.6601878,4.51994719 16.4997196,4.37940756 16.3023741,4.37940756 L13.3097253,4.37940756 L13.3097253,4.18581743 C13.3049963,1.87776681 11.3716471,0 8.99981811,0 C6.62826193,0 4.6948673,1.87776681 4.69022923,4.18581743 L4.6899564,4.37940756 L1.69753495,4.37940756 C1.50341793,4.37940756 1.3429042,4.52021244 1.32417002,4.70761335 L0.000454713101,19.213036 C-8.20795255e-16,20.7710409 1.43939432,22 3.2083647,22 L14.7914079,22 C16.5606966,22 18,20.7710409 18,19.2605162 L16.6752843,4.70611025 Z M8.99981811,0.724183595 C10.9605865,0.724183595 12.559676,2.2766624 12.5646324,4.18497746 L12.5651781,4.37936335 L5.43473099,4.37936335 L5.43532211,4.18497746 C5.4400966,2.2766624 7.03936805,0.724183595 8.99981811,0.724183595 Z" id="Shape"></path>
        </g>
    </g>
</svg>