<?xml version="1.0" encoding="UTF-8"?>
<svg width="39px" height="58px" viewBox="0 0 39 58" version="1.1" xmlns="http://www.w3.org/2000/svg" xmlns:xlink="http://www.w3.org/1999/xlink">
    <!-- Generator: Sketch 50.2 (55047) - http://www.bohemiancoding.com/sketch -->
    <title>sprite-icon-cart-v2</title>
    <desc>Created with Sketch.</desc>
    <defs></defs>
    <g id="Page-1" stroke="none" stroke-width="1" fill="none" fill-rule="evenodd">
        <g id="sprite-icon-cart-v2" transform="translate(1.000000, 1.000000)" fill-rule="nonzero" stroke-width="0.5">
            <path d="M16.6752843,4.70611025 C16.6601878,4.51994719 16.4997196,4.37940756 16.3023741,4.37940756 L13.3097253,4.37940756 L13.3097253,4.18581743 C13.3049963,1.87776681 11.3716471,0 8.99981811,0 C6.62826193,0 4.6948673,1.87776681 4.69022923,4.18581743 L4.6899564,4.37940756 L1.69753495,4.37940756 C1.50341793,4.37940756 1.3429042,4.52021244 1.32417002,4.70761335 L0.000454713101,19.213036 L0,19.2605162 C0,20.7710409 1.43939432,22 3.2083647,22 L14.7914079,22 C16.5606966,22 18,20.7710409 18,19.2605162 L18,19.2182968 L16.6752843,4.70611025 Z M8.99981811,0.724183595 C10.9605865,0.724183595 12.559676,2.2766624 12.5646324,4.18497746 L12.5651781,4.37936335 L5.43473099,4.37936335 L5.43532211,4.18497746 C5.4400966,2.2766624 7.03936805,0.724183595 8.99981811,0.724183595 Z M14.7914079,21.2711303 L3.2083647,21.2711303 C1.86596068,21.2711303 0.760598605,20.378644 0.744865531,19.2818248 L0.744729117,19.2717894 L2.03934279,5.10354695 L4.69022923,5.10354695 L4.69022923,7.24851147 C4.69022923,7.44820241 4.85738176,7.61058116 5.06277567,7.61058116 C5.26816958,7.61058116 5.43532211,7.44820241 5.43532211,7.24851147 L5.43532211,5.10354695 L12.5646324,5.10354695 L12.5646324,7.24851147 C12.5646324,7.44820241 12.731785,7.61058116 12.9371789,7.61058116 C13.1425273,7.61058116 13.3096344,7.44820241 13.3096344,7.24851147 L13.3096344,5.10354695 L15.9605663,5.10354695 L17.2552709,19.2762545 L17.255089,19.2862899 C17.2393105,20.3808544 16.1340393,21.2711303 14.7914079,21.2711303 Z" id="Shape" stroke="#111111" fill="#111111"></path>
            <path d="M35.6752843,4.70611025 C35.6601878,4.51994719 35.4997196,4.37940756 35.3023741,4.37940756 L32.3097253,4.37940756 L32.3097253,4.18581743 C32.3049963,1.87776681 30.3716471,0 27.9998181,0 C25.6282619,0 23.6948673,1.87776681 23.6902292,4.18581743 L23.6899564,4.37940756 L20.697535,4.37940756 C20.5034179,4.37940756 20.3429042,4.52021244 20.32417,4.70761335 L19.0004547,19.213036 L19,19.2605162 C19,20.7710409 20.4393943,22 22.2083647,22 L33.7914079,22 C35.5606966,22 37,20.7710409 37,19.2605162 L37,19.2182968 L35.6752843,4.70611025 Z M27.9998181,0.724183595 C29.9605865,0.724183595 31.559676,2.2766624 31.5646324,4.18497746 L31.5651781,4.37936335 L24.434731,4.37936335 L24.4353221,4.18497746 C24.4400966,2.2766624 26.0393681,0.724183595 27.9998181,0.724183595 Z M33.7914079,21.2711303 L22.2083647,21.2711303 C20.8659607,21.2711303 19.7605986,20.378644 19.7448655,19.2818248 L19.7447291,19.2717894 L21.0393428,5.10354695 L23.6902292,5.10354695 L23.6902292,7.24851147 C23.6902292,7.44820241 23.8573818,7.61058116 24.0627757,7.61058116 C24.2681696,7.61058116 24.4353221,7.44820241 24.4353221,7.24851147 L24.4353221,5.10354695 L31.5646324,5.10354695 L31.5646324,7.24851147 C31.5646324,7.44820241 31.731785,7.61058116 31.9371789,7.61058116 C32.1425273,7.61058116 32.3096344,7.44820241 32.3096344,7.24851147 L32.3096344,5.10354695 L34.9605663,5.10354695 L36.2552709,19.2762545 L36.255089,19.2862899 C36.2393105,20.3808544 35.1340393,21.2711303 33.7914079,21.2711303 Z" id="Shape" stroke="#00AEEF" fill="#00AEEF"></path>
            <path d="M16.6752843,38.7061103 C16.6601878,38.5199472 16.4997196,38.3794076 16.3023741,38.3794076 L13.3097253,38.3794076 L13.3097253,38.1858174 C13.3049963,35.8777668 11.3716471,34 8.99981811,34 C6.62826193,34 4.6948673,35.8777668 4.69022923,38.1858174 L4.6899564,38.3794076 L1.69753495,38.3794076 C1.50341793,38.3794076 1.3429042,38.5202124 1.32417002,38.7076134 L0.000454713101,53.213036 L0,53.2605162 C0,54.7710409 1.43939432,56 3.2083647,56 L14.7914079,56 C16.5606966,56 18,54.7710409 18,53.2605162 L18,53.2182968 L16.6752843,38.7061103 Z M8.99981811,34.7241836 C10.9605865,34.7241836 12.559676,36.2766624 12.5646324,38.1849775 L12.5651781,38.3793633 L5.43473099,38.3793633 L5.43532211,38.1849775 C5.4400966,36.2766624 7.03936805,34.7241836 8.99981811,34.7241836 Z M14.7914079,55.2711303 L3.2083647,55.2711303 C1.86596068,55.2711303 0.760598605,54.378644 0.744865531,53.2818248 L0.744729117,53.2717894 L2.03934279,39.103547 L4.69022923,39.103547 L4.69022923,41.2485115 C4.69022923,41.4482024 4.85738176,41.6105812 5.06277567,41.6105812 C5.26816958,41.6105812 5.43532211,41.4482024 5.43532211,41.2485115 L5.43532211,39.103547 L12.5646324,39.103547 L12.5646324,41.2485115 C12.5646324,41.4482024 12.731785,41.6105812 12.9371789,41.6105812 C13.1425273,41.6105812 13.3096344,41.4482024 13.3096344,41.2485115 L13.3096344,39.103547 L15.9605663,39.103547 L17.2552709,53.2762545 L17.255089,53.2862899 C17.2393105,54.3808544 16.1340393,55.2711303 14.7914079,55.2711303 Z" id="Shape" stroke="#FFFFFF" fill="#FFFFFF"></path>
        </g>
    </g>
</svg>