<?xml version="1.0" encoding="UTF-8"?>
<svg width="110px" height="28px" viewBox="0 0 110 28" version="1.1" xmlns="http://www.w3.org/2000/svg" xmlns:xlink="http://www.w3.org/1999/xlink">
    <!-- Generator: Sketch 52.6 (67491) - http://www.bohemiancoding.com/sketch -->
    <title>羊 (Yang)</title>
    <desc>Created with Sketch.</desc>
    <g id="Page-1" stroke="none" stroke-width="1" fill="none" fill-rule="evenodd">
        <g id="Names" transform="translate(-450.000000, -640.000000)" fill="#000000">
            <g id="Answer-Copy-7" transform="translate(421.000000, 571.000000)">
                <path d="M31.208,74.846 L43.454,74.846 C44.494,73.338 45.378,71.7 46.106,69.984 L47.458,70.478 C46.73,72.116 45.898,73.572 44.936,74.846 L50.968,74.846 L50.968,76.198 L41.764,76.198 L41.764,80.436 L49.668,80.436 L49.668,81.788 L41.764,81.788 L41.764,86.13 L52.424,86.13 L52.424,87.508 L41.764,87.508 L41.764,93.956 L40.36,93.956 L40.36,87.508 L29.596,87.508 L29.596,86.13 L40.36,86.13 L40.36,81.788 L32.456,81.788 L32.456,80.436 L40.36,80.436 L40.36,76.198 L31.208,76.198 L31.208,74.846 Z M35.862,70.088 C36.824,71.336 37.734,72.714 38.592,74.222 L37.396,74.794 C36.512,73.26 35.602,71.882 34.64,70.66 L35.862,70.088 Z M68.18,69.698 L69.61,69.698 C68.57,71.388 67.738,73.182 67.14,75.106 C66.386,77.394 66.022,79.63 66.022,81.84 C66.022,84.024 66.386,86.286 67.14,88.574 C67.738,90.472 68.57,92.266 69.61,93.982 L68.18,93.982 C67.088,92.318 66.23,90.524 65.606,88.626 C64.852,86.338 64.488,84.076 64.488,81.84 C64.488,79.604 64.852,77.342 65.606,75.08 C66.23,73.156 67.088,71.362 68.18,69.698 Z M71.508,72.636 L73.458,72.636 L79.776,82.074 L86.068,72.636 L88.018,72.636 L80.556,83.556 L80.556,91.2 L78.97,91.2 L78.97,83.556 L71.508,72.636 Z M95.48,77.394 C97.352,77.394 98.756,77.888 99.666,78.928 C100.446,79.786 100.862,80.982 100.862,82.542 L100.862,91.2 L99.38,91.2 L99.38,88.626 C98.834,89.406 98.106,90.082 97.222,90.602 C96.13,91.226 94.96,91.564 93.686,91.564 C92.386,91.564 91.32,91.226 90.54,90.576 C89.682,89.9 89.266,88.99 89.266,87.898 C89.266,86.338 89.89,85.194 91.164,84.466 C92.256,83.764 93.842,83.4 95.87,83.4 L99.302,83.348 L99.302,82.542 C99.302,79.994 98.002,78.72 95.402,78.72 C94.31,78.72 93.426,78.928 92.724,79.396 C91.944,79.89 91.45,80.592 91.242,81.528 L89.708,81.424 C89.968,80.072 90.644,79.032 91.736,78.356 C92.698,77.706 93.946,77.394 95.48,77.394 Z M99.302,84.57 L95.948,84.622 C92.542,84.648 90.852,85.74 90.852,87.872 C90.852,88.6 91.138,89.172 91.71,89.614 C92.282,90.056 93.062,90.29 93.998,90.29 C95.35,90.29 96.598,89.822 97.69,88.886 C98.756,88.002 99.302,87.014 99.302,85.974 L99.302,84.57 Z M110.066,77.394 C113.394,77.394 115.058,79.24 115.058,82.932 L115.058,91.2 L113.498,91.2 L113.498,83.036 C113.498,80.176 112.224,78.746 109.676,78.746 C108.584,78.746 107.7,79.136 106.972,79.916 C106.192,80.696 105.776,81.762 105.698,83.088 L105.698,91.2 L104.138,91.2 L104.138,77.758 L105.698,77.758 L105.698,79.968 C106.166,79.162 106.764,78.538 107.518,78.07 C108.272,77.602 109.13,77.394 110.066,77.394 Z M123.872,77.394 C126.082,77.394 127.694,78.408 128.682,80.462 L128.682,77.758 L130.242,77.758 L130.242,90.212 C130.242,94.528 128.214,96.712 124.21,96.712 C122.442,96.712 121.09,96.322 120.128,95.568 C119.218,94.84 118.646,93.774 118.412,92.344 L119.972,92.344 C120.154,93.332 120.57,94.086 121.22,94.58 C121.896,95.126 122.884,95.412 124.21,95.412 C127.174,95.412 128.682,93.722 128.682,90.394 L128.682,87.82 C127.694,89.848 126.082,90.888 123.872,90.888 C122,90.888 120.492,90.212 119.374,88.886 C118.334,87.638 117.814,86.078 117.814,84.154 C117.814,82.256 118.334,80.67 119.374,79.422 C120.492,78.07 122,77.394 123.872,77.394 Z M124.054,78.72 C122.572,78.72 121.428,79.24 120.596,80.332 C119.79,81.32 119.4,82.594 119.4,84.154 C119.4,85.662 119.764,86.91 120.518,87.898 C121.324,88.99 122.494,89.536 124.028,89.536 C125.51,89.536 126.68,89.016 127.512,87.976 C128.292,86.988 128.682,85.714 128.682,84.154 C128.682,82.594 128.292,81.32 127.512,80.332 C126.68,79.24 125.51,78.72 124.054,78.72 Z M133.648,69.698 L135.078,69.698 C136.144,71.362 137.002,73.156 137.652,75.08 C138.38,77.342 138.77,79.604 138.77,81.84 C138.77,84.076 138.38,86.338 137.652,88.626 C137.002,90.524 136.144,92.318 135.078,93.982 L133.648,93.982 C134.688,92.266 135.494,90.472 136.118,88.574 C136.846,86.286 137.236,84.024 137.236,81.84 C137.236,79.63 136.846,77.394 136.118,75.106 C135.494,73.182 134.688,71.388 133.648,69.698 Z" id="羊-(Yang)"></path>
            </g>
        </g>
    </g>
</svg>