<?xml version="1.0" encoding="UTF-8"?>
<svg width="72px" height="121px" viewBox="0 0 72 121" version="1.1" xmlns="http://www.w3.org/2000/svg" xmlns:xlink="http://www.w3.org/1999/xlink">
    <!-- Generator: Sketch 52.6 (67491) - http://www.bohemiancoding.com/sketch -->
    <title>Group 16</title>
    <desc>Created with Sketch.</desc>
    <defs>
        <polygon id="path-1" points="0.133510656 0.0378311111 68.3398919 0.0378311111 68.3398919 112 0.133510656 112"></polygon>
    </defs>
    <g id="Page-1" stroke="none" stroke-width="1" fill="none" fill-rule="evenodd">
        <g id="Rabbit" transform="translate(-102.000000, -32.000000)">
            <g id="Group-16" transform="translate(102.000000, 32.000000)">
                <g id="Group-3" transform="translate(3.000000, 9.000000)">
                    <mask id="mask-2" fill="white">
                        <use xlink:href="#path-1"></use>
                    </mask>
                    <g id="Clip-2"></g>
                    <path d="M24.452728,110.318009 C24.671079,110.374009 25.0484464,110.434987 25.298838,110.437476 C25.4305605,110.407609 25.7592737,110.233387 25.9313437,110.105209 C25.9977983,109.93472 26.0310256,109.473031 26.0500127,109.246542 C26.0583195,109.120853 26.0666263,109.00512 26.0773066,108.903076 L26.3122712,106.609564 L27.4538669,108.582009 C27.4681072,108.605653 27.4787874,108.62432 27.4906543,108.647964 C27.5855895,108.036942 27.6461106,107.247964 27.6045765,106.797476 C27.4586136,106.486364 26.7525331,105.674987 26.0357724,105.001742 C26.0357724,105.001742 22.0164536,101.513564 20.6660005,100.359964 C19.1541575,99.0694756 19.3630149,97.9245867 19.8270107,97.1741867 C20.3396607,96.1114311 21.1430498,95.0972089 21.8550638,94.2049422 C22.409248,93.5030756 22.9337649,92.8460089 23.2363709,92.27232 C23.7276605,91.3389867 24.4278076,89.3926756 24.4574748,88.1631644 L24.4645949,88.0822756 C24.5832639,87.1564089 23.7039267,84.0278756 23.2339975,82.3478756 C22.8423898,80.9553422 22.7593215,80.6330311 22.7593215,80.3866311 L22.7593215,79.6063644 L23.5128696,79.5789867 C24.0445067,79.5789867 24.2236969,79.5789867 25.3142649,83.2351644 C25.6322978,84.3004089 25.9930516,85.6244978 26.1924155,86.7270756 C29.0677652,84.47712 33.4169838,78.9231644 33.9450608,77.9997867 C34.5194187,76.9967644 36.2068918,73.7487644 36.5688322,72.9896533 C37.0458816,71.9916089 38.0154073,69.1206756 37.8302836,68.1238756 C37.7697624,67.7940978 37.0102809,66.6703644 36.2057051,65.7121422 L37.3164469,64.6680533 L39.4145147,67.0972089 C39.4952096,67.1196089 39.5996383,67.1121422 39.635239,67.0872533 L41.8068816,65.4097422 L40.7614078,68.0180978 C40.5762841,68.4822756 40.1823031,68.78592 39.6281189,68.9028978 C39.6257455,70.3128533 39.6186253,73.3194311 39.581838,74.2888533 C39.5723444,74.5352533 39.6957602,75.6988089 39.7788285,75.9414756 C40.3531864,77.1423644 42.1640752,78.7252978 42.984078,79.0625422 C43.1597081,78.8024533 43.3733123,78.4129422 43.4136597,78.2586311 C43.5418223,77.5268978 43.477741,76.6246756 43.4053529,75.6652089 C43.3519519,74.9521422 43.2961774,74.2092089 43.3127911,73.4364089 C43.3519519,71.2026311 43.8895224,65.1670756 44.1683945,62.4268089 C44.189755,62.2102756 44.1802614,61.4909867 44.1636478,61.0492089 L43.952417,57.2698311 L45.433406,57.1204978 L45.7158382,59.37792 L46.8977814,58.0314311 C47.1042654,57.7526756 49.4800187,54.5133867 50.2383135,51.1036089 C50.5124389,49.8628978 50.4709048,47.6714311 50.4364908,45.7350756 C50.4091969,44.1533867 50.3807163,42.65632 50.5041321,41.5860978 C50.6322946,40.43872 51.4641642,37.7743644 51.6884486,37.12352 C52.215339,35.5853867 54.0226677,32.9409422 56.8505498,31.9503644 C57.2563978,31.8097422 57.7643011,31.7624533 58.3481525,31.7064533 C58.9901518,31.64672 59.7175927,31.5770311 60.4296067,31.3716978 C62.8077333,30.6785422 65.346063,29.0122311 66.2289603,28.0029867 C65.3709835,27.62592 64.8595202,26.7460978 64.7918788,26.6228978 L62.7483988,22.9368533 L65.9038073,25.62112 C66.1636924,25.8426311 66.5695404,26.0840533 66.8128118,26.1412978 C66.961148,25.57632 66.8614661,23.33632 63.6384162,19.9962311 C63.0949122,19.5432533 62.3805249,18.8986311 61.6234167,18.21792 C60.1720949,16.9112533 58.5249693,15.42912 57.5815508,14.8093867 C56.9003908,14.3638756 54.7702824,13.9270756 53.780583,13.79392 C52.827671,13.6657422 51.0357692,13.8125867 49.3577896,13.9706311 C47.50774,14.1460978 45.5663153,14.3016533 44.4235329,14.1274311 C43.8740954,14.0440533 42.9911981,13.61472 42.5687365,13.2849422 C40.9560249,12.0255644 39.5272502,10.1663644 38.1459431,8.36938667 C37.0470683,6.93952 36.011088,5.58805333 35.077163,4.83640889 C33.9177669,3.89934222 31.0068165,2.55658667 29.4059718,1.94183111 C29.0452181,1.80369778 28.2180952,1.60458667 27.663911,1.60458667 C27.6223768,1.60458667 27.5867761,1.60583111 27.5571089,1.60832 C27.5440553,1.79125333 27.5832161,2.14716444 27.7813933,2.60138667 C28.0958661,3.32316444 28.3486311,3.94414222 28.5705421,4.48920889 C29.0001239,5.54325333 29.3122233,6.30236444 29.7204446,6.97685333 C29.8319935,7.15854222 29.975583,7.41116444 30.1417196,7.70485333 C30.8691605,8.97916444 32.3833768,11.63232 33.56532,12.3628089 C34.9857879,13.2388978 35.9826074,13.5375644 36.9473863,13.8312533 L37.2974598,13.9532089 C38.5814583,14.6588089 39.7467879,15.7240533 40.4172677,16.8017422 C41.3583128,18.3124978 40.6842729,20.2849422 40.5098295,20.7366756 C40.3911605,21.3439644 39.6494793,25.0412089 38.7179277,26.5830756 C37.5169975,28.8828089 34.8730523,30.6598756 33.8809795,31.3281422 L33.7884177,31.3928533 C32.9767218,31.93792 29.447506,34.97312 28.360498,36.4714311 C28.0495852,36.8970311 27.679338,37.6076089 27.2877303,38.3580089 C26.7371062,39.4132978 26.167495,40.5046756 25.5729633,41.1903644 C25.0579399,41.7839644 23.6956199,43.1615644 22.3772074,44.4918756 C21.268839,45.6093867 20.1248699,46.7679644 19.7985301,47.14752 C19.6751144,47.2881422 19.466257,47.5258311 19.1850114,47.84192 C10.9434499,57.1615644 5.6140254,64.4776533 3.34744763,69.5948089 C1.25175322,74.3224533 1.61606702,79.7668978 1.70862884,80.8109867 C2.07056927,84.8193422 3.56105182,88.2950756 5.69709369,90.11072 C6.22517071,90.5562311 8.73145985,92.1304533 9.80066747,92.8036978 L10.1578611,93.0264533 C10.2266892,93.0712533 10.3216244,93.1172978 10.4307998,93.1757867 C11.1012796,93.5254756 12.3508641,94.1738311 12.8421538,95.6173867 C13.1328928,96.47232 13.1471331,97.4703644 13.1601867,98.3526756 C13.1673068,98.9002311 13.177987,99.5846756 13.281229,99.8012089 C13.8306665,100.953564 18.566746,108.553387 19.8246373,109.290098 C19.8495578,109.28512 19.8661715,109.280142 19.8732916,109.277653 C19.8614247,109.263964 19.910079,109.052409 19.7593694,108.51232 L19.0034479,105.793209 L20.9804733,107.722098 C21.5738183,108.300764 21.5738183,109.020053 21.5761917,109.450631 C21.5761917,109.504142 21.5761917,109.566364 21.578565,109.619876 C21.7779289,109.741831 22.2810855,109.924764 22.6287856,109.984498 C22.6477727,109.882453 22.6679464,109.761742 22.6869334,109.652231 C22.7118539,109.496676 22.7403345,109.322453 22.7747485,109.134542 L23.1200752,107.316409 L24.1204549,108.844587 C24.4622216,109.367253 24.4574748,109.927253 24.4551014,110.295609 C24.452728,110.300587 24.452728,110.310542 24.452728,110.318009 M25.3237584,112.000498 C25.3118916,112.000498 23.9412647,111.985564 23.3479197,111.465387 C23.346733,111.465387 23.3443596,111.462898 23.3419863,111.460409 C23.2826518,111.485298 23.2185705,111.511431 23.1497425,111.528853 C23.0512472,111.552498 22.9456318,111.567431 22.8257761,111.567431 C22.2953257,111.567431 21.0409945,111.230187 20.4844369,110.700053 C20.285073,110.792142 20.0358681,110.855609 19.726142,110.860587 L19.6513806,110.861831 L19.5778058,110.848142 C17.5758599,110.457387 11.9901104,100.596409 11.9438295,100.498098 C11.6886912,99.9642311 11.6780109,99.2262756 11.666144,98.3713422 C11.6566505,97.61472 11.6424102,96.7510756 11.4371129,96.1400533 C11.1475605,95.2900978 10.3156909,94.8570311 9.76625346,94.5732978 C9.61317046,94.4924089 9.48382126,94.4252089 9.38769938,94.3642311 L9.03287909,94.1402311 C7.12942844,92.9430756 5.29243243,91.7757867 4.75604858,91.3190756 C2.3138407,89.2458311 0.620434172,85.3718756 0.221706356,80.9553422 C0.122024402,79.8415644 -0.264836515,74.02752 1.99224773,68.9340089 C4.32646682,63.6712533 9.74014629,56.2145422 18.0885099,46.7791644 C18.3614486,46.4692978 18.5655593,46.2378311 18.6866017,46.0984533 C19.0473554,45.6790756 20.1094429,44.6088533 21.337667,43.3656533 C22.577758,42.1112533 23.9839855,40.6938311 24.4645949,40.1375644 C24.9404576,39.5900089 25.4910817,38.5334756 25.9752512,37.6063644 C26.3953395,36.8024533 26.7916939,36.0433422 27.1690613,35.52192 C28.3581246,33.88672 31.9834623,30.7469867 32.9779085,30.0762311 L33.0728437,30.0127644 C33.9794748,29.4029867 36.389642,27.7814756 37.4327425,25.7878756 C38.1601834,24.5807644 38.850837,21.4584533 39.0596944,20.3533867 L39.1119087,20.1804089 C39.2934723,19.7498311 39.6625329,18.4493867 39.1664965,17.6529422 C38.6467263,16.8191644 37.695001,15.9492978 36.6685142,15.37312 L36.5320448,15.3295644 C35.5281052,15.0284089 34.3924429,14.6836978 32.8070251,13.7080533 C31.2963689,12.77472 29.772659,10.1041422 28.8624678,8.50627556 C28.7022647,8.22378667 28.566982,7.98734222 28.4613666,7.81187556 C27.9866907,7.03160889 27.6567909,6.22396444 27.1987285,5.10396444 C26.9791909,4.56636444 26.7311727,3.95783111 26.4226333,3.24849778 C25.8316617,1.88458667 25.9776246,0.637653333 26.779827,0.215786667 C27.0041114,0.0975644444 27.2948504,0.0378311111 27.6615376,0.0378311111 C28.4364461,0.0378311111 29.4451326,0.291697778 29.9150618,0.470897778 C31.5325202,1.09187556 34.6119805,2.48938667 35.9826074,3.59569778 C37.0553751,4.46058667 38.1471298,5.88049778 39.3017791,7.38503111 C40.6249384,9.10485333 41.9931919,10.8868978 43.4551939,12.0292978 C43.7127056,12.2308978 44.3725052,12.5382756 44.6323903,12.5768533 C45.605476,12.7249422 47.4745127,12.5743644 49.2213203,12.4100978 C50.994235,12.2408533 52.8573382,12.0890311 53.9657066,12.2396089 C53.9977472,12.2433422 57.1412889,12.6764089 58.3695129,13.4815644 C59.4054932,14.16352 61.0977131,15.6854756 62.590569,17.0282311 C63.3488639,17.7126756 64.0668113,18.3585422 64.5913282,18.7965867 L64.6518494,18.8513422 C68.6201406,22.9468089 68.4302702,25.6733867 68.2771872,26.4125867 C68.2237861,26.6826311 68.1335977,26.9165867 68.0125553,27.1094756 L68.029169,27.2774756 C68.2558267,29.4776533 63.390398,32.1258311 60.8235877,32.8737422 C59.9845979,33.1151644 59.1503549,33.1935644 58.4775017,33.2582756 C58.0075725,33.30432 57.5601904,33.3441422 57.3181057,33.4300089 C54.9257388,34.26752 53.4364429,36.6332089 53.0887427,37.6474311 C52.8241109,38.4177422 52.0848031,40.8456533 51.9803744,41.7702756 C51.8700122,42.7322311 51.8949327,44.1770311 51.9245999,45.7014756 C51.9613873,47.8294756 52.0005481,50.0284089 51.6860752,51.4545422 C50.8197916,55.35712 48.1556727,58.8776533 48.0429372,59.0257422 L48.0120832,59.0655644 L45.6671839,61.7361422 C45.6695573,62.0584533 45.6671839,62.3956978 45.6458235,62.59232 C45.3705114,65.3064533 44.8388744,71.2797867 44.7985269,73.46752 C44.7854733,74.1644089 44.836501,74.8650311 44.8875286,75.5432533 C44.9634768,76.6060089 45.0406116,77.61152 44.870915,78.5548089 C44.771233,79.1036089 44.0615924,80.3256533 43.630824,80.5832533 L43.4706209,80.6815644 L43.2854972,80.6852978 L43.2843105,80.6852978 C41.7617874,80.6877867 39.1629364,78.1441422 38.4307487,76.6072533 C38.1898507,76.1057422 38.0783018,74.4892089 38.0901687,74.2228978 C38.0996622,73.9901867 38.1067824,73.6280533 38.1139025,73.1962311 C38.0189673,73.42272 37.9442059,73.59072 37.9002983,73.6852978 C37.5300511,74.4630756 35.8069773,77.7782756 35.2207525,78.8012089 C34.7033557,79.7071644 29.1508335,86.9647644 25.949144,88.7468089 L25.9028631,88.7729422 C25.7224863,90.2600533 25.0342061,92.0881422 24.5381697,93.0276978 C24.1667358,93.7308089 23.599498,94.44512 22.9966595,95.2017422 C22.2965124,96.0840533 21.5714449,96.9949867 21.1394898,97.9108978 L21.0872754,98.0029867 C20.9579262,98.2058311 20.7977231,98.4534756 21.6070456,99.1441422 C22.9646189,100.30272 27.0100448,103.817031 27.0100448,103.817031 C27.5559222,104.328498 28.8019466,105.562987 29.0452181,106.366898 L29.0713252,106.495076 C29.1911809,107.384853 28.9941904,109.104676 28.7532923,109.836409 L28.6915845,109.978276 C28.566982,110.201031 27.8585281,111.12192 27.1109135,111.070898 C27.0503923,111.154276 26.9815643,111.228942 26.9008694,111.297387 C26.7335461,111.43552 25.9242236,112.000498 25.3237584,112.000498" id="Fill-1" fill="#000000" mask="url(#mask-2)"></path>
                </g>
                <path d="M48.7303379,21.3535092 C49.1109427,21.411825 49.5901379,21.4416033 50.11175,21.4416033 C50.9016196,21.4416033 51.6834645,21.3733614 52.332327,21.2542483 C51.5883133,20.1288774 50.874106,18.4687382 50.1713628,16.2266818 C49.8205644,15.1186816 49.5901379,13.5056913 49.3436619,11.7984032 C49.1063571,10.1568754 48.8621739,8.45703188 48.5239858,7.42223661 C47.9645426,5.68765172 45.951464,3.0175325 44.4026775,1.57080434 C44.3705783,1.56460053 44.3166975,1.55839672 44.2398887,1.55839672 C44.0644895,1.55839672 43.9097254,1.59437881 43.8673086,1.61547176 C43.8076958,1.6725468 43.6300038,1.99266332 43.6036366,2.12666559 C43.312451,4.55359551 43.3571606,9.4967902 44.1986183,12.1110751 C44.6090295,13.0205535 45.2555992,14.2327777 45.9377072,15.5169661 C47.0714969,17.652317 48.2419714,19.8571506 48.7303379,21.3535092 M50.11175,23 L50.1094572,23 C49.2737315,23 48.5239858,22.9255543 48.0069594,22.791552 L47.5896698,22.682365 L47.4784689,22.23445 C47.1643553,20.9552247 45.848288,18.4774235 44.6892775,16.2924421 C43.983095,14.9660679 43.318183,13.7128985 42.8859901,12.7537897 L42.8550373,12.6718994 C41.8760117,9.67421913 41.8737189,4.48039057 42.1786613,1.9157361 C42.2451525,1.38096779 42.6956877,0.534768301 43.186347,0.243189297 C43.5669518,0.0173706641 44.0908567,0 44.2410351,0 C44.6927167,0 45.0377831,0.111668555 45.2796736,0.333764903 C46.9740529,1.89340238 49.2175579,4.85013756 49.8847628,6.90607973 C50.2653676,8.07611803 50.518722,9.84792577 50.7663444,11.5589362 C50.9933317,13.1247775 51.2260509,14.7452123 51.5321397,15.7266548 C52.6143414,19.1648055 53.5337543,20.5532179 54.1161255,21.1115607 L55,21.9602417 L53.9006023,22.421805 C52.876867,22.8473863 51.2719069,23 50.11175,23" id="Fill-4" fill="#000000"></path>
                <path d="M48.660453,84.5543095 C49.2122031,85.126089 50.1061623,85.9130677 50.817858,86.2521316 C50.9195288,86.1545412 51.0100406,86.041937 51.1117114,85.8792864 C51.0534367,84.3553753 51.1737058,82.6 51.3125733,80.5831325 C51.559311,77.0473587 51.835806,73.071177 51.2567783,68.8560241 C50.6393141,69.6379981 50.0404483,70.3836886 49.7899909,70.6939759 C48.9456272,74.7352178 48.3070849,80.6732159 48.660453,84.5543095 Z M51.1327895,88 L50.7670226,87.9024096 C49.24692,87.5020389 47.5284353,85.6365616 47.3387325,85.426367 L47.166388,85.2361909 L47.1366307,84.9797034 C46.6840716,80.6957368 47.4280044,74.3060704 48.3095647,70.1784986 L48.3467614,69.9970806 L48.4645507,69.8506951 C49.4217442,68.6583411 51.3398508,66.2561168 51.7378549,65.6843373 L55,61 L53.1104108,66.3974977 C52.9281473,66.9154773 52.721086,67.5710843 52.6727304,67.805051 C53.4365013,72.4993976 53.11909,77.0398517 52.8673928,80.6932345 C52.7235658,82.7626506 52.5983371,84.5543095 52.6752101,86.0369323 L52.687609,86.2608897 L52.5784989,86.4585728 C52.1879342,87.1667285 51.8568841,87.4507414 51.4328424,87.771038 L51.1327895,88 Z" id="Fill-6" fill="#000000"></path>
                <path d="M36.3680002,112.445462 C36.5976399,112.445462 36.8669129,112.450358 37.1583339,112.452806 C37.5266901,112.457702 37.9370108,112.465047 38.3578227,112.465047 C40.149479,112.465047 41.0109194,112.347538 41.4224059,112.220238 C41.4888499,111.961964 41.5366429,111.649832 41.5389743,111.430728 C41.2055887,110.266661 39.9198392,108.101324 39.050239,107.426875 C38.5012019,107.226131 36.7421848,107.015595 35.4436128,106.86259 C34.4737638,106.746305 33.5587018,106.638589 32.9455521,106.524753 C32.8266523,106.50272 32.5492195,106.50272 32.3032602,106.50272 C31.4301629,106.500272 30.5267578,106.500272 30.0628156,105.899266 C29.6897968,105.41944 29.821519,104.616466 29.9753893,104.293318 C30.4090238,103.375283 31.2588074,102.667785 32.1575497,101.916221 C33.414157,100.870886 34.7115633,99.7839333 35.2128074,98.0029468 C35.3946541,97.3493064 35.7548504,94.5217608 35.9436912,91.231526 C35.9005609,91.2817119 35.8574306,91.3318977 35.8166317,91.3845317 C33.6717732,93.9721643 31.4569736,96.6491522 29.1757301,97.9331762 C28.7269418,99.9699882 27.8911464,101.607761 27.2710025,102.822015 L27.188239,102.986037 C26.9154689,103.523393 26.3979052,104.210083 25.9001582,104.877187 C25.6017431,105.275002 25.3196476,105.652008 25.1331381,105.937211 C25.0457118,106.123266 24.9256464,106.314217 24.8009182,106.519857 C24.7274801,106.633693 24.628397,106.796491 24.5549589,106.93236 C26.0050697,107.988712 33.3290621,111.238553 36.3680002,112.445462 M38.3578227,114 C37.9300167,114 37.5138675,113.995104 37.139683,113.990208 C36.8331081,113.985311 36.5591724,113.982863 36.3225385,113.982863 L36.1033899,113.982863 L35.9763304,113.932677 C34.7943268,113.466316 31.7180869,112.165155 28.8691552,110.851754 C23.3578014,108.309412 23.1922743,107.823465 23.0582207,107.430547 C22.8553917,106.834436 23.2202507,106.245671 23.5722873,105.676489 C23.6725361,105.516139 23.7867731,105.333756 23.8299035,105.230937 L23.887022,105.124445 C24.1050049,104.78416 24.4174082,104.365536 24.7496281,103.92488 C25.189091,103.338562 25.6845066,102.676353 25.8966611,102.261402 L25.9805904,102.096156 C26.6298763,100.82682 27.435364,99.2441291 27.8153769,97.2623991 L27.888815,96.882945 L28.2175379,96.7176988 C30.3402484,95.651555 32.5632077,92.9696709 34.7115633,90.3734699 C35.2151388,89.7663433 35.7175485,89.1567685 36.2234554,88.5643304 L37.5581635,87 L37.4998793,89.1016865 C37.3786482,93.3062834 36.8937237,97.4374377 36.6139595,98.4350349 C35.9833245,100.684831 34.3665208,102.033729 33.0667832,103.118234 C32.2904377,103.76453 31.6190037,104.326367 31.3135945,104.916357 C31.5898616,104.964095 32.0538038,104.964095 32.3044259,104.964095 C32.6552968,104.964095 32.9560432,104.964095 33.1996712,105.009384 C33.7661936,105.1171 34.6614389,105.222368 35.6056429,105.333756 C37.6700692,105.581014 39.0677243,105.763397 39.680874,106.037583 L39.8056022,106.106129 C41.0214106,106.969082 42.5904212,109.625261 42.9727656,111.1137 L42.9972449,111.27405 C43.0217243,111.810182 42.8806765,112.598468 42.6696877,113.107671 L42.5717703,113.347584 L42.3526217,113.47366 C41.7184896,113.842098 40.5213322,114 38.3578227,114" id="Fill-8" fill="#000000"></path>
                <path d="M1.50300257,88.3388128 C1.68372891,90.5312024 2.38375751,93.7881279 4.79611095,95.7127347 L4.40148699,94.8473871 L3.66256792,92.0231355 C3.46354018,91.1314054 3.16385473,90.0523592 3.02316271,89.8149163 C2.74177867,89.3413496 2.22247641,88.7714866 1.50300257,88.3388128 Z M8,99 L6.28767515,98.3694571 C0.538747498,96.254896 0.0285959394,89.2147133 0.0091507006,87.1027905 L0,86 L0.923076923,86.3020802 C2.2830998,86.745307 3.51043752,87.7069508 4.20932228,88.8783359 C4.56048041,89.4693049 4.94023449,91.0944698 5.04661138,91.5812278 L5.75464684,94.286758 L8,99 Z" id="Fill-10" fill="#000000"></path>
                <path d="M43.4760295,25 C42.6816686,25 41.5878324,24.7051066 40.2060838,24.1153199 L40.7425954,22.6693513 C41.741617,23.0968227 42.8678289,23.4103018 43.4413413,23.4437561 C42.561416,20.6955483 36.2735925,15.0925746 32,12.3319763 L32.7481099,11 C35.8168638,12.9824763 44.7826203,19.9992035 44.9895935,23.8637933 L45,24.0632799 L44.9213733,24.2441809 C44.6958997,24.7484733 44.2148893,25 43.4760295,25" id="Fill-12" fill="#000000"></path>
                <path d="M59,28.5005348 C59,28.7326203 58.9806237,29.4235294 59,29.6139037 C58.7226764,29.6641711 58.0820466,29.8374332 57.9730548,29.8834225 C57.7550711,29.9721925 57.5189222,30 57.2137451,30 C56.6409325,30 56.1298819,29.773262 55.8041175,29.4213904 C55.6854375,29.2962567 55.0775053,28.7614973 55,28.6898396 C55.0799273,28.5828877 55.538904,27.9005348 55.7326673,27.6609626 C56.0547987,27.2620321 56.5985468,27 57.2137451,27 C58.2031487,27 59,27.6705882 59,28.5005348" id="Fill-14" fill="#000000"></path>
            </g>
        </g>
    </g>
</svg>