<?xml version="1.0" encoding="UTF-8"?>
<svg width="119px" height="87px" viewBox="0 0 119 87" version="1.1" xmlns="http://www.w3.org/2000/svg" xmlns:xlink="http://www.w3.org/1999/xlink">
    <!-- Generator: Sketch 52.6 (67491) - http://www.bohemiancoding.com/sketch -->
    <title>Group 8</title>
    <desc>Created with Sketch.</desc>
    <defs>
        <polygon id="path-1" points="0 0.740231365 118.998192 0.740231365 118.998192 86.6666667 0 86.6666667"></polygon>
    </defs>
    <g id="Page-1" stroke="none" stroke-width="1" fill="none" fill-rule="evenodd">
        <g id="Rat" transform="translate(-92.000000, -63.000000)">
            <g id="Group-8" transform="translate(92.000000, 63.000000)">
                <g id="Group-3">
                    <mask id="mask-2" fill="white">
                        <use xlink:href="#path-1"></use>
                    </mask>
                    <g id="Clip-2"></g>
                    <path d="M117.18882,66.5601333 C115.112931,71.4921333 113.883264,72.7201333 113.076709,73.5321333 C112.20272,74.3214667 111.661931,75.4201333 111.569376,76.5988 C111.351209,78.4721333 111.386909,80.3654667 111.675153,82.2268 C111.877453,83.3041333 111.914476,84.4054667 111.780931,85.4921333 C111.780931,85.4921333 111.397487,85.3601333 110.776042,84.1588 C109.361264,81.2654667 108.488598,76.1588 109.45382,73.8788 C109.825364,73.0894667 110.235253,72.3201333 110.683487,71.5734667 C112.746153,67.9734667 115.853376,62.5201333 110.075264,59.1054667 L109.837264,58.9734667 C100.832931,53.6401333 91.8021533,48.4521333 88.7888089,48.4521333 C87.1399978,48.5908 85.5176311,48.9454667 83.9613756,49.5054667 C82.1287756,50.0934667 80.2604756,50.5614667 78.3683756,50.9068 C78.0087311,50.9721333 77.7707311,51.3188 77.83552,51.6814667 C77.8672533,51.8534667 77.9624533,52.0054667 78.1039311,52.1068 C78.1621089,52.1441333 78.2149978,52.1894667 78.26392,52.2401333 C78.4080422,52.3934667 78.4490311,52.6174667 78.3683756,52.8121333 C77.6742089,53.8401333 76.58602,54.5268 75.3669311,54.7068 C74.64632,54.8388 73.9164533,54.9228 73.1852644,54.9601333 C70.3834756,55.1521333 67.6041644,55.5974667 64.8817089,56.2934667 C62.8706089,56.8441333 60.8119089,57.1974667 58.7333756,57.3468 C60.85422,56.5614667 63.0107644,55.8854667 65.1990422,55.3201333 C65.5639756,55.2828 65.8310644,54.9548 65.7940422,54.5868 C65.7583422,54.2188 65.4317533,53.9494667 65.06682,53.9868 C63.3042978,53.9428 61.5457422,54.1814667 59.8572644,54.6934667 C59.0401311,54.9894667 58.1727533,55.1161333 57.3053756,55.0668 C58.5390089,54.0868 60.0172533,53.4681333 61.5761533,53.2801333 C63.2262867,53.3854667 64.8817089,53.3268 66.5212644,53.1068 C67.3145978,53.0268 68.0550422,52.9334667 68.3194867,52.9334667 C68.5839311,52.9334667 69.3243756,52.6668 69.4169311,51.4001333 C69.4182533,51.3734667 69.4182533,51.3468 69.4169311,51.3201333 C69.4208978,51.2801333 69.4208978,51.2401333 69.4169311,51.1988 C69.4208978,51.1601333 69.4208978,51.1188 69.4169311,51.0801333 L69.4169311,50.9734667 L69.3243756,50.8801333 L69.23182,50.8001333 L69.11282,50.8001333 L69.0334867,50.8001333 C63.4801533,49.4668 64.59082,43.8121333 64.6437089,43.5734667 C64.7203978,43.2041333 64.4876867,42.8428 64.1214311,42.7668 C63.7564978,42.6894667 63.3981756,42.9241333 63.3214867,43.2934667 C63.3214867,43.2934667 62.4620422,47.6001333 65.2122644,50.2801333 C61.1133756,49.6401333 55.2294867,48.4521333 45.3789311,45.9334667 C46.2991978,44.9921333 46.8333756,43.7348 46.8730422,42.4134667 C46.8254422,41.1788 46.2859756,40.0161333 45.3789311,39.1868 C45.1277089,38.9188 44.7098867,38.9068 44.44412,39.1601333 C44.1796756,39.4134667 44.1677756,39.8348 44.4176756,40.1028 C44.4533756,40.1388 44.49172,40.1708 44.5327089,40.1988 C45.1515089,40.7841333 45.5204089,41.5868 45.5640422,42.4401333 C45.3974422,43.7361333 44.6966644,44.9028 43.6335978,45.6534667 C43.5674867,45.6534667 37.0224867,51.8934667 33.2805978,53.6534667 C32.2505867,54.2628 31.3951089,55.1308 30.79482,56.1734667 C30.6493756,56.4788 30.5039311,56.8121333 30.3584867,57.1454667 C29.8957089,58.2534667 29.5254867,59.0388 29.0362644,58.9601333 C28.8524756,58.0401333 28.9542867,57.0868 29.3271533,56.2268 C29.4316089,55.8734667 29.2332756,55.5014667 28.8828867,55.3961333 C28.6871978,55.3374667 28.4756422,55.3721333 28.3090422,55.4921333 C28.3090422,55.4921333 26.3124867,57.0668 25.0034867,57.9321333 C24.8633311,58.0401333 24.7006978,58.1134667 24.5274867,58.1454667 C24.6359089,57.7601333 24.85672,57.4174667 25.1621533,57.1588 L26.7223756,55.5868 C26.9696311,55.3148 26.95112,54.8934667 26.6827089,54.6441333 C26.4936311,54.4694667 26.2199311,54.4201333 25.9819311,54.5201333 C25.0299311,54.9734667 23.9324867,55.4388 23.1655978,55.7468 C23.58342,55.2521333 24.1149533,54.8668 24.7125978,54.6268 C27.3094422,53.5321333 29.6193644,51.8428 31.4559311,49.6934667 C33.0822644,47.5734667 34.1664867,42.8934667 32.3285978,40.7588 C32.0773756,40.4788 31.7203756,39.9868 31.2840422,39.4254667 C28.9569311,36.3201333 24.6729311,30.5201333 20.3360422,31.3468 C16.3825978,32.1934667 12.2770978,31.9734667 8.43604222,30.7068 C6.46857556,29.9881333 4.64523111,28.9174667 3.05459778,27.5468 C3.46845333,27.0241333 3.77785333,26.4268 3.96693111,25.7854667 C4.04362,25.4254667 3.81619778,25.0721333 3.45787556,24.9948 C3.17095333,24.9334667 2.87609778,25.0708 2.73726444,25.3334667 C2.57066444,25.8294667 2.29960889,26.2841333 1.94393111,26.6668 C1.53272,26.3441333 1.28149778,25.8574667 1.25637556,25.3334667 C1.25637556,24.7334667 2.01004222,24.2268 2.41993111,24.0001333 C4.07932,22.5761333 5.63028667,21.0308 7.06093111,19.3734667 C8.38315333,17.9734667 9.87726444,16.3734667 10.2607089,16.0921333 C12.4291533,14.5481333 14.7840311,13.2881333 17.2684867,12.3468 C18.6832644,11.7774667 20.1429978,11.3321333 21.63182,11.0134667 L21.63182,13.3468 C21.6384311,13.7094667 21.9332867,14.0001333 22.2929311,14.0001333 C22.6525756,13.9921333 22.94082,13.6961333 22.94082,13.3334667 L22.94082,10.3068 C23.3110422,9.17213333 23.9853756,7.8388 25.0960422,7.64013333 C27.2644867,7.28013333 27.9784867,9.4788 28.2164867,10.8268 L28.2164867,11.0401333 C28.3116867,11.6881333 28.3460644,12.3441333 28.3222644,13.0001333 C28.3487089,13.4441333 28.3487089,13.8894667 28.3222644,14.3334667 C28.1821089,15.1014667 27.9374978,15.8454667 27.5950422,16.5468 L27.4231533,16.9601333 C26.9722756,17.9708 26.4645422,18.9534667 25.9025978,19.9068 C25.7584756,20.2441333 25.9118533,20.6374667 26.2476978,20.7828 C26.5213978,20.9028 26.8400533,20.8214667 27.0264867,20.5868 C27.6201644,19.5788 28.1543422,18.5361333 28.6263756,17.4668 L28.7982644,17.0801333 C29.2068311,16.2468 29.4924311,15.3574667 29.6444867,14.4401333 C29.6696089,13.9961333 29.6696089,13.5508 29.6444867,13.1068 C29.6709311,12.3654667 29.6312644,11.6254667 29.5254867,10.8934667 L29.5254867,10.6801333 C31.5617089,11.6134667 33.5212422,12.7108 35.3829311,13.9601333 L35.5680422,14.0534667 C42.8799311,16.1334667 47.6002644,13.7854667 52.5982644,11.2934667 C54.90422,10.0694667 57.3053756,9.0388 59.7779311,8.21346667 C68.3194867,5.5468 83.8304756,6.77346667 89.0519311,21.2934667 C90.2168089,24.5054667 90.7575978,28.0668 91.6963756,34.5054667 L91.8550422,35.5468 C92.9657089,42.7068 99.0214867,47.1188 101.59982,49.0001333 L101.917153,49.2401333 C102.341587,49.5468 103.080709,49.9734667 104.100142,50.5734667 C108.97782,53.1868 120.137376,59.5454667 117.18882,66.5601333 M23.7209311,2.14546667 C24.0263644,1.9868 24.3979089,2.04146667 24.6464867,2.28013333 C25.10662,2.71746667 25.3776756,3.32146667 25.4001533,3.96013333 C25.39222,4.02146667 25.39222,4.08413333 25.4001533,4.14546667 C25.4318867,4.8668 25.4001533,5.58946667 25.3075978,6.3068 L24.9373756,6.3068 C23.6151533,6.53213333 22.5309311,7.64013333 21.8301533,9.5868 L20.7327089,9.8388 C20.3095978,4.41346667 21.9094867,2.92013333 23.7209311,2.14546667 M104.852487,49.3201333 C103.900487,48.7854667 103.160042,48.3601333 102.803042,48.0921333 L102.472487,47.8534667 C99.8280422,45.9201333 94.2747089,41.8801333 93.2169311,35.2668 L93.0582644,34.2268 C92.0533756,27.6934667 91.4980422,24.1068 90.29482,20.7588 C84.7943756,5.37346667 68.4384867,4.0668 59.5002644,6.86546667 C56.9589533,7.71213333 54.4916867,8.76946667 52.1222644,10.0268 C47.1771533,12.4934667 42.8667089,14.6268 36.1233756,12.6934667 C33.9152644,11.2228 31.55642,9.99346667 29.0891533,9.0268 C28.7109978,7.81213333 27.78412,6.85213333 26.5901533,6.44013333 C26.6932867,5.69346667 26.7276644,4.9388 26.6959311,4.1868 C26.7501422,3.09346667 26.3177756,2.03213333 25.5191533,1.29346667 C24.89242,0.720133333 23.98802,0.5788 23.2184867,0.933466667 C21.03682,1.86546667 18.89482,3.7068 19.4369311,10.2668 C18.5391422,10.5268 17.6558978,10.8388 16.7924867,11.1988 C14.21812,12.1788 11.77862,13.4881333 9.53348667,15.0921333 C8.35274222,16.1481333 7.22620889,17.2654667 6.16182,18.4401333 C4.78935333,19.9854667 3.33226444,21.4548 1.79848667,22.8388 C0.843842222,23.3001333 0.173475556,24.2001333 0.000264444444,25.2534667 C-0.0156022222,26.2494667 0.453786667,27.1921333 1.25637556,27.7734667 C3.15508667,29.6041333 5.40550889,31.0241333 7.86748667,31.9468 C11.9359644,33.3001333 16.28872,33.5441333 20.4814867,32.6534667 C23.9853756,31.9868 28.1371533,37.5601333 30.1337089,40.2268 C30.5964867,40.8388 30.9534867,41.3334667 31.2311533,41.6534667 C32.4872644,43.0921333 31.7600422,46.9868 30.31882,48.9068 C28.6210867,50.8561333 26.51082,52.3948 24.1440422,53.4134667 C22.4780422,54.0401333 21.15582,55.7721333 21.3541533,56.6668 C21.4202644,57.0761333 21.7759422,57.3708 22.1871533,57.3601333 C22.64332,57.2961333 23.0875867,57.1694667 23.5093756,56.9854667 C23.0214756,57.5614667 22.9685867,58.3921333 23.3771533,59.0268 C23.77382,59.5201333 24.6200422,59.7054667 25.6117089,59.0268 C26.2067089,58.6268 26.9339311,58.0921333 27.5553756,57.6934667 C27.4231533,58.3628 27.5011644,59.0574667 27.7801533,59.6801333 C27.9798089,60.0214667 28.3182978,60.2548 28.7057089,60.3188 C30.2659311,60.5868 30.9270422,58.9854667 31.4559311,57.6521333 C31.5881533,57.3468 31.7071533,57.0388 31.8525978,56.7588 C32.3259533,55.9641333 32.98442,55.2961333 33.76982,54.8121333 C37.22082,53.1721333 42.8534867,48.0534667 44.1492644,46.8121333 C51.5470978,48.8361333 59.0520311,50.4428 66.6270422,51.6268 L66.3361533,51.6268 C64.7997311,51.8481333 63.2474422,51.9428 61.6951533,51.9068 C60.3729311,51.6801333 56.4062644,53.2401333 55.8905978,54.6801333 C55.6909422,55.1721333 55.8760533,55.7374667 56.3269311,56.0134667 C56.6561644,56.2241333 57.0356422,56.3388 57.4243756,56.3468 C56.6971533,56.7588 56.6971533,57.0134667 56.6971533,57.2534667 C56.6865756,57.6054667 56.84392,57.9428 57.1202644,58.1588 C57.68882,58.6134667 58.7730422,58.9321333 65.0535978,57.4534667 C67.7099422,56.7641333 70.4231422,56.3174667 73.15882,56.1201333 C73.9481867,56.0828 74.7349089,55.9934667 75.5123756,55.8534667 C77.2220089,55.6028 78.7187644,54.5614667 79.5583756,53.0401333 C79.6945644,52.6468 79.6945644,52.2201333 79.5583756,51.8268 C81.2640422,51.4788 82.8507089,51.0001333 84.2668089,50.5734667 C85.7040644,50.0548 87.20082,49.7188 88.7213756,49.5734667 C91.6302644,49.5734667 103.002698,56.2401333 109.110042,59.9068 L109.336142,60.0388 C113.645264,62.5868 111.980587,66.2121333 109.467042,70.7054667 C108.984431,71.4961333 108.544131,72.3094667 108.14482,73.1454667 C106.822598,76.2654667 108.277042,82.8121333 109.969487,85.4254667 C110.511598,86.2534667 111.053709,86.6668 111.635487,86.6668 C111.997776,86.6748 112.34552,86.5241333 112.588809,86.2534667 C113.24992,85.5201333 113.076709,84.0134667 112.851931,81.9321333 C112.582198,80.1961333 112.541209,78.4281333 112.732931,76.6801333 C112.841353,75.7921333 113.298842,74.9841333 114.002264,74.4388 C114.888153,73.5601333 116.210376,72.2268 118.392042,67.0534667 C121.803376,58.9734667 109.92982,52.1988 104.852487,49.3201333" id="Fill-1" fill="#000000" mask="url(#mask-2)"></path>
                </g>
                <path d="M13.5,21.75 C12.81,21.75 12.25,21.19 12.25,20.5 C12.25,19.81 12.81,19.25 13.5,19.25 C14.19,19.25 14.75,19.81 14.75,20.5 C14.77125,21.19 14.22875,21.76625 13.53875,21.78625 C13.52625,21.7875 13.5125,21.7875 13.5,21.7875 L13.5,21.75 Z M13.5,18 C12.12,18 11,19.12 11,20.5 C11,21.88 12.12,23 13.5,23 C14.88125,23 16,21.88 16,20.5 C16,19.12 14.88125,18 13.5,18 Z" id="Fill-4" fill="#000000"></path>
                <path d="M26.2655363,11.1927894 C26.0025243,10.9357369 25.5872423,10.9357369 25.3242303,11.1927894 C25.069524,11.4638886 25.069524,11.8909048 25.3242303,12.162004 C25.3242303,12.162004 26.1271089,13.1593117 25.185803,15.8703032 L24.0368561,19.115065 C23.9164243,19.4746576 24.1005327,19.8679621 24.4521381,20 L24.6874646,20 C24.978162,20 25.2384054,19.814585 25.3380731,19.5364626 L26.48702,16.2917008 C27.6913378,12.7660073 26.4178063,11.3473019 26.2655363,11.1927894" id="Fill-6" fill="#000000"></path>
            </g>
        </g>
    </g>
</svg>