<?xml version="1.0" encoding="UTF-8"?>
<svg width="98px" height="25px" viewBox="0 0 98 25" version="1.1" xmlns="http://www.w3.org/2000/svg" xmlns:xlink="http://www.w3.org/1999/xlink">
    <!-- Generator: Sketch 52.6 (67491) - http://www.bohemiancoding.com/sketch -->
    <title>狗 (Gǒu)</title>
    <desc>Created with Sketch.</desc>
    <g id="Page-1" stroke="none" stroke-width="1" fill="none" fill-rule="evenodd">
        <g id="Names" transform="translate(-135.000000, -986.000000)" fill="#000000">
            <g id="Answer-Copy-10" transform="translate(100.000000, 917.000000)">
                <path d="M45.469,78.85 L52.931,78.85 L52.931,87.456 L45.469,87.456 L45.469,78.85 Z M51.605,86.182 L51.605,80.124 L46.795,80.124 L46.795,86.182 L51.605,86.182 Z M47.445,69.984 L48.875,70.14 C48.615,71.232 48.277,72.298 47.861,73.286 L57.793,73.286 C57.793,82.022 57.663,87.404 57.403,89.484 C57.117,92.162 55.713,93.514 53.217,93.514 C52.567,93.514 51.449,93.488 49.889,93.436 L49.551,92.162 C50.903,92.214 52.073,92.24 53.061,92.24 C54.777,92.24 55.791,91.148 56.051,89.016 C56.233,87.404 56.337,82.594 56.389,74.638 L47.263,74.638 C46.353,76.484 45.183,78.148 43.753,79.604 L42.895,78.486 C45.131,76.172 46.639,73.338 47.445,69.984 Z M42.609,70.634 L43.779,71.362 C42.791,72.948 41.803,74.274 40.789,75.314 C41.023,75.782 41.231,76.25 41.439,76.718 C42.167,78.798 42.583,81.762 42.661,85.61 C42.661,89.562 42.063,91.954 40.919,92.786 C40.295,93.202 39.333,93.436 38.059,93.436 C37.539,93.436 37.123,93.41 36.811,93.41 L36.395,92.084 C36.863,92.136 37.305,92.162 37.747,92.162 C38.865,92.162 39.619,92.006 40.035,91.72 C40.867,91.044 41.309,88.964 41.309,85.532 C41.283,84.076 41.205,82.75 41.101,81.58 C39.723,83.66 38.059,85.376 36.109,86.754 L35.303,85.558 C37.695,83.972 39.541,82.048 40.867,79.76 C40.685,78.85 40.477,78.044 40.243,77.368 C40.087,76.978 39.931,76.614 39.775,76.276 C38.735,77.212 37.539,78.07 36.161,78.902 L35.381,77.68 C36.785,76.952 38.033,76.068 39.125,75.028 C38.371,73.78 37.435,72.662 36.291,71.648 L37.409,70.79 C38.449,71.856 39.333,72.948 40.061,74.092 C40.997,73.052 41.855,71.908 42.609,70.634 Z M74.147,69.698 L75.577,69.698 C74.537,71.388 73.705,73.182 73.107,75.106 C72.353,77.394 71.989,79.63 71.989,81.84 C71.989,84.024 72.353,86.286 73.107,88.574 C73.705,90.472 74.537,92.266 75.577,93.982 L74.147,93.982 C73.055,92.318 72.197,90.524 71.573,88.626 C70.819,86.338 70.455,84.076 70.455,81.84 C70.455,79.604 70.819,77.342 71.573,75.08 C72.197,73.156 73.055,71.362 74.147,69.698 Z M87.095,72.272 C89.383,72.272 91.203,72.844 92.581,74.014 C93.855,75.106 94.661,76.666 94.999,78.642 L93.387,78.642 C93.101,77.134 92.451,75.938 91.411,75.08 C90.319,74.17 88.863,73.728 87.095,73.728 C84.911,73.728 83.195,74.508 81.921,76.068 C80.673,77.576 80.049,79.552 80.049,82.022 C80.049,84.44 80.673,86.364 81.921,87.794 C83.247,89.354 85.145,90.134 87.641,90.134 C88.733,90.134 89.773,89.978 90.813,89.666 C91.801,89.354 92.659,88.99 93.335,88.522 L93.335,83.244 L86.991,83.244 L86.991,81.84 L94.921,81.84 L94.921,89.276 C94.063,89.952 92.997,90.524 91.723,90.94 C90.371,91.356 88.967,91.564 87.511,91.564 C84.599,91.564 82.311,90.602 80.699,88.73 C79.191,86.988 78.463,84.752 78.463,82.022 C78.463,79.266 79.191,77.004 80.673,75.21 C82.259,73.234 84.391,72.272 87.095,72.272 Z M100.667,72.584 L101.837,72.584 L104.177,75.054 L106.543,72.584 L107.713,72.584 L104.827,75.886 L103.553,75.886 L100.667,72.584 Z M104.177,77.394 C106.153,77.394 107.739,78.096 108.935,79.552 C110.027,80.852 110.573,82.516 110.573,84.492 C110.573,86.442 110.027,88.08 108.935,89.406 C107.739,90.836 106.153,91.564 104.177,91.564 C102.175,91.564 100.589,90.836 99.419,89.406 C98.327,88.08 97.781,86.442 97.781,84.492 C97.781,82.516 98.327,80.852 99.419,79.552 C100.615,78.096 102.201,77.394 104.177,77.394 Z M104.177,78.746 C102.669,78.746 101.499,79.292 100.615,80.41 C99.783,81.476 99.393,82.828 99.393,84.492 C99.393,86.13 99.783,87.482 100.615,88.522 C101.499,89.64 102.669,90.212 104.177,90.212 C105.659,90.212 106.855,89.64 107.739,88.522 C108.571,87.482 108.987,86.13 108.987,84.492 C108.987,82.828 108.571,81.476 107.739,80.41 C106.855,79.292 105.659,78.746 104.177,78.746 Z M113.329,77.758 L114.889,77.758 L114.889,85.974 C114.889,87.378 115.175,88.418 115.773,89.12 C116.397,89.848 117.359,90.212 118.659,90.212 C119.699,90.212 120.609,89.796 121.389,89.016 C122.169,88.236 122.611,87.196 122.715,85.922 L122.715,77.758 L124.275,77.758 L124.275,91.2 L122.715,91.2 L122.715,88.938 C121.675,90.68 120.167,91.564 118.243,91.564 C114.967,91.564 113.329,89.718 113.329,86.052 L113.329,77.758 Z M127.681,69.698 L129.111,69.698 C130.177,71.362 131.035,73.156 131.685,75.08 C132.413,77.342 132.803,79.604 132.803,81.84 C132.803,84.076 132.413,86.338 131.685,88.626 C131.035,90.524 130.177,92.318 129.111,93.982 L127.681,93.982 C128.721,92.266 129.527,90.472 130.151,88.574 C130.879,86.286 131.269,84.024 131.269,81.84 C131.269,79.63 130.879,77.394 130.151,75.106 C129.527,73.182 128.721,71.388 127.681,69.698 Z" id="狗-(Gǒu)"></path>
            </g>
        </g>
    </g>
</svg>