<?xml version="1.0" encoding="UTF-8"?>
<svg width="89px" height="25px" viewBox="0 0 89 25" version="1.1" xmlns="http://www.w3.org/2000/svg" xmlns:xlink="http://www.w3.org/1999/xlink">
    <!-- Generator: Sketch 52.6 (67491) - http://www.bohemiancoding.com/sketch -->
    <title>牛 (Niu)</title>
    <desc>Created with Sketch.</desc>
    <g id="Page-1" stroke="none" stroke-width="1" fill="none" fill-rule="evenodd">
        <g id="Names" transform="translate(-140.000000, -300.000000)" fill="#000000">
            <g id="Answer-Copy-2" transform="translate(100.000000, 231.000000)">
                <path d="M44.234,76.9 C43.298,78.694 42.258,80.306 41.088,81.762 L40.126,80.618 C42.258,78.044 43.948,74.794 45.196,70.842 L46.522,71.18 C46.054,72.714 45.508,74.17 44.884,75.522 L51.67,75.522 L51.67,69.958 L53.048,69.958 L53.048,75.522 L61.68,75.522 L61.68,76.9 L53.048,76.9 L53.048,83.998 L63.344,83.998 L63.344,85.376 L53.048,85.376 L53.048,93.618 L51.67,93.618 L51.67,85.376 L40.412,85.376 L40.412,83.998 L51.67,83.998 L51.67,76.9 L44.234,76.9 Z M78.866,69.698 L80.296,69.698 C79.256,71.388 78.424,73.182 77.826,75.106 C77.072,77.394 76.708,79.63 76.708,81.84 C76.708,84.024 77.072,86.286 77.826,88.574 C78.424,90.472 79.256,92.266 80.296,93.982 L78.866,93.982 C77.774,92.318 76.916,90.524 76.292,88.626 C75.538,86.338 75.174,84.076 75.174,81.84 C75.174,79.604 75.538,77.342 76.292,75.08 C76.916,73.156 77.774,71.362 78.866,69.698 Z M83.962,72.636 L85.756,72.636 L96.988,88.73 L97.066,88.73 L97.066,72.636 L98.678,72.636 L98.678,91.2 L96.91,91.2 L85.626,74.976 L85.548,74.976 L85.548,91.2 L83.962,91.2 L83.962,72.636 Z M103.774,72.922 C104.138,72.922 104.45,73.052 104.71,73.312 C104.97,73.52 105.1,73.832 105.1,74.222 C105.1,74.586 104.944,74.898 104.684,75.158 C104.424,75.392 104.138,75.522 103.774,75.522 C103.384,75.522 103.072,75.392 102.838,75.158 C102.578,74.898 102.448,74.586 102.448,74.222 C102.448,73.832 102.578,73.52 102.838,73.312 C103.072,73.052 103.384,72.922 103.774,72.922 Z M102.994,77.758 L104.554,77.758 L104.554,91.2 L102.994,91.2 L102.994,77.758 Z M108.61,77.758 L110.17,77.758 L110.17,85.974 C110.17,87.378 110.456,88.418 111.054,89.12 C111.678,89.848 112.64,90.212 113.94,90.212 C114.98,90.212 115.89,89.796 116.67,89.016 C117.45,88.236 117.892,87.196 117.996,85.922 L117.996,77.758 L119.556,77.758 L119.556,91.2 L117.996,91.2 L117.996,88.938 C116.956,90.68 115.448,91.564 113.524,91.564 C110.248,91.564 108.61,89.718 108.61,86.052 L108.61,77.758 Z M122.962,69.698 L124.392,69.698 C125.458,71.362 126.316,73.156 126.966,75.08 C127.694,77.342 128.084,79.604 128.084,81.84 C128.084,84.076 127.694,86.338 126.966,88.626 C126.316,90.524 125.458,92.318 124.392,93.982 L122.962,93.982 C124.002,92.266 124.808,90.472 125.432,88.574 C126.16,86.286 126.55,84.024 126.55,81.84 C126.55,79.63 126.16,77.394 125.432,75.106 C124.808,73.182 124.002,71.388 122.962,69.698 Z" id="牛-(Niu)"></path>
            </g>
        </g>
    </g>
</svg>