<?xml version="1.0" encoding="UTF-8"?>
<svg width="154px" height="80px" viewBox="0 0 154 80" version="1.1" xmlns="http://www.w3.org/2000/svg" xmlns:xlink="http://www.w3.org/1999/xlink">
    <!-- Generator: Sketch 52.6 (67491) - http://www.bohemiancoding.com/sketch -->
    <title>Group 6</title>
    <desc>Created with Sketch.</desc>
    <g id="Page-1" stroke="none" stroke-width="1" fill="none" fill-rule="evenodd">
        <g id="Monkey" transform="translate(-71.000000, -52.000000)" fill="#000000">
            <g id="Group-6" transform="translate(72.000000, 51.000000)">
                <g id="Group-3" transform="translate(0.000000, 0.826835)" stroke="#FFFFFF">
                    <path d="M120.631575,56.8904294 C114.54345,40.5474882 93.6972,26.0945471 92.8509188,25.4910176 C92.1257625,24.9907235 91.1296688,25.1717824 90.6292312,25.8960176 C90.1256062,26.6186647 90.3088875,27.6113118 91.0356375,28.1116059 C91.0356375,28.1116059 92.3887312,29.0486647 94.39845,30.6210176 C94.8431063,33.3369 96.5500125,45.3598412 92.7074813,51.2680765 C92.2325437,52.0050176 92.4429187,52.9881353 93.1824187,53.4630176 C93.1887937,53.4677824 93.1951687,53.4725471 93.2031375,53.4757235 C99.54945,57.5098412 106.133231,61.1627824 112.916231,64.4186647 C113.14095,64.5139588 113.188762,64.6092529 113.2047,64.7521941 C113.603137,66.6580765 110.0172,72.0739588 106.303763,76.2510176 L94.5418875,76.2510176 C95.4853875,74.6564294 97.1795437,73.6510765 99.0346687,73.5827824 C105.409669,73.1063118 107.9772,69.2469 108.071231,69.0880765 C108.356512,68.5957235 108.356512,67.9906059 108.071231,67.4998412 C107.777981,66.9900176 107.226544,66.6866647 106.63845,66.7057235 C106.461544,66.7057235 89.3924813,67.1504294 84.6271687,59.2727824 C80.8037625,52.9198412 80.4531375,48.8380765 80.469075,47.3769 C83.5992,45.1883118 86.3484187,42.5057824 88.6115437,39.4357235 C89.1215438,38.7210176 88.9557937,37.7299588 88.2386062,37.2201353 C87.5214187,36.7119 86.525325,36.8786647 86.0137312,37.5933706 C83.809575,40.5300176 81.1145437,43.0664294 78.0449812,45.0898412 C76.5978562,46.0189588 74.9690438,46.6320176 73.265325,46.8845471 C72.3871687,46.9480765 71.7273562,47.7104294 71.7911062,48.5855471 C71.8006687,48.7094294 71.824575,48.8301353 71.8612312,48.9492529 C72.6899812,52.0145471 74.604075,64.2757235 75.0487313,67.2774882 L68.1972,76.2033706 L57.3118875,76.2033706 C58.5422625,74.7120176 60.3097312,73.7543118 62.2349812,73.5351353 C65.6615437,73.2492529 68.5908562,70.9653706 69.695325,67.7221941 C70.4491687,65.9608412 70.07145,63.9231353 68.7374812,62.5445471 C66.98595,60.9563118 58.4912625,50.8074882 60.3384187,38.7210176 C60.4707,37.8443118 59.865075,37.0263706 58.985325,36.8945471 C58.1039812,36.7627235 57.2832,37.3678412 57.1509187,38.2445471 C56.8257937,40.4204294 56.7732,42.6296647 56.9931375,44.8198412 L48.5622,44.8198412 L44.54595,37.3233706 C44.131575,36.5467235 43.1657625,36.2513118 42.3864187,36.6642529 C41.607075,37.0756059 41.3106375,38.0396647 41.7250125,38.8163118 L45.8847,46.5510176 L36.9437625,76.2033706 L24.1937625,76.2033706 C25.2711375,75.0534882 26.77245,74.3896059 28.35345,74.3610176 L33.9459187,74.0910176 C34.7252625,74.0941941 35.3930437,73.5367235 35.525325,72.7727824 L38.4562312,51.2363118 C38.521575,50.7852529 38.3877,50.3278412 38.0896687,49.9816059 L31.54095,42.2945471 L26.2337625,36.2433706 C25.6616062,35.5763118 24.6543562,35.4984882 23.9849813,36.0686647 C23.3172,36.6388412 23.2391062,37.6410176 23.8096687,38.3080765 L28.35345,43.4698412 L28.35345,55.9216059 L14.96595,76.2033706 L3.1881375,76.2033706 L3.1881375,75.3457235 C3.1881375,73.9480765 7.6347,73.0110176 11.5872,73.1221941 C12.2215125,73.1364882 12.8032312,72.7743706 13.0693875,72.2010176 L22.137825,52.8880765 C22.2717,52.6006059 22.316325,52.2797824 22.265325,51.9669 C21.4971375,46.7066647 21.0827625,41.4003706 21.0206062,36.0845471 C21.0206062,28.7310176 15.2193562,24.8557235 10.4699813,22.0604294 C11.9346375,21.5744294 13.047075,20.3753118 13.4184187,18.8839588 C13.5395437,18.0151941 12.9291375,17.2147235 12.0573562,17.0940176 C12.0446063,17.0924294 12.0302625,17.0908412 12.0175125,17.0892529 C11.1584812,16.9955471 10.3791375,17.6006647 10.2627937,18.4551353 C9.31291875,19.2683118 8.163825,19.8162529 6.93345,20.0433706 C6.3947625,19.6701353 6.0282,19.0983706 5.91345,18.4551353 C5.7381375,17.1527824 6.6943875,15.2786647 8.60529375,13.2457235 C9.744825,11.9243118 10.0109812,10.0676647 9.2922,8.48101765 C11.3624812,8.68748824 14.07345,9.41807647 14.8527938,11.6574882 C15.0727312,12.3039 15.6831375,12.7390765 16.36845,12.7374882 C16.540575,12.7390765 16.7127,12.7120765 16.8768562,12.6580765 C17.7072,12.3785471 18.1550437,11.4859588 17.8825125,10.6569 C16.7780438,7.82825294 14.1977625,5.83660588 11.172825,5.47925294 C13.3467,4.57554706 15.6576375,4.03872353 18.0084187,3.89101765 C20.5424812,3.49078235 23.1371062,3.91960588 25.4034187,5.11395882 C25.0257,5.49354706 24.8647312,6.03513529 24.9731062,6.55925294 C25.172325,7.41372353 26.026575,7.94737059 26.8840125,7.75042941 L26.8872,7.75042941 C28.1143875,7.46454706 30.0747,7.4169 30.616575,8.00454706 C30.8221687,8.25866471 30.8397,9.06866471 30.2022,10.4980765 C29.78145,11.7432529 28.8650437,12.7597235 27.6665437,13.3092529 C26.7995437,13.5729 25.8640125,13.5093706 25.03845,13.1345471 C24.254325,12.7311353 23.2917,13.0376647 22.8852937,13.8174882 C22.482075,14.5989 22.788075,15.5581941 23.5722,15.9616059 C24.52845,16.4317235 25.580325,16.6763118 26.6481375,16.6763118 C27.3462,16.6779 28.041075,16.5651353 28.704075,16.3427824 C29.8212937,15.9107824 30.80145,15.1865471 31.54095,14.2463118 L33.1347,17.0098412 C33.4183875,17.5149 33.9554812,17.8246059 34.5356062,17.8198412 C34.6647,17.8198412 47.9868562,17.6610176 69.249075,16.6763118 C90.95595,15.6757235 104.85345,26.8569 112.8222,36.4180765 C117.091856,41.6116059 120.279356,48.8539588 123.08595,55.2386647 C126.112481,62.1316059 128.727825,68.0874882 132.168731,70.2474882 C134.830294,71.9151353 139.772513,72.4551353 143.948138,72.7727824 C131.660325,75.5680765 126.098138,71.6451353 120.631575,56.8904294 M145.940325,69.7233706 C142.049981,69.4533706 136.186575,69.0404294 133.79595,67.5474882 C131.405325,66.0545471 128.6322,60.0669 125.921231,53.9680765 C123.038137,47.3610176 119.77095,39.9280765 115.212825,34.4010176 C106.875919,24.2680765 92.10345,12.4198412 69.15345,13.4998412 C51.1600125,14.3416059 38.8722,14.5798412 35.49345,14.6274882 L33.45345,11.0380765 C34.2614812,9.44666471 34.1387625,7.54395882 33.1347,6.0669 C32.1242625,5.01866471 30.718575,4.44372353 29.2602937,4.47866471 C28.1143875,2.89042941 25.0543875,0.269841176 17.8187625,0.841605882 C8.5272,1.57219412 5.626575,5.60631176 5.32216875,5.98748824 C4.9827,6.48301765 4.950825,7.12942941 5.244075,7.65513529 L5.371575,7.81395882 C5.8337625,8.40160588 6.965325,10.3074882 6.29595,10.9904294 C3.650325,13.8333706 2.46935625,16.4539588 2.7897,18.7886647 C3.0702,20.5055471 4.1125125,22.0048412 5.626575,22.8704294 L5.7700125,22.9657235 L7.794075,24.1569 C12.2725125,26.7457235 17.8506375,29.9698412 17.8506375,36.0686647 C17.8968562,41.3829 18.2968875,46.6891941 19.04595,51.9510176 L10.6293562,69.9457235 C7.44185625,69.9457235 0.17435625,70.5810176 0.0006375,75.2980765 L0.0006375,77.7916059 C0.0006375,78.6683118 0.71304375,79.3798412 1.5943875,79.3798412 L15.8090437,79.3798412 C16.349325,79.3830176 16.85295,79.1130176 17.1493875,78.6651353 L31.2381375,57.2716059 C31.407075,57.0111353 31.4947312,56.7077824 31.4931375,56.3980765 L31.4931375,47.1704294 L35.1906375,51.4745471 L32.5434187,70.9939588 L28.2737625,71.1845471 C24.4615125,71.2496647 21.1242,73.7479588 20.0006062,77.3786647 C19.7806687,78.2283706 20.2922625,79.0939588 21.1449187,79.3131353 C21.2915437,79.3528412 21.4445437,79.3687235 21.5943563,79.3639588 L38.1215437,79.3639588 C38.8498875,79.3957235 39.5065125,78.9303706 39.7152937,78.2363118 L48.8474812,47.9645471 L57.5668875,47.9645471 C58.9231687,54.3603706 62.0548875,60.2479588 66.60345,64.9586647 C66.7947,65.1333706 66.9381375,65.7845471 66.60345,66.7374882 C65.908575,68.7672529 64.0757625,70.1934882 61.9321687,70.3745471 C55.76595,70.8510176 52.9131375,76.8704294 52.7999812,77.1245471 C52.431825,77.9202529 52.7792625,78.8652529 53.5777312,79.2321353 C53.7897,79.3306059 54.0192,79.3798412 54.2518875,79.3798412 L68.89845,79.3798412 C69.3909187,79.3782529 69.8562937,79.1511353 70.1575125,78.7604294 L77.9652938,68.6116059 C78.2330437,68.2701353 78.3493875,67.8333706 78.2856375,67.4045471 C78.20595,66.8327824 76.389075,54.9686647 75.2893875,49.7116059 C76.019325,49.5114882 76.733325,49.2573706 77.4250125,48.9492529 C78.0609187,53.1771353 79.6052625,57.2191941 81.9496687,60.7974882 C85.9499812,67.4045471 96.1356375,69.1674882 102.158419,69.6280765 C101.085825,70.0362529 99.95745,70.2840176 98.8131375,70.3586647 C94.774575,70.6254882 91.4292937,73.5764294 90.6674812,77.5374882 C90.5112937,78.3999 91.08345,79.2273706 91.9488562,79.3861941 C92.05245,79.4052529 92.1576375,79.4131941 92.2612312,79.4116059 L107.036887,79.4116059 C107.486325,79.4116059 107.915044,79.2210176 108.216262,78.8874882 C109.810012,77.2198412 117.316575,68.6592529 116.358731,64.0851353 C116.129231,62.9289 115.33395,61.9616647 114.239044,61.5121941 C108.04095,58.5596647 102.021356,55.2450176 96.215325,51.5857235 C98.8131375,46.1698412 98.47845,38.3080765 98.0162625,33.5433706 C104.612794,39.1339588 114.047794,48.3774882 117.60345,58.0498412 C122.542481,71.1845471 127.977169,76.8069 137.220919,76.8069 C140.290481,76.7386059 143.337731,76.2796059 146.29095,75.4410176 C150.767794,74.2498412 152.458763,73.6463118 152.281856,71.9310176 C152.108137,70.2157235 150.594075,70.0569 145.940325,69.7233706" id="Fill-1"></path>
                </g>
                <path d="M11.8417219,11.9918118 C12.7214719,11.9918118 13.4354719,12.7033412 13.4354719,13.5800471 C13.4354719,14.4567529 12.7214719,15.1682824 11.8417219,15.1682824 C10.9619719,15.1682824 10.2479719,14.4567529 10.2479719,13.5800471 C10.2479719,12.7033412 10.9619719,11.9918118 11.8417219,11.9918118" id="Fill-4"></path>
            </g>
        </g>
    </g>
</svg>