<?xml version="1.0" encoding="UTF-8"?>
<svg width="93px" height="25px" viewBox="0 0 93 25" version="1.1" xmlns="http://www.w3.org/2000/svg" xmlns:xlink="http://www.w3.org/1999/xlink">
    <!-- Generator: Sketch 52.6 (67491) - http://www.bohemiancoding.com/sketch -->
    <title>鼠 (Shǔ)</title>
    <desc>Created with Sketch.</desc>
    <g id="Page-1" stroke="none" stroke-width="1" fill="none" fill-rule="evenodd">
        <g id="Names" transform="translate(-459.000000, -144.000000)" fill="#000000">
            <g id="Answer-Copy" transform="translate(421.000000, 75.000000)">
                <path d="M50.175,82.334 C51.683,82.698 53.139,83.244 54.517,83.946 L54.049,85.064 C52.645,84.31 51.163,83.738 49.655,83.348 L50.175,82.334 Z M50.149,86.182 C51.657,86.598 53.087,87.222 54.439,88.028 L53.971,89.146 C52.567,88.314 51.137,87.638 49.629,87.17 L50.149,86.182 Z M41.829,82.282 C43.389,82.672 44.897,83.218 46.353,83.946 L45.911,85.064 C44.429,84.284 42.895,83.712 41.309,83.296 L41.829,82.282 Z M41.777,86.13 C43.285,86.546 44.767,87.144 46.171,87.95 L45.677,89.068 C44.273,88.236 42.791,87.586 41.257,87.118 L41.777,86.13 Z M40.217,76.016 L40.217,78.59 L56.545,78.59 L56.545,76.016 L49.811,76.016 L49.811,74.846 L56.545,74.846 L56.545,72.246 L49.707,72.246 L49.707,71.05 L57.897,71.05 L57.897,79.838 L38.865,79.838 L38.865,71.388 C41.933,71.18 44.533,70.764 46.665,70.114 L47.367,71.232 C45.547,71.752 43.181,72.168 40.217,72.48 L40.217,74.846 L47.029,74.846 L47.029,76.016 L40.217,76.016 Z M58.625,93.592 C58.105,93.592 57.637,93.358 57.221,92.89 C56.675,92.266 56.285,91.408 56.051,90.342 C55.687,88.886 55.505,85.844 55.505,81.216 L56.883,81.216 C56.883,86.156 57.091,89.302 57.507,90.628 C57.819,91.616 58.183,92.136 58.573,92.188 C59.067,92.162 59.483,90.784 59.795,88.08 L60.913,88.86 C60.497,92.006 59.743,93.592 58.625,93.592 Z M38.709,93.644 L38.397,92.448 C38.735,92.344 38.917,92.084 38.917,91.72 L38.917,81.216 L40.321,81.216 L40.321,92.058 C41.907,91.746 43.363,91.382 44.689,90.914 L44.923,92.162 C43.103,92.734 41.049,93.228 38.709,93.644 Z M47.133,93.644 L46.847,92.474 C47.211,92.37 47.393,92.136 47.393,91.824 L47.393,81.216 L48.797,81.216 L48.797,92.058 C50.695,91.72 52.437,91.278 54.049,90.706 L54.283,91.954 C52.203,92.63 49.837,93.176 47.133,93.644 Z M76.149,69.698 L77.579,69.698 C76.539,71.388 75.707,73.182 75.109,75.106 C74.355,77.394 73.991,79.63 73.991,81.84 C73.991,84.024 74.355,86.286 75.109,88.574 C75.707,90.472 76.539,92.266 77.579,93.982 L76.149,93.982 C75.057,92.318 74.199,90.524 73.575,88.626 C72.821,86.338 72.457,84.076 72.457,81.84 C72.457,79.604 72.821,77.342 73.575,75.08 C74.199,73.156 75.057,71.362 76.149,69.698 Z M87.303,72.272 C89.331,72.272 90.943,72.766 92.139,73.754 C93.361,74.742 94.063,76.198 94.219,78.122 L92.633,78.122 C92.425,76.666 91.879,75.574 90.995,74.82 C90.111,74.066 88.863,73.702 87.251,73.702 C85.743,73.702 84.573,73.962 83.715,74.482 C82.727,75.054 82.259,75.938 82.259,77.108 C82.259,78.148 82.831,78.954 84.001,79.578 C84.547,79.838 85.743,80.254 87.563,80.774 C89.929,81.45 91.515,82.022 92.347,82.542 C93.881,83.452 94.661,84.752 94.661,86.442 C94.661,88.028 93.985,89.302 92.659,90.238 C91.385,91.122 89.695,91.564 87.589,91.564 C85.457,91.564 83.767,91.07 82.545,90.108 C81.141,88.99 80.361,87.3 80.205,85.064 L81.765,85.064 C81.947,86.806 82.545,88.106 83.585,88.964 C84.521,89.718 85.847,90.108 87.563,90.108 C89.201,90.108 90.527,89.77 91.541,89.146 C92.529,88.496 93.049,87.612 93.049,86.52 C93.049,85.246 92.399,84.258 91.151,83.556 C90.527,83.192 89.175,82.698 87.069,82.126 C84.859,81.502 83.429,81.008 82.805,80.644 C81.375,79.838 80.673,78.668 80.673,77.16 C80.673,75.548 81.323,74.326 82.675,73.468 C83.871,72.662 85.431,72.272 87.303,72.272 Z M97.157,72.272 L98.743,72.272 L98.743,80.202 C99.211,79.292 99.835,78.59 100.615,78.096 C101.369,77.628 102.227,77.394 103.163,77.394 C104.697,77.394 105.893,77.836 106.751,78.746 C107.609,79.656 108.051,80.956 108.051,82.62 L108.051,91.2 L106.491,91.2 L106.491,82.828 C106.491,81.528 106.153,80.514 105.503,79.786 C104.827,79.084 103.917,78.746 102.721,78.746 C101.603,78.746 100.667,79.188 99.887,80.098 C99.107,80.982 98.743,82.1 98.743,83.426 L98.743,91.2 L97.157,91.2 L97.157,72.272 Z M113.277,72.584 L114.421,72.584 L116.787,75.054 L119.153,72.584 L120.323,72.584 L117.437,75.886 L116.163,75.886 L113.277,72.584 Z M111.327,77.758 L112.887,77.758 L112.887,85.974 C112.887,87.378 113.173,88.418 113.771,89.12 C114.395,89.848 115.357,90.212 116.657,90.212 C117.697,90.212 118.607,89.796 119.387,89.016 C120.167,88.236 120.609,87.196 120.713,85.922 L120.713,77.758 L122.273,77.758 L122.273,91.2 L120.713,91.2 L120.713,88.938 C119.673,90.68 118.165,91.564 116.241,91.564 C112.965,91.564 111.327,89.718 111.327,86.052 L111.327,77.758 Z M125.679,69.698 L127.109,69.698 C128.175,71.362 129.033,73.156 129.683,75.08 C130.411,77.342 130.801,79.604 130.801,81.84 C130.801,84.076 130.411,86.338 129.683,88.626 C129.033,90.524 128.175,92.318 127.109,93.982 L125.679,93.982 C126.719,92.266 127.525,90.472 128.149,88.574 C128.877,86.286 129.267,84.024 129.267,81.84 C129.267,79.63 128.877,77.394 128.149,75.106 C127.525,73.182 126.719,71.388 125.679,69.698 Z" id="鼠-(Shǔ)"></path>
            </g>
        </g>
    </g>
</svg>