<?xml version="1.0" encoding="UTF-8"?>
<svg width="105px" height="105px" viewBox="0 0 105 105" version="1.1" xmlns="http://www.w3.org/2000/svg" xmlns:xlink="http://www.w3.org/1999/xlink">
    <!-- Generator: Sketch 52.6 (67491) - http://www.bohemiancoding.com/sketch -->
    <title>Group 6</title>
    <desc>Created with Sketch.</desc>
    <defs>
        <polygon id="path-1" points="0 0.56918367 104.429348 0.56918367 104.429348 104.860215 0 104.860215"></polygon>
    </defs>
    <g id="Page-1" stroke="none" stroke-width="1" fill="none" fill-rule="evenodd">
        <g id="Goat" transform="translate(-95.000000, -40.000000)">
            <g id="Group-6" transform="translate(95.000000, 39.000000)">
                <g id="Group-3" transform="translate(0.000000, 0.570576)">
                    <mask id="mask-2" fill="white">
                        <use xlink:href="#path-1"></use>
                    </mask>
                    <g id="Clip-2"></g>
                    <path d="M101.558397,43.968572 C100.387418,45.7500559 98.8078533,47.2260774 96.969212,48.2644215 C96.9349728,48.182357 96.8893207,48.108271 96.8550815,48.028486 C96.7831793,47.8689161 96.7055707,47.7150452 96.6268207,47.5588946 C96.4864402,47.2796473 96.3323641,47.0095183 96.1645924,46.7473677 C96.0789946,46.6128731 95.994538,46.4806581 95.9032337,46.3507226 C95.7137772,46.0851527 95.5072011,45.8332602 95.2914946,45.5870667 C95.1922011,45.4730882 95.0997554,45.3556903 94.9947554,45.246271 C94.6980163,44.9396688 94.3807337,44.6513032 94.040625,44.3811742 C94.0109511,44.3583785 93.9869837,44.3298839 93.9573098,44.3070882 L93.4231793,43.8990452 C96.1566033,42.580314 99.2244293,42.2554753 102.19981,42.9906366 L101.558397,43.968572 Z M95.983125,56.3170022 C95.983125,58.4529591 95.7959511,60.5615613 95.4261685,62.5835398 L92.6311141,78.2099914 C92.6174185,78.2840774 92.6128533,78.360443 92.6197011,78.4356688 L94.2152446,96.3120559 L89.1626902,96.3120559 L86.4007337,76.3624 C86.3973098,76.3384645 86.3836141,76.320228 86.3790489,76.2974323 C86.3722011,76.2689376 86.3779076,76.240443 86.3687772,76.2130882 L85.8643207,74.6743785 C85.839212,74.5957333 85.8004076,74.5216473 85.7536141,74.4532602 L84.1717663,72.1748301 C82.0021467,69.0518194 80.8539946,65.3782925 80.8539946,61.5531742 L80.8539946,59.5539914 C80.8539946,59.0821204 80.4705163,58.6991527 79.9980163,58.6991527 C79.5255163,58.6991527 79.142038,59.0821204 79.142038,59.5539914 L79.142038,61.5531742 C79.142038,65.7282065 80.3951902,69.7379699 82.764538,73.150486 L84.275625,75.3263355 L84.6716576,76.5310882 L80.9726902,96.3120559 L75.9030163,96.3120559 L77.4837228,81.7797978 L77.4837228,73.2314108 C77.4837228,73.0501849 77.4255163,72.8712387 77.3170924,72.7253462 L75.4910054,70.2417548 C75.4830163,70.230357 75.4716033,70.2246581 75.4624728,70.2144 L73.9536685,68.1673462 C73.6694837,67.7877978 73.1353533,67.7080129 72.7564402,67.9872602 C72.3752446,68.2665075 72.2930707,68.8022065 72.5738315,69.1828946 L73.4857337,70.4195613 C69.8666576,72.0825075 66.0387228,72.9350667 62.0875272,72.9350667 C60.6437772,72.9350667 59.2582337,72.8176688 57.8635598,72.5976903 L60.5068207,68.5708301 C60.7681793,68.1753247 60.6563315,67.6453247 60.2614402,67.3877333 C59.8676902,67.1301419 59.3358424,67.2384215 59.075625,67.6339269 L55.8343207,72.5726151 L52.6717663,74.178572 C52.4058424,74.3142065 52.2289402,74.5774968 52.2061141,74.8761204 L50.5763315,96.3120559 L45.492962,96.3120559 L45.492962,74.9410882 C45.492962,74.8339484 45.4735598,74.7268086 45.4336141,74.6276473 L42.6682337,67.6077118 C42.3075815,66.6924645 42.1249728,65.7316258 42.1249728,64.7457118 L42.1249728,57.844314 C42.1249728,57.372443 41.7414946,56.9894753 41.2689946,56.9894753 C40.7964946,56.9894753 40.4130163,57.372443 40.4130163,57.844314 L40.4130163,64.7457118 C40.4130163,65.9459054 40.636712,67.1198839 41.0749728,68.2334538 L43.7810054,75.1029376 L43.7810054,96.3120559 L38.7592663,96.3120559 L38.7592663,73.2314108 C38.7592663,73.1003355 38.7284511,72.9715398 38.6702446,72.8541419 L37.2892663,70.050271 C34.8571467,65.1115828 32.9739946,59.9403785 31.6923098,54.6768516 L27.4124185,37.3304645 C27.0734511,35.9376473 26.4514402,34.662228 25.5646467,33.5395398 L23.2477989,30.5988946 C21.0930163,27.8645505 17.6051902,26.4443785 14.1481793,26.8717978 L7.94747283,27.6571097 C6.31654891,27.8713892 4.93442935,29.012314 4.42540761,30.5635613 L4.22682065,31.1676473 L2.91888587,27.1829591 C4.28959239,26.404486 5.17067935,24.9455613 5.17067935,23.320228 C5.17067935,22.8426581 5.08508152,22.3707871 4.93557065,21.9217118 L10.4469293,18.1900559 C11.2127446,17.6668946 11.8393207,16.9476903 12.260462,16.1088086 L12.7420924,15.1342925 C13.097038,14.4071097 13.6654076,13.8337978 14.3924185,13.4702065 L19.767962,10.7347226 C19.8501359,10.6936903 19.925462,10.6389806 19.989375,10.5728731 L22.404375,8.12347527 C24.0741033,6.42861505 26.0394293,5.1155828 28.2455707,4.21743226 L30.1755163,3.43326022 L25.4402446,9.44448602 C25.4402446,9.44562581 25.4402446,9.44676559 25.4391033,9.44790538 C25.3649185,9.54250753 25.3192663,9.65420645 25.2907337,9.77274409 C25.2827446,9.80123871 25.2793207,9.82859355 25.2747554,9.85936774 C25.2701902,9.89128172 25.2576359,9.92091613 25.2564946,9.95396989 C25.2553533,10.0405935 25.2690489,10.1249376 25.291875,10.2047226 C25.2930163,10.2092817 25.291875,10.2127011 25.2930163,10.2172602 C25.2930163,10.2184 25.2941576,10.2184 25.2941576,10.2195398 C25.329538,10.3357978 25.3957337,10.4372387 25.4744837,10.5284215 C25.4938859,10.5500774 25.5121467,10.5694538 25.5338315,10.5899699 C25.6205707,10.6720344 25.7198641,10.7427011 25.8385598,10.7825935 L29.6858967,12.0830882 C30.2360054,12.2700129 30.6948098,12.6780559 30.9493207,13.2114753 L39.8629076,31.3010022 C42.4662228,36.5713677 47.6899728,40.1195183 53.4980707,40.5628946 L87.5648641,43.1274108 C88.8979076,43.2277118 90.1944293,43.6938839 91.3836685,44.5133892 C91.3870924,44.514529 91.3882337,44.5179484 91.3916576,44.520228 C91.4430163,44.5521419 91.4955163,44.5806366 91.5697011,44.6421849 L92.9130163,45.6622925 C93.2611141,45.9324215 93.5806793,46.2299054 93.8751359,46.5467656 C94.422962,47.1394538 94.8829076,47.816486 95.2275815,48.5527871 C95.4010598,48.9266366 95.5460054,49.3153032 95.6601359,49.7176473 C95.6624185,49.7222065 95.6669837,49.7256258 95.668125,49.7313247 C95.8769837,50.4072172 95.983125,51.1355398 95.983125,51.8946366 L95.983125,56.3170022 Z M94.2985598,103.150766 L87.8273641,103.150766 L89.0885054,98.0217333 L94.2985598,98.0217333 L94.2985598,103.150766 Z M80.8277446,103.150766 L74.3554076,103.150766 L75.6176902,98.0217333 L80.8277446,98.0217333 L80.8277446,103.150766 Z M50.5169837,103.150766 L44.045788,103.150766 L44.649538,100.696809 L45.3080707,98.0217333 L50.5169837,98.0217333 L50.5169837,103.150766 Z M38.5720924,98.0217333 L43.5447554,98.0217333 L42.9410054,100.47569 L42.2824728,103.150766 L37.3098098,103.150766 L38.5720924,98.0217333 Z M3.43247283,22.9440989 C3.44959239,23.0683355 3.45872283,23.1937118 3.45872283,23.320228 C3.45872283,24.2001419 3.04328804,25.0036903 2.37105978,25.5120344 L1.87230978,23.9972602 L3.43247283,22.9440989 Z M34.9941033,8.2876043 L31.8315489,11.4995183 C31.7961685,11.4619054 31.7516576,11.4379699 31.7162772,11.4026366 C31.5713315,11.2578839 31.4149728,11.130228 31.2494837,11.0105505 C31.1752989,10.9569806 31.1056793,10.8977118 31.0280707,10.8498409 C30.778125,10.6948301 30.515625,10.5603355 30.2348641,10.4645935 L28.966875,10.0360344 L34.9941033,8.2876043 Z M103.78394,41.6285935 L102.705408,41.3550452 C99.0075815,40.4147226 95.1796467,40.942443 91.8607337,42.8048516 C90.5881793,42.0206796 89.1649728,41.5328516 87.6938315,41.4222925 L53.627038,38.8577763 C48.4204076,38.4611312 43.7353533,35.2754323 41.3991033,30.5453247 L32.7537228,13.0017548 L38.5127446,7.15351828 C38.7866576,6.87541075 38.836875,6.44913118 38.638288,6.11517419 C38.4385598,5.7812172 38.037962,5.62506667 37.6647554,5.73220645 L28.4338859,8.40956129 L33.519538,1.95381935 C33.7603533,1.64835699 33.7649185,1.21979785 33.5309511,0.910916129 C33.2969837,0.599754839 32.8826902,0.485776344 32.5243207,0.632808602 L27.5995924,2.63427097 C25.1766033,3.62132473 23.0183967,5.06315269 21.1843207,6.92328172 L18.8663315,9.27465806 L13.6208967,11.9440344 C12.5594837,12.4740344 11.7240489,13.3186151 11.2047554,14.3808946 L10.7276902,15.3474323 C10.4389402,15.9241634 10.0075272,16.4188301 9.48252717,16.7778624 L0.377201087,22.9429591 C0.0599184783,23.1560989 -0.0770380435,23.5550237 0.042798913,23.9174753 L3.40964674,34.1744 C3.52491848,34.5254538 3.85247283,34.7636688 4.22225543,34.7636688 L4.22339674,34.7636688 C4.59317935,34.7636688 4.9207337,34.5265935 5.03600543,34.1755398 L6.0517663,31.0969806 C6.36220109,30.1520989 7.17366848,29.4830452 8.16546196,29.3542495 L14.3627446,28.5677978 C17.2274185,28.2019269 20.1160598,29.3907226 21.9033424,31.6554753 L24.2201902,34.5972602 C24.9540489,35.5273247 25.4687772,36.5827656 25.7506793,37.7373677 L30.0294293,55.0826151 C31.3396467,60.4646796 33.2661685,65.7544215 35.754212,70.8048086 L37.0473098,73.4308731 L37.0473098,97.0574753 L35.3855707,103.801583 C35.3239402,104.056895 35.3821467,104.325884 35.544212,104.533325 C35.7062772,104.739626 35.9550815,104.860443 36.2175815,104.860443 L42.9535598,104.860443 L51.372962,104.860443 C51.845462,104.860443 52.2289402,104.477475 52.2289402,104.005604 L52.2289402,97.1668946 L53.8769837,75.4847656 L56.5601902,74.1215828 L57.2769293,74.2446796 C63.0039946,75.2134968 69.1282337,74.3848731 74.5345924,71.8283355 L75.7717663,73.5117978 L75.7763315,81.6874753 L74.1066033,97.000486 L72.4311685,103.801583 C72.369538,104.056895 72.4277446,104.325884 72.5886685,104.533325 C72.751875,104.739626 73.0006793,104.860443 73.2631793,104.860443 L81.6837228,104.860443 C82.1562228,104.860443 82.5397011,104.477475 82.5397011,104.005604 L82.5397011,97.2455398 L85.4260598,81.8094323 L87.5466033,97.1270022 L85.903125,103.801583 C85.8414946,104.056895 85.8985598,104.325884 86.0617663,104.533325 C86.2226902,104.739626 86.4714946,104.860443 86.7351359,104.860443 L95.154538,104.860443 C95.627038,104.860443 96.0105163,104.477475 96.0105163,104.005604 L96.0105163,97.1668946 C96.0105163,97.1486581 96.0013859,97.1349806 96.0002446,97.1178839 C96.0002446,97.1087656 96.0048098,97.0996473 96.0036685,97.090529 L94.3362228,78.3980559 L97.111875,62.8878624 C97.4987772,60.7667226 97.6950815,58.5566796 97.6950815,56.3170022 L97.6950815,51.8946366 C97.6950815,51.2119054 97.6014946,50.5588086 97.4633967,49.9273677 C99.6855163,48.7488301 101.597201,47.0254753 102.989592,44.9054753 L104.289538,42.9256688 C104.44019,42.6954323 104.472147,42.4047871 104.371712,42.1471957 C104.271277,41.8896043 104.053288,41.6969806 103.78394,41.6285935 Z" id="Fill-1" fill="#000000" mask="url(#mask-2)"></path>
                </g>
                <path d="M17.2863098,18.3129247 C16.8503315,18.3129247 16.4953859,17.9573118 16.4953859,17.5230538 C16.4953859,17.0876559 16.8503315,16.732043 17.2863098,16.732043 C17.7234293,16.732043 18.078375,17.0876559 18.078375,17.5230538 C18.078375,17.9573118 17.7234293,18.3129247 17.2863098,18.3129247 M17.2863098,15.0223656 C15.9064728,15.0223656 14.7834293,16.1450538 14.7834293,17.5230538 C14.7834293,18.9010538 15.9064728,20.0226022 17.2863098,20.0226022 C18.6661467,20.0226022 19.7903315,18.9010538 19.7903315,17.5230538 C19.7903315,16.1450538 18.6661467,15.0223656 17.2863098,15.0223656" id="Fill-4" fill="#000000"></path>
            </g>
        </g>
    </g>
</svg>