<?xml version="1.0" encoding="UTF-8"?>
<svg width="132px" height="88px" viewBox="0 0 132 88" version="1.1" xmlns="http://www.w3.org/2000/svg" xmlns:xlink="http://www.w3.org/1999/xlink">
    <!-- Generator: Sketch 52.6 (67491) - http://www.bohemiancoding.com/sketch -->
    <title>Group 3</title>
    <desc>Created with Sketch.</desc>
    <defs>
        <polygon id="path-1" points="7.60717944e-05 -0.000165873078 131.090816 -0.000165873078 131.090816 87.0352492 7.60717944e-05 87.0352492"></polygon>
    </defs>
    <g id="Page-1" stroke="none" stroke-width="1" fill="none" fill-rule="evenodd">
        <g id="Dog" transform="translate(-82.000000, -48.000000)">
            <g id="Group-3" transform="translate(82.000000, 48.000000)">
                <mask id="mask-2" fill="white">
                    <use xlink:href="#path-1"></use>
                </mask>
                <g id="Clip-2"></g>
                <path d="M6.27040408,57.6161723 C15.5238735,53.5546338 16.6957102,50.9687877 19.5512204,44.7681723 C21.1985265,41.0965415 23.0424857,37.5183262 25.0736694,34.0457108 C28.6646082,27.4091569 35.6067306,23.3056492 43.122649,23.3774031 C43.4055061,23.3774031 71.6508122,23.0389415 77.4965265,22.8629415 L77.9006082,22.8629415 L78.2373429,22.6327877 C83.8675469,18.5712492 88.3259143,15.3761723 91.9222408,12.7497108 L92.2185673,12.5330954 C92.3667306,13.02048 94.9124449,20.8863262 99.4785673,23.05248 C100.238241,23.42208 101.071996,23.61568 101.916527,23.6210954 C102.665424,23.61568 103.407588,23.4640492 104.098567,23.1743262 C107.856527,21.64448 108.907139,12.5330954 108.301016,4.72140308 L105.607139,4.93801846 C106.294078,13.7650954 104.596935,20.0469415 103.074894,20.6697108 C102.295016,21.0379569 101.39122,21.0379569 100.609996,20.6697108 C97.6736694,19.3158646 95.3973429,13.7786338 94.7642816,11.7614031 L92.2724449,12.5466338 C103.923465,4.04448 106.092037,2.50109538 110.469588,2.96140308 C115.857343,3.53001846 117.204282,7.44263385 117.204282,7.60509538 L117.4602,8.45801846 L125.232037,9.29740308 C125.194322,10.9166031 125.975547,12.4464492 127.306322,13.3589415 C126.627465,14.7046646 125.791016,15.9637415 124.814486,17.1090954 L114.133261,17.1090954 L113.742649,17.4746338 C112.39571,18.7201723 100.879384,29.7810954 99.3034653,33.3010954 C98.1720367,35.8463262 96.825098,39.1632492 96.2189755,40.7066338 C96.0250163,39.9119262 95.7744857,39.1348185 95.4646898,38.3780185 L92.9997918,39.4746338 C94.4868122,43.3858954 94.5622408,47.6978954 93.215302,51.6592492 C90.817751,58.2254031 87.9083633,77.6530954 91.7740776,82.0937108 L92.2859143,82.6907569 L93.0536694,82.54048 C94.5245265,82.3103262 95.988649,82.9886031 96.7712204,84.2598646 L89.8075469,84.2598646 C88.9993837,83.1090954 85.7667306,77.1927877 79.7863224,50.1158646 L77.0924449,50.7115569 L77.8063224,53.6629415 C76.4095469,53.7888492 75.0060367,53.8389415 73.6038735,53.8118646 C58.1006082,53.4463262 49.3589755,50.9552492 46.3687714,49.9534031 L47.7157102,46.5552492 L45.2238735,45.5398646 C45.2238735,45.5398646 40.6846898,56.8715569 38.8259143,61.4475569 C37.9773429,63.53248 34.2463224,67.9730954 30.9463224,71.8992492 C25.8414245,77.96448 23.915302,80.4014031 23.915302,81.9312492 L23.915302,83.4475569 L25.3969347,83.2986338 C26.3653837,83.1050338 27.3715469,83.3257108 28.1716286,83.9078646 C28.3103633,84.0310646 28.4329347,84.1718646 28.535302,84.3275569 L21.5581592,84.3275569 L21.5581592,72.8469415 L28.0234653,62.9232492 L25.0736694,45.8106338 L22.3797918,46.2709415 L23.7267306,53.7306338 C19.5512204,62.2734031 6.91693469,63.4647877 2.75489388,63.6272492 C2.87611837,61.7860185 3.60346531,58.5774031 6.27040408,57.6161723 Z M128.262649,10.3398646 C128.110445,10.0745108 128.017506,9.77937231 127.993261,9.47340308 L128.329996,9.47340308 C128.328649,9.76312615 128.305751,10.0528492 128.262649,10.3398646 Z M77.3214245,81.6334031 L77.8063224,82.3915569 L78.695302,82.2426338 C79.2004041,82.1289108 79.729751,82.2385723 80.1499959,82.54048 C80.7130163,83.0048492 81.1413429,83.6127262 81.3891796,84.30048 L74.4389755,84.30048 C73.7655061,82.7570954 72.405098,79.0881723 73.1863224,76.3940185 C74.2099959,72.86048 74.735302,60.6352492 74.8834653,56.5601723 C76.0957102,56.5601723 77.2810163,56.4789415 78.4259143,56.3706338 C78.9781592,58.7398646 79.5842816,61.24448 80.2038735,63.7490954 C78.5471388,67.5534031 75.7589755,79.1558646 77.3214245,81.6334031 Z M18.4871388,85.3294031 C18.019751,83.4367262 16.8088531,81.8161723 15.1332612,80.8346338 C16.2242816,79.4361108 17.4769347,78.1729723 18.8642816,77.0709415 L18.8642816,86.8727877 L18.4871388,85.3294031 Z M9.38183265,84.30048 L11.5504041,72.8469415 L19.8610163,61.7860185 C21.6039551,60.7056492 23.1488939,59.3328492 24.4271388,57.72448 L25.2218327,62.3410954 L18.8912204,72.0481723 L18.8912204,73.6321723 C16.7361184,75.2297108 12.035302,79.0475569 12.035302,81.7552492 L12.035302,83.0292185 L13.3014245,83.0955569 C14.059751,83.1849108 14.7332204,83.6262646 15.1197918,84.2869415 L9.38183265,84.30048 Z M0.0744857143,66.3214031 L1.32713878,66.3214031 L1.79856735,66.3214031 C6.15726122,66.29568 10.4836286,65.5835569 14.6214245,64.2094031 L9.01815918,71.7097108 L6.12224082,87.0081723 L31.7140776,87.0081723 L31.7140776,85.6543262 C31.6723224,84.2273723 31.0729347,82.87488 30.0438735,81.8906338 C29.3084449,81.2326646 28.4019551,80.8007877 27.4308122,80.6450954 C28.6699959,78.8580185 31.1214245,75.9337108 33.0610163,73.6457108 C36.5495878,69.3675569 40.3210163,64.9540185 41.317751,62.4629415 C42.3144857,59.9718646 44.0116286,55.9374031 45.3585673,52.4715569 C48.402649,53.5410954 56.915302,55.9780185 72.2030571,56.5330954 C72.0144857,61.94848 71.4622408,72.7792492 70.6136694,75.6629415 C69.2667306,80.1847877 72.2704041,86.06048 72.3916286,86.3041723 L72.7687714,87.0352492 L84.7565265,87.0352492 L84.5140776,85.4783262 C84.2244857,83.4990031 83.2398735,81.6889108 81.7393837,80.37568 C81.0901592,79.9031877 80.3277918,79.6175262 79.5304041,79.54848 C79.7337918,75.7915569 80.3695469,72.0698338 81.4295878,68.46048 C83.9618327,77.9374031 86.8173429,86.3177108 88.837751,86.9810954 L100.9602,86.9810954 L100.327139,85.18048 C99.6132612,83.1497108 97.3504041,79.6297108 93.4846898,79.7650954 C91.3969347,75.5410954 93.2961184,59.3626338 95.7744857,52.5663262 C96.3913837,50.8686031 96.7631388,49.0910031 96.8789755,47.2863262 C97.3504041,46.0678646 98.3606082,42.7509415 98.4548939,42.4395569 C98.4548939,42.4395569 100.313669,37.6875569 101.795302,34.31648 C102.805506,32.0690954 110.240608,24.5010954 115.26469,19.70848 L126.121016,19.70848 L126.525098,19.2481723 C132.451629,12.3841723 130.983465,8.16017231 130.794894,7.69986462 L130.485098,6.95524923 L119.521016,5.76386462 C117.826567,2.45641846 114.515792,0.298387692 110.819792,0.0912492308 C105.432037,-0.477366154 102.738159,1.44509538 90.3867306,10.4481723 C86.8173429,13.0475569 82.4667306,16.2832492 76.957751,20.1687877 C70.3442816,20.3447877 43.2842816,20.6561723 43.1495878,20.6697108 C34.6477102,20.5600492 26.7815878,25.1807262 22.7030571,32.6783262 C20.6274245,36.2240492 18.7430571,39.8807877 17.0593837,43.6309415 C14.2846898,49.6420185 13.4495878,51.4561723 5.21979184,55.0980185 C-0.316126531,57.1017108 -0.00633061224,64.7374031 0.00713877551,65.0623262 L0.0744857143,66.3214031 Z" id="Fill-1" stroke="#FFFFFF" stroke-width="0.75" fill="#000000" stroke-linecap="round" stroke-linejoin="round" mask="url(#mask-2)"></path>
            </g>
        </g>
    </g>
</svg>