<?xml version="1.0" encoding="UTF-8"?>
<svg width="121px" height="123px" viewBox="0 0 121 123" version="1.1" xmlns="http://www.w3.org/2000/svg" xmlns:xlink="http://www.w3.org/1999/xlink">
    <!-- Generator: Sketch 52.6 (67491) - http://www.bohemiancoding.com/sketch -->
    <title>Group 12</title>
    <desc>Created with Sketch.</desc>
    <defs>
        <polygon id="path-1" points="0.128828571 0.0146341463 26.6145429 0.0146341463 26.6145429 50.4924293 0.128828571 50.4924293"></polygon>
    </defs>
    <g id="Page-1" stroke="none" stroke-width="1" fill="none" fill-rule="evenodd">
        <g id="Dragon" transform="translate(-90.000000, -35.000000)">
            <g id="Group-12" transform="translate(91.000000, 35.000000)">
                <path d="M105.413456,59.3481081 C100.919581,61.0205405 98.2219724,66.1664865 96.4257066,71.827027 C96.1689137,65.9091892 94.4997604,58.9621622 91.0330572,53.5589189 C87.4379576,48.027027 82.5588939,44.6821622 76.5242625,43.3956757 C76.1390732,43.267027 75.8822804,43.5243243 75.7526,43.9102703 C75.6254876,44.2962162 75.8822804,44.5535135 76.2674696,44.6821622 C82.0453083,45.84 86.6662952,49.0562162 90.0058859,54.2021622 C95.5269317,62.8216216 95.7837245,73.8854054 94.6281568,78.9027027 C94.6281568,79.1587135 94.4997604,79.4172973 94.4997604,79.6745946 C91.6750393,93.1827027 85.5120114,100.001081 76.0106768,100.258378 C74.3415234,94.7264865 76.6526589,91.252973 79.2205872,87.1362162 C82.3021011,82.3749297 85.7688042,77.1016216 82.5588939,67.7102703 C82.4304975,67.3243243 82.0453083,67.1956757 81.7885154,67.3243243 C81.4033262,67.452973 81.2749298,67.8389189 81.4033262,68.0962162 C84.3564437,76.8443243 81.1465334,81.7316865 78.1934159,86.492973 C75.6254876,90.4810811 73.1846718,94.3405405 74.5983163,100.12973 C66.8945315,99.3578378 57.5215933,106.433514 52.8993224,109.778378 C52.770926,109.907027 52.6425296,109.907027 52.5141331,110.034389 C53.412908,106.948108 57.0080076,103.088649 60.0895215,99.6151351 C63.2994319,96.1416216 66.2525494,92.7967568 66.7648511,90.3524324 C66.8945315,89.9664865 66.6377386,89.7091892 66.2525494,89.5805405 C65.8673601,89.5805405 65.6105673,89.7091892 65.4808869,90.0938486 C65.0969817,92.2821622 62.1438642,95.3697297 59.1907466,98.7145946 C55.3388542,102.958714 51.3585654,107.205405 50.9733762,111.064865 C44.4251591,112.351351 39.417699,113.893849 34.0250496,119.683038 C34.6670317,112.222703 38.7757169,102.574054 48.7906371,96.1416216 L49.3042228,95.7556757 C56.494422,91.1243243 73.3143521,80.1891892 75.110618,66.1664865 C75.8822804,60.12 73.6995414,54.2021622 68.4352884,48.5416216 C68.4352884,48.5416216 68.4352884,48.412973 68.306892,48.412973 C68.306892,48.412973 68.1784956,48.2843243 68.0488152,48.2843243 C66.3809458,46.6118919 67.2797207,43.7816216 67.9217028,41.5945946 C68.4352884,40.0508108 68.8204777,38.892973 68.306892,38.1210811 C67.7933064,37.2205405 66.5093422,37.3491892 64.7117924,37.6064865 C62.7858462,37.8637838 60.4747108,38.1210811 59.1907466,37.0918919 C58.677161,36.5772973 58.4203682,35.8054054 58.4203682,34.7762162 C58.4203682,34.3902703 58.1635753,34.132973 57.7783861,34.132973 C57.3931969,34.132973 57.136404,34.3902703 57.136404,34.7762162 C57.136404,36.1913514 57.5215933,37.3491892 58.4203682,38.1210811 C60.0895215,39.5362162 62.7858462,39.2789189 64.9685853,39.0216216 C65.8673601,38.892973 67.0229279,38.7643243 67.1513243,38.892973 C67.2797207,39.1502703 66.8945315,40.4367568 66.6377386,41.3372973 C66.122869,43.1383784 65.3537745,45.3254054 65.8673601,47.2551351 C63.6846211,46.3545946 61.2450893,46.7405405 58.9339538,48.1556757 C56.2376291,49.9567568 54.8252686,53.0443243 55.4672507,55.36 C56.1092327,57.4183784 57.7783861,59.0908108 59.8327287,59.6054054 C61.6289945,59.9913514 63.2994319,59.4767568 64.583396,58.0616216 C65.8673601,56.6464865 66.3809458,54.9740541 65.7389637,53.4302703 C65.2253781,52.0151351 64.0698104,51.1145946 62.7858462,50.9859459 C61.7586749,50.8572973 60.7315036,51.5005405 60.0895215,52.6583784 C59.9611251,52.9156757 60.0895215,53.4302703 60.3463144,53.5589189 C60.6031072,53.6875676 61.1166928,53.5589189 61.2450893,53.3016216 C61.5018821,52.787027 61.8870713,52.2724324 62.6574498,52.4010811 C63.4278283,52.4010811 64.1969228,53.172973 64.4549996,53.9448649 C64.7117924,54.5881081 64.9685853,55.8745946 63.5549407,57.2897297 C62.2709766,58.5762162 60.8599,58.5762162 59.9611251,58.4475676 C58.4203682,58.0616216 57.0080076,56.6464865 56.494422,55.1027027 C55.9808363,53.3016216 57.2648004,50.8572973 59.4475395,49.4421622 C62.0154677,47.7697297 64.8389049,47.8983784 67.0229279,49.6994595 C70.3612346,53.8162162 71.1316131,58.5762162 69.0772705,63.0789189 C66.3809458,68.8681081 59.7043323,72.8562162 52.770926,72.8562162 C46.9930874,72.8562162 41.600438,75.1718919 37.6201492,79.2886486 C34.2818424,82.8908108 32.2274998,87.3935135 32.2274998,91.5102703 C30.42995,91.252973 28.889193,90.0938486 28.889193,88.8073622 C28.889193,88.4227027 28.6324002,88.1641189 28.247211,88.1641189 C26.5780576,88.1641189 26.3212648,94.3405405 26.1928684,96.6562162 C23.3681473,95.3697297 22.2125795,92.5394595 20.800219,89.0659459 C19.3878584,85.4637838 17.5903087,81.0884432 13.353227,77.1016216 C14.3803983,76.3297297 15.9211553,76.0724324 17.5903087,76.3297297 C19.259462,76.587027 20.6718226,77.3589189 21.1854082,78.3881081 C21.3138046,78.6454054 21.5705975,78.7740541 21.6989939,78.7740541 C28.889193,78.7740541 36.8497707,74.4 42.7560057,67.3243243 C46.9930874,62.1783784 49.5610156,56.2605405 50.2029977,50.4713514 L50.2029977,50.3427027 C50.4597905,47.8983784 50.3313941,45.4540541 49.9462049,43.1383784 C49.9462049,43.0097297 49.8178085,42.7524324 49.689412,42.7524324 C49.5610156,42.6237838 49.3042228,42.6237838 49.1758264,42.7524324 C36.8497707,46.6118919 28.7607966,54.5881081 22.8545616,60.3772973 C16.9483266,66.1664865 13.9952091,68.7394595 11.0420916,66.0378378 C10.7852987,65.7805405 10.4001095,65.7805405 10.1433167,66.0378378 C8.73095612,67.1956757 7.70378481,67.7102703 7.06180275,67.5816216 C6.29142426,67.452973 5.77783861,66.2951351 4.87906371,64.7513514 C4.10868523,63.2075676 3.08151393,61.1491892 1.28396414,59.0908108 C1.41236055,56.5178378 3.46670317,54.5881081 6.03463144,54.5881081 C7.19019916,54.5881081 8.34576688,54.9740541 9.24454178,55.7459459 C9.5013346,56.0032432 9.75812743,56.0032432 10.0149203,55.7459459 L21.4422011,47.7697297 C21.5705975,47.6410811 21.6989939,47.5124324 21.6989939,47.2551351 C21.6989939,47.1264865 21.6989939,46.8691892 21.5705975,46.7405405 C20.5434262,45.5827027 19.9014441,44.1675676 20.0298405,42.4951351 C20.0298405,40.9513514 20.6718226,39.4075676 21.8273903,38.3783784 C24.2669222,36.0627027 27.7336253,36.0627027 29.9163644,38.3783784 C30.0447608,38.507027 30.1731572,38.6356757 30.42995,38.6356757 C34.5386352,38.6356757 36.7213743,29.8875676 36.7213743,21.0108108 C39.0325097,21.3967568 40.8300595,24.227027 40.8300595,27.7005405 C40.8300595,28.0864865 41.0868523,28.3437838 41.4720416,28.3437838 C42.4992129,28.3437838 44.2967627,26.2854054 45.0671412,25.3848649 C49.04743,20.6248649 52.770926,12.6486486 51.6153582,4.41513514 C52.2573403,4.67243243 52.8993224,5.31567568 53.412908,6.08756757 C55.8524399,9.56108108 57.136404,17.1513514 54.1832865,25.5135135 C54.0548901,25.8994595 54.1832865,26.2854054 54.5684758,26.4140541 C54.953665,26.5427027 55.3388542,26.4140541 55.4672507,26.0281081 C55.7240435,25.1275676 56.1092327,24.227027 56.2376291,23.3264865 L56.3660255,23.3264865 C65.7389637,15.6075676 70.7464239,16.8940541 77.1662445,18.4378378 C81.660119,19.5956757 86.6662952,20.8821622 94.1145711,19.5956757 C91.28985,28.2151351 82.1724207,32.3318919 76.7810553,32.8464865 C76.3945821,32.8464865 76.1390732,33.2324324 76.1390732,33.6183784 C76.1390732,34.0043243 76.3945821,34.2616216 76.7810553,34.2616216 L76.9094517,34.2616216 C78.5786051,34.132973 80.6329477,33.4897297 82.8144028,32.5891892 C82.9440832,32.7178378 83.0724796,32.8464865 83.200876,32.8464865 C88.8503182,33.4897297 91.1601697,37.0918919 93.7280979,41.2086486 C96.6824994,45.84 100.020806,50.9859459 108.623366,53.172973 C109.650537,53.4302703 118.253097,55.7459459 117.739511,62.307027 C112.98756,58.9621622 108.880159,58.0616216 105.413456,59.3481081 M108.880159,51.7578378 C100.789901,49.6994595 97.7096707,44.9394595 94.7565532,40.4367568 C92.1886249,36.5772973 89.8762055,32.8464865 84.6132365,31.6886486 C89.2342235,29.2443243 93.8577783,25.1275676 95.5269317,18.9524324 C95.5269317,18.6951351 95.5269317,18.4378378 95.3985353,18.3091892 C95.2701389,18.1805405 95.0120621,18.0518919 94.7565532,18.1805405 C87.0527684,19.7243243 81.9169118,18.4378378 77.4230374,17.28 C71.2587256,15.7362162 65.8673601,14.3210811 56.7512148,21.3967568 C58.0351789,14.4497297 56.7512148,8.53189189 54.5684758,5.44432432 C53.5413044,3.90054054 52.1289439,3 50.8449798,3 C50.5881869,3 50.4597905,3.12864865 50.3313941,3.2572973 C50.2029977,3.38594595 50.2029977,3.64324324 50.2029977,3.77189189 C52.2573403,14.8356757 44.6819519,24.7416216 42.1140236,26.6713514 C41.7288344,22.6832432 39.1609061,19.5956757 36.0793922,19.5956757 C35.694203,19.5956757 35.4374101,19.852973 35.4374101,20.2389189 C35.4374101,30.1448649 32.9978783,36.8345946 30.6867428,37.3491892 C27.9904182,34.7762162 23.7533365,34.7762162 20.9286154,37.4778378 C19.5162549,38.7643243 18.7458764,40.5654054 18.7458764,42.4951351 C18.7458764,44.1675676 19.259462,45.7113514 20.1582369,47.1264865 L9.75812743,54.4594595 C8.73095612,53.6875676 7.44699199,53.3016216 6.16302785,53.3016216 C2.8247211,53.3016216 0,56.0032432 0,59.4767568 C0,59.6054054 0,59.7340541 0.128396414,59.8627027 C2.05434262,61.6637838 3.08151393,63.5935135 3.85189241,65.2659459 C4.87906371,67.067027 5.52104578,68.4821622 6.80500992,68.7394595 C7.83218123,68.9967568 8.98774895,68.4821622 10.5285059,67.3243243 C14.3803983,70.4118919 18.3606871,66.5524324 23.7533365,61.2778378 C29.5311751,55.7459459 37.2349599,48.1556757 49.1758264,43.652973 C49.4326192,45.4540541 49.5610156,47.3837838 49.4326192,49.3135135 C42.6276093,49.5708108 39.5460954,54.3308108 36.9781671,58.4475676 C34.4102388,62.4356757 31.970707,66.2951351 26.5780576,66.2951351 C26.1928684,66.2951351 25.9360755,66.5524324 25.9360755,66.9383784 C25.9360755,67.3243243 26.1928684,67.5816216 26.5780576,67.5816216 C32.612689,67.5816216 35.4374101,63.3362162 38.0053384,59.2194595 C40.7016631,54.9740541 43.2695914,50.9859459 49.3042228,50.6 C48.6622407,56.0032432 46.2227089,61.4064865 42.2424201,66.1664865 C36.7213743,72.8562162 29.1459859,77.1016216 22.4693724,77.2302703 C21.6989939,76.0724324 20.0298405,75.1718919 18.1038943,74.9145946 C15.7927589,74.5286486 13.4816234,75.1718919 12.1976593,76.4583784 C12.1976593,76.4583784 12.0692629,76.587027 12.0692629,76.8443243 C12.0692629,76.972973 12.1976593,77.2302703 12.3260557,77.3589189 C16.6915338,81.347027 18.4890836,85.5911459 19.9014441,89.3232432 C21.4422011,93.3100649 22.8545616,96.6562162 26.9632468,98.0713514 L27.2200397,98.0713514 C27.3484361,98.0713514 27.4768325,98.0713514 27.6052289,97.9427027 C27.7336253,97.8127676 27.8620217,97.6854054 27.8620217,97.4281081 C27.8620217,94.3405405 28.247211,91.7675676 28.5040038,90.3524324 C29.4027787,91.6389189 31.2003285,92.6668216 33.2546711,92.6668216 C33.3830675,92.6668216 33.6398603,92.5394595 33.7682568,92.4108108 C33.8966532,92.1535135 33.8966532,92.0235784 33.8966532,91.8962162 C33.7682568,87.9081081 35.694203,83.4054054 38.9041133,79.9318919 C42.6276093,76.0724324 47.6350694,73.8854054 53.1561152,73.8854054 C60.4747108,73.8854054 67.6649099,69.5113514 70.6167435,63.3362162 C71.9007076,60.7632432 72.1587844,58.0616216 71.7735952,55.4886486 C73.571145,58.9621622 74.3415234,62.5643243 73.8266538,66.1664865 C72.1587844,79.5459459 55.5956471,90.2237838 48.6622407,94.7264865 L48.1486551,95.1124324 C36.8497707,102.31547 32.7410855,113.380541 32.612689,121.485405 L32.612689,121.612768 L32.612689,121.742703 L32.612689,121.871351 C32.612689,121.871351 32.612689,122 32.7410855,122 L32.8694819,122 L32.9978783,122 L33.2546711,122 L33.5114639,122 L33.6398603,121.871351 C39.417699,115.052973 44.5535555,113.637838 51.6153582,112.222703 C51.7437547,112.222703 51.7437547,112.222703 51.8721511,112.094054 C52.3857367,111.708108 52.8993224,111.320876 53.5413044,110.807568 C58.1635753,107.334054 67.9217028,100.12973 75.2402983,101.544865 L75.3686948,101.544865 C85.8972007,101.544865 92.7022106,94.3405405 95.5269317,80.0605405 C95.5269317,79.8019568 95.6540441,79.5459459 95.6540441,79.2886486 C97.3244815,71.827027 99.8924097,62.9502703 105.670248,60.6345946 C108.880159,59.3481081 112.98756,60.3772973 117.739511,63.8508108 C117.867908,63.9794595 118.123416,63.9794595 118.381493,63.9794595 C118.638286,63.8508108 118.765399,63.7221622 118.765399,63.4648649 C120.691345,54.9740541 110.164123,52.0151351 108.880159,51.7578378" id="Fill-1" stroke="#000000" stroke-width="0.25" fill="#000000"></path>
                <g id="Group-5" transform="translate(9.000000, 0.000000)">
                    <mask id="mask-2" fill="white">
                        <use xlink:href="#path-1"></use>
                    </mask>
                    <g id="Clip-4"></g>
                    <path d="M0.128828571,49.8582829 C0.128828571,50.2387707 0.385971429,50.4924293 0.771685714,50.4924293 C1.1574,50.4924293 1.41454286,50.2387707 1.41454286,49.8582829 C1.41454286,37.1753561 6.68597143,34.0046244 12.3431143,30.5802341 C18.7716857,26.6485268 26.1002571,22.2095024 25.7145429,3.31194146 C26.2288286,3.05828293 26.6145429,2.42413659 26.6145429,1.78999024 C26.6145429,0.775356098 25.8431143,0.0143804878 24.8145429,0.0143804878 C23.7859714,0.0143804878 23.0145429,0.775356098 23.0145429,1.78999024 C23.0145429,2.67779512 23.6574,3.31194146 24.4288286,3.5656 C24.6859714,21.5753561 18.0002571,25.6338927 11.5716857,29.5656 C6.04311429,32.9899902 0.128828571,36.5412098 0.128828571,49.8582829" id="Fill-3" fill="#000000" mask="url(#mask-2)"></path>
                </g>
                <path d="M8.20236963,51 L8.46165821,51 C8.85059108,50.8718861 8.98023537,50.4875445 8.85059108,50.1032028 C3.14624233,37.6761566 8.33201392,32.5516014 13.3881412,27.683274 C16.2403156,24.8647687 19.09249,22.1743772 19.2221343,18.3309609 C19.7407114,18.0747331 20,17.4341637 20,16.7935943 C20,15.7686833 19.2221343,15 18.1849799,15 C17.1478256,15 16.3699599,15.7686833 16.3699599,16.7935943 C16.3699599,17.6903915 17.0181813,18.3309609 17.7960471,18.5871886 C17.5367585,21.7900356 15.2031613,24.0960854 12.4806312,26.658363 C7.55414818,31.5266904 1.46086656,37.4199288 7.55414818,50.6156584 C7.68379247,50.8718861 7.94308105,51 8.20236963,51" id="Fill-6" fill="#000000"></path>
                <path d="M82.5515441,27.0225992 C82.9508346,26.9004241 83.0821627,26.5338987 82.9508346,26.2895485 C82.8168534,25.9230232 82.4188894,25.8008481 82.1535802,25.9230232 C79.235178,26.778249 76.9813757,26.2895485 74.5922656,25.678673 C71.4098807,24.9456224 68.0935147,24.2125717 63.316621,26.9004241 C63.0526383,27.0225992 62.9186571,27.5112996 63.0526383,27.7556498 C63.1839664,28 63.4506022,28 63.5819303,28 C63.7159115,28 63.8472396,28 63.9798942,27.8778249 C68.358824,25.5564979 71.1432449,26.1673734 74.3282828,26.778249 C76.7160664,27.3891245 79.235178,27.8778249 82.5515441,27.0225992" id="Fill-8" fill="#000000"></path>
                <path d="M26,44 C25.4444444,44 25.1111111,43.5555556 25.1111111,43.1111111 C25.1111111,42.6666667 25.5555556,42.2222222 26,42.2222222 C26.5555556,42.2222222 26.8888889,42.6666667 26.8888889,43.1111111 C26.8888889,43.5555556 26.5555556,44 26,44 M26,41 C24.8888889,41 24,41.8888889 24,43 C24,44.1111111 24.8888889,45 26,45 C27.1111111,45 28,44.1111111 28,43 C28,41.8888889 27.1111111,41 26,41" id="Fill-10" fill="#000000"></path>
            </g>
        </g>
    </g>
</svg>