<?xml version="1.0" encoding="UTF-8"?>
<svg width="82px" height="25px" viewBox="0 0 82 25" version="1.1" xmlns="http://www.w3.org/2000/svg" xmlns:xlink="http://www.w3.org/1999/xlink">
    <!-- Generator: Sketch 52.6 (67491) - http://www.bohemiancoding.com/sketch -->
    <title>虎 (Hǔ)</title>
    <desc>Created with Sketch.</desc>
    <g id="Page-1" stroke="none" stroke-width="1" fill="none" fill-rule="evenodd">
        <g id="Names" transform="translate(-464.000000, -300.000000)" fill="#000000">
            <g id="Answer-Copy-3" transform="translate(421.000000, 231.000000)">
                <path d="M53.477,70.01 L54.855,70.01 L54.855,71.544 L64.449,71.544 L64.449,72.74 L54.855,72.74 L54.855,74.924 L65.463,74.924 L65.463,75.574 C65.229,76.796 64.917,77.992 64.501,79.162 L63.227,78.798 C63.539,77.992 63.799,77.108 64.033,76.172 L54.543,76.172 L54.543,78.902 L61.433,78.07 L61.615,79.266 L54.543,80.098 L54.543,81.242 C54.543,82.074 55.011,82.49 55.999,82.49 L61.641,82.49 C62.265,82.49 62.707,82.386 62.967,82.178 C63.279,81.918 63.513,81.164 63.643,79.916 L64.943,80.332 C64.787,81.892 64.449,82.88 63.929,83.244 C63.513,83.53 62.837,83.686 61.901,83.686 L55.609,83.686 C53.945,83.686 53.139,82.958 53.139,81.554 L53.139,80.28 L48.745,80.8 L48.563,79.63 L53.139,79.084 L53.139,76.172 L47.263,76.172 L47.263,82.048 C47.237,86.598 46.197,90.472 44.117,93.696 L43.051,92.76 C44.871,89.978 45.807,86.442 45.885,82.126 L45.885,74.924 L53.477,74.924 L53.477,70.01 Z M51.943,85.428 L60.367,85.428 L60.367,91.122 C60.367,91.798 60.705,92.136 61.381,92.136 L63.513,92.136 C63.955,92.136 64.293,92.058 64.527,91.902 C64.839,91.694 65.099,90.68 65.307,88.808 L66.555,89.224 C66.373,90.992 66.113,92.136 65.775,92.708 C65.411,93.176 64.709,93.41 63.669,93.41 L61.095,93.41 C59.691,93.41 58.989,92.708 58.989,91.356 L58.989,86.728 L53.191,86.728 C53.035,88.73 52.567,90.29 51.761,91.382 C50.773,92.578 49.369,93.358 47.549,93.722 L46.769,92.604 C48.589,92.188 49.941,91.434 50.773,90.368 C51.553,89.224 51.943,87.586 51.943,85.428 Z M82.077,69.698 L83.507,69.698 C82.467,71.388 81.635,73.182 81.037,75.106 C80.283,77.394 79.919,79.63 79.919,81.84 C79.919,84.024 80.283,86.286 81.037,88.574 C81.635,90.472 82.467,92.266 83.507,93.982 L82.077,93.982 C80.985,92.318 80.127,90.524 79.503,88.626 C78.749,86.338 78.385,84.076 78.385,81.84 C78.385,79.604 78.749,77.342 79.503,75.08 C80.127,73.156 80.985,71.362 82.077,69.698 Z M87.173,72.636 L88.759,72.636 L88.759,80.878 L100.277,80.878 L100.277,72.636 L101.863,72.636 L101.863,91.2 L100.277,91.2 L100.277,82.308 L88.759,82.308 L88.759,91.2 L87.173,91.2 L87.173,72.636 Z M107.349,72.584 L108.493,72.584 L110.859,75.054 L113.225,72.584 L114.395,72.584 L111.509,75.886 L110.235,75.886 L107.349,72.584 Z M105.399,77.758 L106.959,77.758 L106.959,85.974 C106.959,87.378 107.245,88.418 107.843,89.12 C108.467,89.848 109.429,90.212 110.729,90.212 C111.769,90.212 112.679,89.796 113.459,89.016 C114.239,88.236 114.681,87.196 114.785,85.922 L114.785,77.758 L116.345,77.758 L116.345,91.2 L114.785,91.2 L114.785,88.938 C113.745,90.68 112.237,91.564 110.313,91.564 C107.037,91.564 105.399,89.718 105.399,86.052 L105.399,77.758 Z M119.751,69.698 L121.181,69.698 C122.247,71.362 123.105,73.156 123.755,75.08 C124.483,77.342 124.873,79.604 124.873,81.84 C124.873,84.076 124.483,86.338 123.755,88.626 C123.105,90.524 122.247,92.318 121.181,93.982 L119.751,93.982 C120.791,92.266 121.597,90.472 122.221,88.574 C122.949,86.286 123.339,84.024 123.339,81.84 C123.339,79.63 122.949,77.394 122.221,75.106 C121.597,73.182 120.791,71.388 119.751,69.698 Z" id="虎-(Hǔ)"></path>
            </g>
        </g>
    </g>
</svg>