<?xml version="1.0" encoding="UTF-8"?>
<svg width="97px" height="119px" viewBox="0 0 97 119" version="1.1" xmlns="http://www.w3.org/2000/svg" xmlns:xlink="http://www.w3.org/1999/xlink">
    <!-- Generator: Sketch 52.6 (67491) - http://www.bohemiancoding.com/sketch -->
    <title>Group 20</title>
    <desc>Created with Sketch.</desc>
    <defs>
        <polygon id="path-1" points="0.000138916769 1.3086413 96.8915405 1.3086413 96.8915405 119.684783 0.000138916769 119.684783"></polygon>
    </defs>
    <g id="Page-1" stroke="none" stroke-width="1" fill="none" fill-rule="evenodd">
        <g id="Rooster" transform="translate(-74.000000, -32.000000)">
            <g id="Group-20" transform="translate(74.000000, 31.000000)">
                <g id="Group-3" transform="translate(0.000000, 0.007234)">
                    <mask id="mask-2" fill="white">
                        <use xlink:href="#path-1"></use>
                    </mask>
                    <g id="Clip-2"></g>
                    <path d="M93.7359405,27.43675 C94.8881027,28.5389022 95.6376703,30.3433804 95.5568865,31.8256304 C95.5052378,32.7699565 95.1463459,33.5038478 94.4908054,34.0075761 C93.6895892,34.624413 92.2248865,34.7348913 91.0833189,34.254837 C90.3496432,33.9497065 89.4411568,33.2802609 89.2729676,31.8361522 C89.1127243,30.4656957 89.4305622,28.4744565 89.6874811,26.8764674 C90.0357784,24.7037283 90.1576162,23.8028043 89.6795351,23.3266957 C89.4676432,23.1162609 89.2107243,23.0373478 88.9101027,23.0373478 C88.5260486,23.0373478 88.0731297,23.1675543 87.5579676,23.3122283 C86.4230216,23.6357717 84.8656162,24.0803152 83.3810486,23.4910978 C82.304373,23.0636522 81.9004541,22.1114348 81.7534541,21.3893804 C81.4753459,20.0452283 81.8925081,18.4538152 82.7480216,17.6041848 C83.7068324,16.6519674 85.2814541,16.0837935 86.8031027,16.1245652 C87.7804541,16.1574457 89.1882108,16.4783587 90.3469946,17.8027826 C90.5231297,18.0040109 90.683373,18.1749891 90.8436162,18.343337 C90.8449405,18.3446522 90.8462649,18.3472826 90.8489135,18.3485978 C92.341427,19.9255435 93.174427,20.1899022 93.8511568,20.3963913 C94.1756162,20.4950326 94.4113459,20.5660543 94.7079946,20.8041087 C94.9993459,21.035587 95.1900486,21.3170435 95.3158595,21.5906087 C94.1729676,21.1421196 92.5334541,20.6554891 91.5110757,21.0553152 C91.0833189,21.2197174 90.773427,21.5235326 90.6171568,21.9325652 L90.6158324,21.9338804 C90.2662108,22.850587 91.8408324,25.6283261 93.7359405,27.43675 M90.0635892,60.9379674 C83.3082108,70.8967935 71.7044811,83.1901304 67.4759135,86.3006196 C65.7317784,87.5842717 64.0869676,89.9713913 62.3481297,92.4992391 C59.7723189,96.2397174 57.1117514,100.106457 54.0644811,100.565467 C49.6174,101.236228 45.7795081,94.0709239 43.7082649,90.2252283 L43.3771838,89.6097065 C41.9654541,87.0055761 40.4795622,85.4930761 39.5432649,84.711837 C39.7909135,84.590837 40.0226703,84.4908804 40.2809135,84.3540978 C40.7748865,84.095 41.2741568,83.8056522 41.7879946,83.4860543 C41.5045892,84.0200326 41.4900216,84.3540978 41.4834,84.5566413 C41.4595622,85.1195543 41.6926432,85.6035543 42.1574811,85.9573478 C43.6539676,87.1029022 48.7049405,84.4448478 51.4237784,82.775837 C51.475427,83.1651413 51.7310216,83.4952609 52.1336162,83.689913 C53.3824541,84.3001739 56.4456162,83.6859674 60.4583189,80.9503152 C60.8092649,80.7109457 61.1443189,80.4742065 61.4648054,80.2374674 C61.4369946,80.4847283 61.4926162,80.7122609 61.6356432,80.9266413 C61.8899135,81.3054239 62.3653459,81.4422065 63.0407514,81.3212065 C66.3422919,80.755663 75.6231568,74.6162283 77.8599405,65.7950652 C80.5258054,55.2877935 74.7424811,52.0405217 74.4961568,51.9076848 C74.1743459,51.7367065 73.7730757,51.8524457 73.5982649,52.1720435 C73.4234541,52.4916413 73.5439676,52.8914674 73.8644541,53.0637609 C73.9161027,53.0913804 78.9922378,55.9467174 76.5766703,65.4741522 C74.3875622,74.1019783 65.4099676,79.569337 62.9665892,80.0244022 C63.4817514,79.2826196 64.9901568,77.9069022 65.9569135,77.028337 C68.3711568,74.8292935 69.4226703,73.8205217 69.0200757,72.9419565 C68.8121568,72.4882065 68.4956432,72.358 68.2691838,72.3264348 C67.6401297,72.2304239 67.2176703,72.75125 66.3674541,73.761337 C65.2099946,75.1357391 63.2725081,77.4347391 59.7087514,79.8665761 C55.7808054,82.5456739 53.3811297,82.7390109 52.7918054,82.5443587 C52.8646432,82.4457174 53.0209135,82.2786848 53.3559676,82.0629891 C53.4341027,82.0130109 61.0820757,76.998087 61.0489676,75.4079891 C61.0410216,75.1278478 60.8953459,74.8766413 60.6529946,74.7345978 C59.7604,74.215087 58.7459676,75.1304783 56.7250486,76.956 C55.3384811,78.2094022 53.6115622,79.7731957 51.6369946,81.0778913 C47.5726432,83.7648804 43.6301297,85.2287174 42.9639946,84.9130652 C42.8262649,84.8078478 42.802427,84.7197283 42.8064,84.60925 C42.8262649,84.1489239 43.4844541,82.2694783 51.1748054,77.3242609 C53.9585351,75.5355652 54.3968865,74.4925978 53.6301027,73.8705 C53.051373,73.4009674 51.9256973,74.0954022 51.4913189,74.4426196 L49.9590757,75.6684022 C45.1915081,79.4877935 42.3150757,81.7946848 39.6598054,83.1927609 C35.5279135,85.3707609 33.9479946,84.9985543 33.4593189,84.7394565 C33.1692919,84.5842609 33.0077243,84.3356848 32.9772649,84.0029348 L32.8819135,82.9652283 L31.9787243,83.4978913 C29.8041838,84.7828587 28.7765081,84.6829022 28.5381297,84.4514239 C28.3288865,84.2488804 28.3593459,83.5781196 28.9221838,82.5890761 L30.6080486,79.6245761 L27.9315892,81.7512826 C25.1809676,83.9371739 23.4633189,84.5553261 23.1481297,84.4172283 C23.1454811,84.4119674 22.8382378,83.901663 24.0380757,81.3856522 C27.1144811,74.9345109 41.4277784,59.0795652 41.5721297,58.9204239 C41.8171297,58.6508043 41.7946162,58.2351957 41.5218054,57.9918804 C41.2516432,57.7485652 40.8318324,57.7709239 40.5868324,58.0418587 C40.0902108,58.5903043 30.2425351,69.5000326 25.1743459,76.9389022 C21.5549676,77.3873913 17.3820216,77.6885761 16.734427,77.4084348 C16.3252108,77.2295652 16.7529676,75.8814674 16.9820757,75.1554674 C17.1052378,74.7687935 17.2178054,74.4097391 17.2760757,74.1190761 C17.3820216,73.5929891 17.2178054,73.2418261 17.0615351,73.0392826 C16.7450216,72.6289348 16.2351568,72.5079348 15.7729676,72.4579565 C16.1596703,71.9608043 16.6470216,71.3018804 16.8721568,70.5403696 C17.0098865,70.0721522 16.8721568,69.7407174 16.7331027,69.54475 C16.3026973,68.9436957 15.3981838,68.9002935 14.2552919,68.8450543 C13.4209676,68.8055978 12.4754,68.7608804 11.9734811,68.474163 C11.8609135,68.4097174 11.8503189,68.3663152 11.8476703,68.353163 C11.7668865,68.0190978 12.3469405,67.1405326 12.7694,66.5000217 C13.2077514,65.8332065 13.6619946,65.1453478 13.9016973,64.4601196 C14.0275081,64.09975 13.9917514,63.7406957 13.8010486,63.4500326 C13.353427,62.7713804 12.2621838,62.6885217 10.8795892,62.5833043 C9.90621081,62.5096522 8.43223784,62.3978587 8.14750811,61.9875109 C8.13029189,61.9612065 8.07599459,61.8849239 8.14750811,61.6455543 C8.66002162,59.9186739 11.4106432,59.5004348 12.8885892,59.2755326 C13.3759405,59.2005652 13.7295351,59.1466413 13.9692378,59.059837 C13.9692378,59.059837 14.5413459,58.854663 14.4579135,58.3443587 C14.3519676,57.6906957 14.0301568,57.6104674 10.4306432,56.9055109 C8.81629189,56.5898587 6.19280541,56.0756087 5.47502162,55.7612717 C5.48164324,55.6402717 5.52931892,55.4771848 5.64585946,55.2825326 C5.89085946,54.8708696 6.99402162,53.4793696 10.9352108,52.8072935 C14.8128324,52.1378478 19.6015892,54.3947609 21.9006162,55.4758696 C22.4568324,55.7375978 22.8925351,55.9414565 23.1706432,56.0427283 C24.1665351,56.4109891 24.5479405,56.0795543 24.6896432,55.7415435 C24.8697514,55.3167283 25.2445351,54.431587 18.3871838,51.1987826 C14.6552378,49.4363913 10.5180486,48.9708043 7.77934595,48.6617283 C6.6986973,48.539413 5.48826486,48.4039457 5.06050811,48.236913 C5.08699459,48.0646196 5.1744,47.8936413 5.3266973,47.7174022 C6.22458919,46.6836413 8.90502162,45.9287065 10.9802378,45.7958696 C11.4821568,45.7643043 12.8157514,45.6775 13.0130757,44.7305435 C13.1931838,43.8677609 12.3191297,43.0325978 9.99361622,41.847587 C8.30775135,40.9874348 8.25477838,40.5718261 8.25477838,40.5678804 C8.25477838,40.5613043 8.28258919,40.3876957 8.95137297,39.972087 C9.40958919,39.688 9.42812973,39.2986957 9.41488649,39.1448152 C9.35794054,38.4885217 8.64545405,38.2004891 7.46283243,37.7243804 C6.54904865,37.3548043 5.01680541,36.7366522 4.79431892,36.14875 C4.76783243,36.0790435 4.75458919,35.9948696 4.83007568,35.8436196 C5.15983243,35.2031087 8.3541027,35.5884674 9.40561622,35.7147283 C11.0186432,35.9093804 11.5589676,35.9738261 11.8728324,35.4793043 L12.0834,35.0321304 L11.8556162,34.6796522 C11.6013459,34.2864022 11.0120216,34.0509783 8.38191351,33.1329565 C6.33053514,32.416163 1.53118378,30.7392609 1.31531892,29.875163 C1.33253514,29.6699891 1.57356216,29.475337 1.71791351,29.3766957 C3.25280541,28.3245217 7.7171027,28.0049239 11.9205081,29.2175543 C15.6246432,30.2841957 18.9579676,33.0343152 20.7484541,34.5139348 C21.9416703,35.4964022 22.2184541,35.7318261 22.7031568,35.5332283 C23.0196703,35.4017065 23.2169946,35.0886848 23.2275892,34.6954348 C23.2487784,33.9575978 22.6303189,31.9190109 16.4457243,28.9203152 C13.5229405,27.5038261 10.3789946,26.6147391 7.85350811,25.9018913 C5.72267027,25.2995217 2.80253514,24.4748804 2.8714,23.8475217 C2.88199459,23.7567717 3.00780541,23.5976304 3.33226486,23.4240217 C5.38364324,22.3205543 11.7827784,22.3823696 16.4192378,24.7208261 C24.8419405,28.9702935 30.0809676,36.2158261 32.0555351,38.9422717 C33.0077243,40.2574891 33.206373,40.5271087 33.7096162,40.4455652 L34.1757784,40.3245652 L34.2896703,39.9207935 C34.6048595,38.7975978 31.4794541,33.5327826 24.3771027,27.4696304 C18.155427,22.161413 14.2327784,21.2710109 9.26788649,20.1451848 C8.36867027,19.9426413 7.42972432,19.7295761 6.43118378,19.4796848 C14.1930486,15.9351739 23.4606703,20.4937174 29.5764,25.9755435 C35.2034541,31.0220326 39.5525351,42.0987935 41.0662378,47.2505 L41.1894,47.6687391 L41.6251027,47.7187174 C45.3636703,48.1566848 47.6388595,50.1913261 48.5248324,51.1553804 C47.4614,51.8892717 46.4575622,52.6968152 45.5927784,53.5648587 C45.3358595,53.8226413 45.3385081,54.2395652 45.5980757,54.4947174 C45.7278595,54.6222935 45.8960486,54.6854239 46.0642378,54.6854239 C46.2350757,54.6854239 46.4059135,54.619663 46.534373,54.4907717 C49.7312919,51.2776957 54.9385351,48.9576522 57.7712649,48.1356413 C62.9387784,49.4429674 65.2854811,47.4701413 67.849373,44.7147609 C67.596427,46.2469891 66.4349946,47.9554565 65.2815081,49.1812391 C64.9755892,49.5060978 64.9080486,49.973 65.1106703,50.3675652 C65.2947514,50.7239891 65.6536432,50.941 66.0509405,50.941 C66.0959676,50.941 66.1409946,50.9370543 66.1873459,50.9317935 C69.5140486,50.5214457 74.2511568,47.8305109 76.9368865,44.9291413 C76.9461568,45.4197174 76.8865622,45.8340109 76.8362378,46.1943804 C76.8137243,46.3482609 76.7951838,46.4903043 76.7819405,46.6191957 C76.7435351,46.9874565 76.9183459,47.3333587 77.2361838,47.52275 C77.5540216,47.7081957 77.9407243,47.6989891 78.2466432,47.4898696 C78.964427,47.0006087 79.7629946,46.3640435 80.2847784,45.9339674 C80.6251297,46.5823696 81.1217514,47.5437935 81.4594541,48.260587 C81.6038054,48.5617717 81.8739676,48.7774674 82.198427,48.8524348 C82.5228865,48.9274022 82.8579405,48.85375 83.1188324,48.6485761 C84.5477784,47.5306413 86.616373,45.7011739 87.6109405,44.8107717 C88.6240486,46.7928043 88.7776703,46.996663 88.8372649,47.0768913 L89.2756162,47.6569022 L89.8146162,47.1676413 C89.9099676,47.0795217 90.0702108,46.9729891 90.2688595,46.8348913 C91.2064811,46.1851739 92.9850486,44.939663 93.7650757,42.7195761 C94.5729135,46.8664565 94.8444,53.8857717 90.0635892,60.9379674 M56.2575622,111.684315 C57.1461838,116.275739 60.0901568,116.569033 61.8488595,116.743957 L62.0011568,116.758424 C62.4262649,116.804457 63.0976973,116.750533 63.9532108,116.684772 C65.2364811,116.588761 66.9965081,116.453293 67.8056703,116.712391 C68.0480216,116.789989 68.6916432,116.993848 68.7684541,117.948696 C66.7607784,116.85838 62.8474,117.150359 61.9879135,117.227957 C59.9630216,117.418663 56.0483189,117.487054 54.2591568,117.124054 C52.7706162,116.818924 51.3125351,117.422609 50.4715892,117.885565 C50.4556973,117.73563 50.4451027,117.543609 50.4451027,117.304239 C50.4451027,116.953076 50.5762108,116.690033 50.8450486,116.498011 C51.3045892,116.171837 52.0859405,116.106076 52.7851838,116.342815 C53.5771297,116.603228 54.7849135,116.663728 55.5861297,115.965348 C56.0138865,115.593141 56.4707784,114.877663 56.2178324,113.580859 C55.885427,111.884228 53.2924,104.75838 52.1865892,101.757054 C52.602427,101.857011 53.0248865,101.926717 53.4592649,101.926717 C53.7241297,101.926717 53.9929676,101.906989 54.2644541,101.866217 C54.3240486,101.857011 54.3823189,101.838598 54.4419135,101.828076 C54.7544541,103.574685 55.6033459,108.289739 56.2575622,111.684315 M65.2894541,33.2276522 C66.4164541,28.82825 67.5792108,24.278913 70.1974,20.6975761 C75.1066703,13.987337 80.2635892,13.3612935 84.1941838,13.5427935 C85.7198054,13.6177609 86.9726162,14.2188152 87.9632108,14.9592826 C87.6016703,14.883 87.2321838,14.8238152 86.8481297,14.810663 C84.9848054,14.7580543 83.0340757,15.4590652 81.8104,16.6756413 C80.6264541,17.8514457 80.0821568,19.8518913 80.4556162,21.6537391 C80.7588865,23.122837 81.6236703,24.2092065 82.8897243,24.7116196 C84.7914541,25.4691848 86.6733189,24.9312609 87.9234811,24.5774674 C88.1631838,24.5090761 88.4611568,24.4249022 88.674373,24.3815 C88.666427,24.8747065 88.5101568,25.8532283 88.3790486,26.6699783 C88.1102108,28.3481957 87.7764811,30.4380761 87.9565892,31.9887174 C88.1459676,33.6064348 89.0729946,34.8427391 90.5708054,35.4687826 C90.871427,35.5950435 91.1866162,35.683163 91.5044541,35.7502391 C94.6987243,42.0435543 91.3031568,44.5174783 89.5709405,45.7182717 C89.3722919,45.3473804 89.0796162,44.7857826 88.6770216,43.995337 C88.5154541,43.681 88.2227784,43.4639891 87.8744811,43.3995435 C87.5222108,43.3350978 87.1712649,43.4337391 86.9090486,43.6717935 C86.0654541,44.4293587 84.0154,46.2535652 82.5308324,47.4359457 C82.0938054,46.5337065 81.4925622,45.3881522 81.2210757,44.8752174 C81.0912919,44.630587 80.8621838,44.4609239 80.5906973,44.407 C80.3205351,44.3530761 80.0437514,44.4240978 79.8278865,44.6042826 C79.5272649,44.8541739 78.8862919,45.3894674 78.2122108,45.8945109 C78.2810757,45.2908261 78.3115351,44.5319457 78.1075892,43.5836739 C78.0426973,43.269337 77.796373,43.0194457 77.4785351,42.9497391 C77.159373,42.8774022 76.8229946,42.9997174 76.6269946,43.2575 C74.5478054,45.9747391 70.0437784,48.7879891 66.7647514,49.5034674 C67.7950757,48.279 69.5021297,45.8563696 69.1869405,43.5573696 C69.1392649,43.2009457 68.8929405,42.912913 68.5459676,42.8063804 C68.2042919,42.701163 67.8215622,42.8011196 67.5792108,43.0667935 C65.0126703,45.8760978 63.2380757,47.8107826 59.1114811,47.0900435 C62.6739135,43.4666196 64.0035351,38.2675652 65.2894541,33.2276522 M72.9930486,13.2600217 C72.0951568,12.4340652 70.6436973,12.2117935 69.3392378,12.4038152 C69.9192919,11.4752717 70.7708324,10.8281848 71.5468865,10.2389674 C72.1732919,9.76417391 72.7136162,9.35251087 73.0552919,8.84352174 C73.3598865,8.38977174 73.4618595,7.85842391 73.3466432,7.30603261 C73.1148865,6.17231522 72.0090757,5.11882609 71.0542378,4.39677174 C73.3002919,2.93425 76.0429676,3.42219565 79.3948324,5.86192391 C79.8424541,6.18941304 80.4397243,6.18152174 80.8794,5.84482609 C81.3190757,5.51076087 81.4779946,4.94127174 81.2780216,4.42833696 C81.0343459,3.81281522 80.7019405,3.22754348 80.2834541,2.67778261 C82.8208595,2.33056522 85.0841297,3.57213043 87.6175622,6.66157609 C87.9009676,7.00484783 88.3605081,7.14163043 88.7842919,7.01273913 C89.2094,6.88121739 89.507373,6.51427174 89.5431297,6.07630435 C89.5696162,5.77775 89.5576973,5.46209783 89.5272378,5.16222826 C90.2410486,5.61334783 91.1230486,6.26306522 91.7269405,7.02720652 C92.8155351,8.40292391 92.8102378,11.7422609 91.7176703,13.189 C91.0541838,14.0675652 90.7641568,14.9487609 90.6661568,15.7365761 C89.4649946,14.2503804 87.3566703,12.3814565 84.2590757,12.2315217 C81.4541568,12.0934239 77.6930757,12.3643587 73.8379676,15.1381522 C73.7955892,14.2345978 73.4009405,13.6361739 72.9930486,13.2600217 M95.9224,23.2977609 L96.8322108,23.7488804 L96.8798865,22.7401087 C96.8838595,22.6651413 96.9514,20.9040652 95.534373,19.7782391 C95.0390757,19.3849891 94.6139676,19.2560978 94.2378595,19.1416739 C93.7505081,18.9930543 93.2048865,18.8168152 92.2288595,17.8738043 C92.055373,17.4489891 91.4726703,15.7036957 92.7771297,13.9768152 C94.2325622,12.0487065 94.2272649,8.05965217 92.7678595,6.21571739 C91.4024811,4.48883696 88.9975081,3.34854348 88.8968595,3.30119565 L87.5698865,2.67778261 L87.9791027,4.07848913 C87.9817514,4.08638043 88.1539135,4.6808587 88.2135081,5.3161087 C86.0747243,2.83429348 83.1095622,0.409032609 78.8624541,1.63744565 L77.788427,1.94915217 L78.5790486,2.73433696 C79.1591027,3.31040217 79.6067243,3.9403913 79.9179405,4.61509783 C75.8125351,1.71898913 72.3070486,1.48356522 69.4994811,3.92066304 L68.8412919,4.49146739 L69.5709946,4.96626087 C70.977427,5.88165217 71.9044541,6.85622826 72.0501297,7.56907609 C72.0938324,7.78082609 72.0646973,7.94917391 71.9534541,8.11357609 C71.7349405,8.43975 71.2740757,8.78959783 70.7430216,9.19336957 C69.6319135,10.0377391 68.1102649,11.1938152 67.5434541,13.2337174 L67.1699946,14.5831304 L68.4559135,14.0070652 C69.5392108,13.5204348 71.3005622,13.4901848 72.0938324,14.2227609 C72.5732378,14.6633587 72.6381297,15.3880435 72.3110216,16.3626196 C71.2422919,17.3227283 70.1748865,18.4893261 69.1273459,19.922913 C66.3581838,23.7094239 65.1636432,28.3837065 64.0088324,32.9027935 C62.6129946,38.3622609 61.2873459,43.517913 57.3991297,46.8782935 C55.452373,47.443837 52.4527784,48.6919783 49.6544811,50.4359565 C48.7685081,49.4127174 46.3529405,47.0953043 42.2170757,46.4771522 C40.5643189,41.0413587 36.1675622,30.1158478 30.4663459,25.004913 C23.9877514,19.196913 14.0791568,14.4029457 5.68691351,18.380163 C5.20353514,18.6076957 4.92542703,19.0982717 4.9784,19.6269891 C5.03004865,20.1543913 5.39688649,20.5805217 5.91337297,20.709413 C6.99667027,20.9829783 8.00845405,21.2131413 8.97653514,21.4327826 C9.09042703,21.459087 9.20431892,21.4840761 9.31821081,21.5103804 C6.54772432,21.2802174 4.04475135,21.5524674 2.70850811,22.2705761 C1.84107568,22.736163 1.60667027,23.3082826 1.56164324,23.7081087 C1.37094054,25.428413 3.77591351,26.1189022 7.42442703,27.1500326 C4.7281027,27.001413 2.27412973,27.4025543 0.972318919,28.2969022 C0.228048649,28.8072065 0.0346972973,29.3806413 0.00423783784,29.7712609 C-0.125545946,31.3639891 2.83696757,32.5753043 7.42575135,34.1890761 C5.74650811,34.0878043 4.17850811,34.2193261 3.6554,35.2517717 C3.42761622,35.7002609 3.39450811,36.1697935 3.56137297,36.6103913 C3.98780541,37.7375326 5.57302162,38.3780435 6.97150811,38.9422717 C7.19929189,39.0330217 7.46812973,39.1421848 7.69856216,39.2434565 C7.25491351,39.5998804 6.91191351,40.039163 6.9384,40.6218043 C6.97283243,41.4385543 7.70783243,42.1540326 9.39502162,43.0141848 C10.7590757,43.7099348 11.3298595,44.1584239 11.5669135,44.3938478 C11.4291838,44.425413 11.2172919,44.4609239 10.9021027,44.4806522 C8.98315676,44.6029674 5.64850811,45.3368587 4.33080541,46.85725 C3.89642703,47.3583478 3.69248108,47.9317826 3.74280541,48.5196848 C3.83021081,49.537663 5.10288649,49.6810217 7.63764324,49.9677391 C10.2518595,50.2623478 14.1824541,50.7055761 17.6813189,52.3167174 C15.4842649,51.6065 12.9971838,51.1198696 10.715373,51.5091739 C6.49475135,52.229913 5.01548108,53.7634565 4.50958919,54.6117717 C4.15599459,55.2049348 4.06196757,55.8165109 4.2434,56.337337 C4.46588649,56.9712717 5.35318378,57.2500978 10.1776973,58.1944239 C10.3869405,58.2351957 10.6041297,58.2772826 10.8226432,58.322 C9.19504865,58.7191957 7.40853514,59.4951739 6.88012973,61.2720326 C6.67353514,61.9677826 6.86291351,62.4504674 7.06023784,62.7319239 C7.70385946,63.6591522 9.26788649,63.778837 10.7815892,63.8932609 C11.3854811,63.9392935 12.2621838,64.0063696 12.6104811,64.1405217 C12.4105081,64.6455652 12.030427,65.219 11.6635892,65.7766522 C10.9868595,66.8012065 10.3498595,67.7705217 10.5617514,68.6543478 C10.6279676,68.9318587 10.8120486,69.3224783 11.3126432,69.6091957 C12.0926703,70.0563696 13.2090757,70.1102935 14.1930486,70.1563261 C14.6340486,70.1786848 15.2657514,70.2076196 15.5624,70.2917935 C15.3690486,70.827087 14.970427,71.3400217 14.6459676,71.7569457 C14.2592649,72.2540978 14.0036703,72.581587 14.0606162,72.9958804 L14.1414,73.3430978 L14.3638865,73.5088152 C14.6141838,73.6955761 14.9320216,73.7139891 15.2988595,73.737663 C15.5014811,73.7508152 15.9239405,73.7771196 15.9808865,73.858663 C15.9305622,74.1111848 15.8299135,74.4242065 15.7239676,74.7609022 C15.3200486,76.0353478 14.7108595,77.9621413 16.2086703,78.6131739 C16.5596162,78.7657391 17.2641568,78.8249239 18.1421838,78.8249239 C19.9498865,78.8249239 22.4939135,78.5750326 24.2340757,78.3751196 C23.6659405,79.2747283 23.1891838,80.1033152 22.8461838,80.8227391 C21.6410486,83.3519022 21.4794811,84.7749674 22.3217514,85.437837 C23.300427,86.2085543 25.2445351,85.2826413 27.1012378,84.0121413 C27.0893189,84.5737391 27.2614811,85.044587 27.6177243,85.3891739 C28.1050757,85.8652826 29.2969676,86.3979457 31.9389946,85.0288043 C32.1402919,85.3878587 32.4435622,85.6850978 32.8355622,85.8942174 C33.2871568,86.1375326 33.8314541,86.2572174 34.4684541,86.2572174 C35.4762649,86.2572174 36.7304,85.9336739 38.1898054,85.3313043 C38.8029676,85.7600652 40.5510757,87.162087 42.2157514,90.2344348 L42.5455081,90.8446957 C44.3373189,94.1695652 47.0362919,99.1647609 50.5391297,101.104707 C51.1019676,102.623783 54.5584541,111.973663 54.9213189,113.83075 C55.0272649,114.37788 54.9597243,114.763239 54.7186973,114.974989 C54.415427,115.239348 53.7982919,115.28538 53.2116162,115.094674 C52.1031568,114.726413 50.8768324,114.857935 50.0769405,115.430054 C49.4637784,115.868022 49.1260757,116.533522 49.1260757,117.304239 C49.1260757,117.792185 49.1274,119.27575 49.9696703,119.505913 L50.2835351,119.591402 L50.544427,119.39675 C50.5629676,119.383598 52.3494811,118.077587 53.9969405,118.411652 C56.0973189,118.841728 60.3232378,118.707576 62.116373,118.539228 C64.6537784,118.301174 67.7606432,118.5195 68.5247784,119.388859 C68.6916432,119.58088 68.927373,119.684783 69.172373,119.684783 C69.2505081,119.684783 69.3286432,119.674261 69.4067784,119.653217 C69.7325622,119.563783 69.9722649,119.302054 70.0305351,118.97062 C70.3417514,117.205598 69.6795892,115.927207 68.2148865,115.460304 C67.1567514,115.124924 65.4033459,115.259076 63.8552108,115.37613 C63.1294811,115.43137 62.4487784,115.483978 62.1415351,115.453728 L61.9865892,115.437946 C60.3298595,115.272228 58.2652378,115.06837 57.5646703,111.439685 C56.8892649,107.942522 56.0072649,103.042022 55.7212108,101.444033 C58.6612108,100.188 61.0886973,96.6697935 63.4459946,93.2449674 C65.1225892,90.8105 66.7038324,88.5115 68.2691838,87.3593696 C72.5705892,84.1962717 84.3411838,71.741163 91.1680757,61.6758043 C98.7286432,50.5240761 94.2855351,39.3447283 93.9306162,38.5016739 C93.7544811,37.6915 93.4525351,36.8063587 93.0181568,35.8488804 C93.8802919,35.7844348 94.6947514,35.5227065 95.3065892,35.0518587 C96.2680486,34.3140217 96.8123459,33.2250217 96.8838595,31.9005978 C96.9858324,30.0356196 96.0919135,27.8628804 94.6589946,26.4937391 C92.8738054,24.7892174 91.9838595,22.8532174 91.8924811,22.3481739 C91.9136703,22.3258152 91.9428054,22.306087 91.9944541,22.2863587 C92.7215081,21.9930652 94.7291838,22.7045978 95.9224,23.2977609" id="Fill-1" fill="#000000" mask="url(#mask-2)"></path>
                </g>
                <path d="M87.4194432,19.6998522 C87.4194432,19.5301891 87.557173,19.3934065 87.7280108,19.3934065 C87.8988486,19.3934065 88.039227,19.5301891 88.039227,19.6998522 C88.039227,20.0391783 87.4194432,20.0391783 87.4194432,19.6998522 M87.7280108,18.0781891 C86.8287946,18.0781891 86.0951189,18.8068196 86.0951189,19.6998522 C86.0951189,20.5955152 86.8301189,21.3228304 87.7280108,21.3228304 C88.6298757,21.3228304 89.3635514,20.5942 89.3635514,19.6998522 C89.3635514,18.8068196 88.6298757,18.0781891 87.7280108,18.0781891" id="Fill-4" fill="#000000"></path>
                <path d="M76.4304649,31.2644272 C76.5033027,30.8014707 76.9006,30.0886228 77.3654378,29.4086554 C77.4369514,29.8873946 77.4899243,30.4739815 77.484627,31.1315902 C77.4806541,31.6524163 77.2383027,31.9825359 77.0131676,32.1180033 C76.8833838,32.1969163 76.7694919,32.2021772 76.7244649,32.177188 C76.5549514,32.0903837 76.3761676,31.6155902 76.4304649,31.2644272 M76.1139514,33.3451011 C76.3205459,33.4516337 76.5523027,33.5042424 76.7893568,33.5042424 C77.0913027,33.5042424 77.4078162,33.417438 77.6978432,33.2425141 C78.3891405,32.8295359 78.8023297,32.0430359 78.8089514,31.1394815 C78.8195459,29.5625359 78.5281946,28.3420141 78.4010595,27.8869489 C78.325573,27.609438 78.1070595,27.3819054 77.8210054,27.3398185 C77.3892757,27.2753728 77.051573,27.6133837 77.051573,27.6133837 C76.4026541,28.4222424 75.2941946,29.9439489 75.1220324,31.0658293 C74.9962216,31.8707424 75.3326,32.9439598 76.1139514,33.3451011" id="Fill-6" fill="#000000"></path>
                <path d="M72.3552541,24.4308207 C72.4294162,24.1138533 72.7671189,23.5956576 73.1352811,22.9919728 C73.1551459,23.3760163 73.3524703,23.9455054 73.3153892,24.4295054 C73.2822811,24.8556359 73.0677405,25.110788 72.8810108,25.2067989 C72.7790378,25.2580924 72.7088486,25.2502011 72.6995784,25.243625 C72.4479568,25.2488859 72.2930108,24.7083315 72.3552541,24.4308207 M72.0096054,26.3668207 C72.2254703,26.4983424 72.4770919,26.5641033 72.7313622,26.5641033 C72.9829838,26.5641033 73.2425514,26.5009728 73.486227,26.3760272 C74.1430919,26.0406467 74.2993622,25.3514728 74.3616054,24.529462 C74.4649027,23.1958315 73.9285514,22.1331359 73.9285514,21.6175707 L73.9285514,21.6096793 C73.9285514,21.3321685 73.9206054,21.1585598 73.6597135,21.038875 C73.4306054,20.9336576 73.102173,21.2585163 73.102173,21.2585163 C72.4784162,21.9371685 71.4322,23.2208207 71.2057405,24.2164402 C71.0415243,24.9450707 71.3183081,25.9472663 72.0096054,26.3668207" id="Fill-8" fill="#000000"></path>
                <path d="M69.9510757,34.9063957 C70.1735622,34.2237978 70.6569405,33.4451891 71.0820486,32.8362435 C71.1760757,33.4162543 71.2502378,34.1435696 71.2277243,34.9182326 C71.2171297,35.3049065 71.0674811,35.6481783 70.8277784,35.8336239 C70.6662108,35.9585696 70.4755081,35.9980261 70.2649405,35.9559391 C70.2344811,35.949363 70.152373,35.9322652 70.0662919,35.7849609 C69.9100216,35.5153413 69.8941297,35.0852652 69.9510757,34.9063957 M69.9908054,37.2422217 C70.1378054,37.2724717 70.2848054,37.2882543 70.4291568,37.2882543 C70.8714811,37.2882543 71.2912919,37.1448957 71.6475351,36.8673848 C72.1997784,36.4359935 72.5295351,35.7389283 72.553373,34.9563739 C72.602373,33.2715804 72.2540757,31.8248413 72.1017784,31.2803413 C72.0276162,31.0146674 71.8117514,30.8265913 71.5442378,30.7568848 C71.1389946,30.6516674 70.8118865,31.0094065 70.8118865,31.0094065 C70.4304811,31.472363 69.1498595,33.08745 68.6903189,34.5026239 C68.5300757,34.9958304 68.5565622,35.8204717 68.9207514,36.4438848 C69.1710486,36.8713304 69.5405351,37.1475261 69.9908054,37.2422217" id="Fill-10" fill="#000000"></path>
                <path d="M27.2732676,40.401637 C26.8362405,39.7598109 26.911727,39.4467891 26.9435108,39.4165391 C26.9647,39.3968109 27.0242946,39.3783978 27.1183216,39.3783978 C27.3143216,39.3783978 27.6639432,39.4612565 28.1287811,39.7940065 C29.0743486,40.4752891 31.9110514,43.3608761 34.269673,48.4994304 C31.0290514,44.9009957 27.9367541,41.3801587 27.2732676,40.401637 M28.9035108,38.7273652 C27.8122676,37.9434957 26.6799703,37.8409087 26.0217811,38.4708978 C25.7860514,38.6971152 25.1027,39.5572674 26.1727541,41.1355283 C27.2467811,42.7177348 33.5638081,49.6989087 35.4748081,51.8006261 C35.6191595,51.9597674 36.0707541,52.1202239 36.3978622,51.9387239 C36.8878622,51.6677891 36.7276189,51.0509522 36.7276189,51.0509522 C34.114727,43.6778435 30.194727,39.6559087 28.9035108,38.7273652" id="Fill-12" fill="#000000"></path>
                <path d="M21.9669649,45.7318185 C19.591127,44.5586446 16.7517757,43.0737641 15.867127,42.001862 C15.4287757,41.4705141 15.2738297,40.9838837 15.4499649,40.7024272 C15.5890189,40.4801554 15.9545324,40.3091772 16.4538027,40.3091772 C16.6286135,40.3091772 16.8179919,40.3302207 17.0219378,40.3775685 C20.4903432,41.1772207 25.5638297,46.4617641 29.2719378,50.6494163 C26.7159919,48.6976337 23.8806135,46.6761446 21.9669649,45.7318185 M32.576127,52.4367967 C28.6243432,47.8519489 22.0080189,40.1789707 17.3185865,39.0952315 C16.0578297,38.8071989 14.8500459,39.1675685 14.3229649,40.0066772 C14.0872351,40.3815141 13.6661,41.4100141 14.8407757,42.8330793 C15.875073,44.0904272 18.5925865,45.5345359 21.3763162,46.9076228 C24.6262081,48.5135033 30.7618027,53.4468837 33.2475595,55.4920467 C33.3905865,55.6104163 33.9679919,55.7748185 34.2831811,55.4354924 C34.634127,55.058025 34.3003973,54.410938 34.3003973,54.410938 C33.8382081,53.8980033 33.2528568,53.2219815 32.576127,52.4367967" id="Fill-14" fill="#000000"></path>
                <path d="M71.6233,64.8064163 C71.5835703,64.8208837 71.5491378,64.8327207 71.5226514,64.8392967 C71.4868946,64.3737098 71.8510838,63.1676554 72.5397324,61.773525 C72.607273,63.104525 72.4351108,64.5065467 71.6233,64.8064163 Z M72.3702189,59.3811446 C72.3397595,59.4298076 69.2805703,64.2737533 70.5015973,65.7678402 C70.6433,65.9427641 70.9240568,66.1755576 71.3994892,66.1755576 C71.5941649,66.1755576 71.8206243,66.1374163 72.0854892,66.038775 C74.7540027,65.0536772 73.7051378,60.1426554 73.5780027,59.5863185 L73.2217595,58.0461989 L72.3702189,59.3811446 Z" id="Fill-16" fill="#000000"></path>
                <path d="M62.593527,67.7026565 C62.4041486,67.6684609 62.3061486,67.6250587 62.2717162,67.6250587 C62.3286622,67.409363 62.7921757,66.5005478 66.4208243,64.1160587 C65.7838243,65.7877 64.5508784,68.0617109 62.593527,67.7026565 M60.9606351,67.8946783 C61.0347973,68.2931891 61.3367432,68.8048087 62.3472027,68.9955152 C62.5922027,69.0415478 62.8239595,69.0625913 63.0490946,69.0625913 C66.8260676,69.0625913 68.1782027,63.0047 68.2377973,62.7311348 L68.5635811,61.2160043 L67.2392568,62.0367 C61.4267973,65.6325043 60.7871486,66.9779717 60.9606351,67.8946783" id="Fill-18" fill="#000000"></path>
            </g>
        </g>
    </g>
</svg>