<svg height="12" viewBox="0 0 23 12" width="23" xmlns="http://www.w3.org/2000/svg"><path d="m10.1038916 15.9763153c.3136047-.3254983.80732-.3254983 1.1209247 0 .3030098.3254982.3030098.8379381 0 1.1634364l-4.69700622 4.8758763c-.14550124.1510194-.34750782.2441237-.57141022.2441237s-.42590898-.0931043-.57211654-.2441237l-4.69700618-4.8758763c-.31360463-.3254983-.31360463-.8379382 0-1.1634364.31360462-.3254983.80732001-.3254983 1.12092463 0l3.35217915 3.4910423v-18.39312711c-.00070632-.45379152.35810257-.8144788.79531262-.8144788s.78471788.36068728.78471788.8144788v18.39239401z" fill="#fff" transform="matrix(0 -1 1 0 0 12)"/></svg>