<?xml version="1.0" encoding="utf-8"?>
<!-- Generator: Adobe Illustrator 22.1.0, SVG Export Plug-In . SVG Version: 6.00 Build 0)  -->
<svg version="1.1" id="Layer_1" xmlns="http://www.w3.org/2000/svg" xmlns:xlink="http://www.w3.org/1999/xlink" x="0px" y="0px"
	 viewBox="0 0 20 22" enable-background="new 0 0 20 22" xml:space="preserve">
<g>
	<path d="M17,1.2H3C1.5,1.2,0.2,2.5,0.2,4v16c0,0.3,0.2,0.6,0.5,0.7c0.1,0,0.2,0.1,0.3,0.1c0.2,0,0.4-0.1,0.5-0.2l3.8-3.8H17
		c1.5,0,2.8-1.2,2.8-2.8V4C19.8,2.5,18.5,1.2,17,1.2z M18.2,14c0,0.7-0.6,1.2-1.2,1.2H5c-0.2,0-0.4,0.1-0.5,0.2l-2.7,2.7V4
		c0-0.7,0.6-1.2,1.2-1.2h14c0.7,0,1.2,0.6,1.2,1.2V14z"/>
	<path d="M9.7,11.4c-0.5,0-0.8,0.4-0.8,0.8c0,0.5,0.4,0.8,0.8,0.8c0.5,0,0.8-0.4,0.8-0.8C10.6,11.8,10.2,11.4,9.7,11.4z"/>
	<path d="M9.9,4.9c-1.7,0-2.5,1.2-2.5,2.4c0,0.3,0.1,0.5,0.2,0.6C7.7,8,7.8,8.1,8,8.1c0.3,0,0.7-0.3,0.7-0.7c0-0.6,0.3-1.3,1.2-1.3
		c0.8,0,1.2,0.6,1.2,1.1c0,0.4-0.2,0.7-0.5,1l-0.5,0.3c-0.7,0.4-1,1-1,1.8c0,0.1,0,0.3,0,0.4l0,0.1h1.2l0-0.1c0-0.1,0-0.2,0-0.2
		c0-0.3,0.1-0.7,0.4-1l0.5-0.3c0.8-0.5,1.2-1.2,1.2-2C12.5,6.1,11.6,4.9,9.9,4.9z"/>
</g>
</svg>
