<?xml version="1.0" encoding="utf-8"?>
<!-- Generator: Adobe Illustrator 22.1.0, SVG Export Plug-In . SVG Version: 6.00 Build 0)  -->
<svg version="1.1" id="Layer_1" xmlns="http://www.w3.org/2000/svg" xmlns:xlink="http://www.w3.org/1999/xlink" x="0px" y="0px"
	 viewBox="0 0 20 22" enable-background="new 0 0 20 22" xml:space="preserve">
<g>
	<path d="M19.7,4.7C19.7,4.7,19.7,4.7,19.7,4.7c-0.1-0.1-0.1-0.2-0.1-0.2l-3-4c-0.1-0.2-0.4-0.3-0.6-0.3H4c-0.2,0-0.5,0.1-0.6,0.3
		l-3,4c0,0,0,0.1-0.1,0.1c0,0,0,0.1,0,0.1c0,0.1-0.1,0.2-0.1,0.3v14c0,1.5,1.2,2.8,2.8,2.8h14c1.5,0,2.8-1.2,2.8-2.8V5
		C19.8,4.9,19.7,4.8,19.7,4.7z M4.4,1.8h11.2l1.9,2.5h-15L4.4,1.8z M17,20.2H3c-0.7,0-1.2-0.6-1.2-1.2V5.8h16.5V19
		C18.2,19.7,17.7,20.2,17,20.2z"/>
	<path d="M14,8.2c-0.4,0-0.8,0.3-0.8,0.8c0,1.8-1.5,3.2-3.2,3.2S6.8,10.8,6.8,9c0-0.4-0.3-0.8-0.8-0.8S5.2,8.6,5.2,9
		c0,2.6,2.1,4.8,4.8,4.8s4.8-2.1,4.8-4.8C14.8,8.6,14.4,8.2,14,8.2z"/>
</g>
</svg>
