<?xml version="1.0" encoding="UTF-8" standalone="no"?>
<svg width="26px" height="24px" viewBox="0 0 26 24" version="1.1" xmlns="http://www.w3.org/2000/svg" xmlns:xlink="http://www.w3.org/1999/xlink" xmlns:sketch="http://www.bohemiancoding.com/sketch/ns">
    <!-- Generator: Sketch 3.0.3 (7891) - http://www.bohemiancoding.com/sketch -->
    <title>icon-cart-active</title>
    <desc>Created with Sketch.</desc>
    <defs></defs>
    <g id="Approved" stroke="none" stroke-width="1" fill="none" fill-rule="evenodd" sketch:type="MSPage">
        <g id="loandsons.checkout" sketch:type="MSArtboardGroup" transform="translate(-487.000000, -44.000000)" fill="#4DBEEE">
            <g id="cart-+-checkout" sketch:type="MSLayerGroup" transform="translate(-6.000000, -10.000000)">
                <g id="cart" transform="translate(460.000000, 0.000000)" sketch:type="MSShapeGroup">
                    <path d="M50.6640766,68.9877219 L50.2312529,71.602795 L50.2312529,71.602795 L38.7209335,71.6541039 C37.9772364,71.6541039 36.1157693,71.6190777 35.6087031,71.6015646 C35.5410942,71.6365908 35.5072898,71.7066433 35.5072898,71.7766958 C35.8284318,72.4071683 36.2166381,74.0980623 36.3518558,74.5358903 C36.4025624,74.623456 36.6391933,74.623456 36.6899,74.5358903 L36.7913132,74.3607591 C37.0955529,73.8353654 37.0287375,72.9275463 38.643112,73.0169651 L50.0754457,73.0169652 C50.0754457,73.0169652 50.0773061,73.0108676 50.0806218,73 L50.8783633,73 C51.0186973,73 51.1529675,72.9677372 51.2228278,72.9179782 C51.2926881,72.8682191 51.3374939,72.7555066 51.3524584,72.6623186 C52.1430415,67.7391668 54,57 54,57 L52.6481776,57 L52.6392492,57.0539444 C52.5617166,57.0193028 52.4757565,57 52.3855868,57 C52.3855868,57 46.6505677,58.1106471 43.5878218,58.4532877 C40.3935099,58.8106471 33.6144132,59.0999999 33.6144132,59.0999999 C33.2750822,59.0999999 33,59.3667784 33,59.7005229 L34.5384615,68.3994769 C34.5384615,68.7311366 34.8163506,68.9999999 35.1528748,68.9999999 L50.5394329,69 C50.5821385,69 50.6238265,68.9957745 50.6640766,68.9877219 L50.6640766,68.9877219 Z M53.5694945,55.9585148 C53.2732452,56.2756282 53.0806026,56.6390035 53.0000023,56.9961213 C52.9986176,57.0022563 53.629122,56.9997657 54.0037912,56.997745 C54.162096,56.9968912 54.2747286,56.9961213 54.2747286,56.9961213 C54.3821447,56.4736755 55.0215117,56.2442631 55.9926472,56.2442631 C55.9945311,56.2442631 55.9960527,56.1983758 55.9972124,56.1242257 C56.2925484,56.1813238 56.5927754,56.3007668 56.7888802,56.5499314 L56.9086161,56.7020642 C56.968484,56.7781306 57.2478678,56.7781306 57.3077358,56.7020642 C57.4673836,56.3217323 57.8410979,55.4589249 58.2202616,54.9112468 C58.2202616,54.8503937 58.1803496,54.7895406 58.1005257,54.759114 C57.5018461,54.7743273 56.8844158,54.8047539 56.0063525,54.8047539 C56.0063525,54.8047539 55.2069078,54.8047538 54.2916157,55.2423651 C53.3763236,55.6799764 53.2202616,55.9305365 53.2202616,55.9305365 C53.2202616,55.9305365 53.3602756,55.9420493 53.5694945,55.9585148 L53.5694945,55.9585148 Z M49,78 C50.1045695,78 51,77.1045695 51,76 C51,74.8954305 50.1045695,74 49,74 C47.8954305,74 47,74.8954305 47,76 C47,77.1045695 47.8954305,78 49,78 Z M40,78 C41.1045695,78 42,77.1045695 42,76 C42,74.8954305 41.1045695,74 40,74 C38.8954305,74 38,74.8954305 38,76 C38,77.1045695 38.8954305,78 40,78 Z" id="icon-cart-active" transform="translate(46.000000, 66.000000) scale(-1, 1) translate(-46.000000, -66.000000) "></path>
                </g>
            </g>
        </g>
    </g>
</svg>