<?xml version="1.0" encoding="UTF-8"?>
<svg width="820px" height="90px" viewBox="0 0 820 90" version="1.1" xmlns="http://www.w3.org/2000/svg" xmlns:xlink="http://www.w3.org/1999/xlink">
    <!-- Generator: Sketch 52.2 (67145) - http://www.bohemiancoding.com/sketch -->
    <title>Group</title>
    <desc>Created with Sketch.</desc>
    <g id="Page-1" stroke="none" stroke-width="1" fill="none" fill-rule="evenodd">
        <g id="Final-Lo-Wordmark" transform="translate(-202.000000, -351.000000)" fill="#1A1919">
            <g id="Group" transform="translate(202.000000, 351.000000)">
                <polygon id="Fill-1" points="61.6802 88.043 0.1272 88.043 0.1272 1.957 14.0242 1.957 14.0242 74.886 61.6802 74.886"></polygon>
                <path d="M112.3901,44.9985 C112.3901,63.5685 125.3031,76.2995 142.8891,76.2995 C160.4751,76.2995 173.3891,63.5685 173.3891,44.9985 C173.3891,26.4285 160.4751,13.7005 142.8891,13.7005 C125.3031,13.7005 112.3901,26.4285 112.3901,44.9985 M187.9621,44.9985 C187.9621,70.7025 169.3291,89.6425 142.8891,89.6425 C116.4481,89.6425 97.8161,70.7025 97.8161,44.9985 C97.8161,19.2975 116.4481,0.3575 142.8891,0.3575 C169.3291,0.3575 187.9621,19.2975 187.9621,44.9985" id="Fill-2"></path>
                <path d="M270.2197,35.0391 C276.5527,30.4891 281.5337,26.1841 281.5337,21.2041 C281.5337,15.7291 277.8447,12.5931 271.5717,12.5931 C265.2997,12.5931 261.6717,16.0361 261.6717,21.8191 C261.6717,25.9981 263.4547,28.4601 270.2197,35.0391 Z M287.1297,69.3511 L268.1897,51.2731 C262.4097,55.8831 257.9827,60.6181 257.9827,66.4601 C257.9827,73.0391 263.2097,77.4671 270.8347,77.4671 C277.6597,77.4671 282.3947,74.7601 287.1297,69.3511 Z M306.7437,88.0431 L296.0447,77.8371 C289.8347,84.5381 281.7177,89.5801 270.0347,89.5801 C253.9247,89.5801 244.0867,81.2171 244.0867,66.8901 C244.0867,56.5601 251.2797,49.1191 259.3967,42.9101 C251.5257,35.0991 247.7757,29.5641 247.7757,21.0191 C247.7757,9.3351 257.3067,0.4201 271.5717,0.4201 C285.6527,0.4201 295.2467,8.5361 295.2467,20.5891 C295.2467,30.2411 287.4367,37.1271 278.9517,43.4021 L294.8767,58.7111 L306.7437,40.3261 L317.1987,46.8461 L306.3147,63.8791 C305.5757,65.1081 304.7767,66.2741 303.9777,67.5041 L325.3157,88.0431 L306.7437,88.0431 Z" id="Fill-4"></path>
                <path d="M434.7998,21.019 C427.4808,16.344 419.3648,13.641 410.6328,13.641 C399.1338,13.641 391.2638,18.62 391.2638,26.491 C391.2638,33.625 397.9668,36.391 409.1578,37.99 L415.1218,38.79 C429.0798,40.696 442.8558,46.476 442.8558,62.462 C442.8558,79.987 426.9878,89.58 408.3588,89.58 C396.6758,89.58 382.6558,85.707 373.7388,78.021 L381.3028,66.952 C387.2058,72.364 398.3348,76.422 408.2978,76.422 C419.5498,76.422 428.4028,71.624 428.4028,63.694 C428.4028,56.93 421.6388,53.794 409.0338,52.073 L402.3328,51.147 C389.5418,49.366 376.8138,43.339 376.8138,27.353 C376.8138,10.072 392.1248,0.479 410.7578,0.479 C423.3008,0.479 433.1998,3.985 441.8698,9.765 L434.7998,21.019 Z" id="Fill-6"></path>
                <path d="M501.9297,44.9985 C501.9297,63.5685 514.8427,76.2995 532.4287,76.2995 C550.0137,76.2995 562.9267,63.5685 562.9267,44.9985 C562.9267,26.4285 550.0137,13.7005 532.4287,13.7005 C514.8427,13.7005 501.9297,26.4285 501.9297,44.9985 M577.5017,44.9985 C577.5017,70.7025 558.8687,89.6425 532.4287,89.6425 C505.9877,89.6425 487.3547,70.7025 487.3547,44.9985 C487.3547,19.2975 505.9877,0.3575 532.4287,0.3575 C558.8687,0.3575 577.5017,19.2975 577.5017,44.9985" id="Fill-8"></path>
                <polygon id="Fill-10" points="701.2021 88.043 688.6591 88.043 640.6351 25.754 640.5721 88.043 626.6771 88.043 626.6771 1.957 639.2211 1.957 687.3051 64.246 687.3051 1.957 701.2021 1.957"></polygon>
                <path d="M811.4375,21.019 C804.1215,16.344 796.0025,13.641 787.2725,13.641 C775.7735,13.641 767.9035,18.62 767.9035,26.491 C767.9035,33.625 774.6045,36.391 785.7955,37.99 L791.7595,38.79 C805.7205,40.696 819.4935,46.476 819.4935,62.462 C819.4935,79.987 803.6285,89.58 784.9965,89.58 C773.3155,89.58 759.2945,85.707 750.3765,78.021 L757.9405,66.952 C763.8455,72.364 774.9745,76.422 784.9365,76.422 C796.1875,76.422 805.0425,71.624 805.0425,63.694 C805.0425,56.93 798.2795,53.794 785.6735,52.073 L778.9725,51.147 C766.1815,49.366 753.4535,43.339 753.4535,27.353 C753.4535,10.072 768.7625,0.479 787.3955,0.479 C799.9385,0.479 809.8375,3.985 818.5085,9.765 L811.4375,21.019 Z" id="Fill-12"></path>
            </g>
        </g>
    </g>
</svg>