<?xml version="1.0" encoding="UTF-8"?>
<svg width="60px" height="34px" viewBox="0 0 60 34" version="1.1" xmlns="http://www.w3.org/2000/svg" xmlns:xlink="http://www.w3.org/1999/xlink">
    <!-- Generator: Sketch 48.2 (47327) - http://www.bohemiancoding.com/sketch -->
    <title>L&amp;S-logo</title>
    <desc>Created with Sketch.</desc>
    <defs></defs>
    <g id="05-3-Footer-desktop-small-option1" stroke="none" stroke-width="1" fill="none" fill-rule="evenodd" transform="translate(-241.000000, -898.000000)">
        <g id="Footer" transform="translate(0.000000, 630.000000)" fill="#ffffff" fill-rule="nonzero">
            <g id="L&amp;S-logo">
                <g transform="translate(241.000000, 268.000000)">
                    <path d="M60,23.7233974 C60,17.3939506 54.644873,14.881744 49.843792,12.8041851 C46.9801789,11.548218 43.7022686,10.2430482 43.7022686,6.42553543 C43.7022686,3.28554974 46.1495006,1.30435207 49.1048035,1.30435207 C53.5819746,1.30435207 55.7532255,4.92832462 56.8144307,8.93896872 L57.8761569,8.93896872 L57.6457602,0.579394008 L57.1387313,0.579394008 L56.0755725,2.46463934 C53.9982255,0.9180894 51.643074,0 49.1046732,0 C44.0712419,0 39.9626533,3.1897337 39.9626533,8.69799751 C39.9626533,14.2058524 44.4411269,16.5239737 48.642317,18.2151336 C52.0130892,19.6173461 55.660624,21.3560733 55.660624,25.7527075 C55.660624,29.6665815 52.659867,32.0223204 49.0575259,32.0223204 C44.4829343,32.0223204 42.1655528,29.8988298 40.4385546,27.828222 L40.7088051,27.3878498 L42.2972267,24.5347671 C42.5966512,23.9064428 43.7060456,21.7118057 44.5449291,21.7118057 C44.9654779,21.7118057 44.8448746,22.3701151 44.8448746,22.6519751 C44.8448746,23.4985091 45.3239017,24.1579088 46.1937826,24.1579088 C47.0631426,24.1579088 47.7526394,23.3102844 47.7526394,22.432266 C47.7526394,21.2091463 46.7032861,20.3312642 45.5950639,20.3312642 C43.4058397,20.3312642 42.2973569,22.6829142 41.3981717,24.4400414 L39.8402266,27.1688223 L35.5533378,21.8369254 C37.4411839,20.4875957 39.568804,18.3542917 39.568804,15.814417 C39.568804,13.3041185 37.8616025,11.7055036 35.4934269,11.7055036 C32.7362209,11.7055036 30.8474631,14.119986 30.8474631,16.8807964 C30.8474631,19.0759787 31.747039,21.1457687 32.9460394,22.9033048 C30.5781244,24.3457246 28,26.165139 28,29.3650949 C28,31.7491834 30.2486142,33.1906491 32.345888,33.1906491 C34.8337553,33.1906491 36.9324618,32.0306345 38.5509691,30.1482513 C45.7565629,37.6044566 60,33.5747311 60,23.7233974 M32.646094,15.5013453 C32.646094,13.932988 33.455543,12.5519013 35.1643074,12.5519013 C37.0219375,12.5519013 37.6504815,14.4968442 37.6504815,16.0977763 C37.6504815,18.1345827 36.6924273,20.0495405 35.0736595,21.1779346 C33.9638743,19.6097136 32.646094,17.5714079 32.646094,15.5013453 M34.0546525,31.7493197 C32.0166383,31.7493197 30.6972951,29.9288149 30.6972951,27.9213121 C30.6972951,25.7886897 31.9865526,24.8474299 33.3352001,23.562023 L37.8313865,29.3956252 L37.9812941,29.5523655 C36.992503,30.6815773 35.5532076,31.7493197 34.0546525,31.7493197" id="Shape"></path>
                    <path d="M24.7579185,25.4072572 C24.3107523,28.1261901 24.0127817,29.9718651 21.5274969,31.4763723 C20.0651275,32.415645 17.8234073,32.628892 16.0636282,32.6765541 C10.7642392,32.5401418 9.89136074,31.2773692 9.89136074,25.4566998 L9.89136074,10.2246769 C9.89136074,8.67141185 9.89136074,5.07894715 10.3894273,3.76796461 C11.0357079,2.11718393 13.072845,2.11718393 14.6647791,2.11718393 L14.6647791,1 C12.1287341,1.04889477 9.64344923,1.14654736 7.10866622,1.19489429 C4.72293861,1.14654736 2.38530695,1.04889477 0,1 L0,2.11718393 C1.59123292,2.11718393 3.62907114,2.11718393 4.27465066,3.76796461 C4.77229656,5.07894715 4.77229656,8.67141185 4.77229656,10.2246769 L4.77229656,24.7761449 C4.77229656,26.3295469 4.77229656,29.9222855 4.27465066,31.233542 C3.62907114,32.8845965 1.59123292,32.8845965 0,32.8845965 L0,34 C4.66376516,33.9731558 8.87685861,33.9016626 12.8829852,33.9016626 C16.889252,33.9016626 24.6922948,34 25.5543763,34 L26,25.4072572 L24.7579185,25.4072572 Z" id="Shape"></path>
                </g>
            </g>
        </g>
    </g>
</svg>