<?xml version="1.0" encoding="UTF-8"?>
<svg width="20px" height="20px" viewBox="0 0 20 20" version="1.1" xmlns="http://www.w3.org/2000/svg" xmlns:xlink="http://www.w3.org/1999/xlink">
    <!-- Generator: Sketch 55.2 (78181) - https://sketchapp.com -->
    <title>Ruler</title>
    <desc>Created with Sketch.</desc>
    <g id="Page-1" stroke="none" stroke-width="1" fill="none" fill-rule="evenodd">
        <g id="2" transform="translate(-996.000000, -662.000000)" fill="#000000" fill-rule="nonzero">
            <g id="Product-Information" transform="translate(993.000000, 251.000000)">
                <g id="Select-Size" transform="translate(3.000000, 319.000000)">
                    <g id="Size-&amp;-Fit" transform="translate(0.000000, 92.000000)">
                        <g id="Ruler-2">
                            <path d="M4.45421831,20 C4.3502599,20 4.24630148,19.960016 4.17433027,19.880048 L0.119952019,15.8256697 C-0.0399840064,15.6657337 -0.0399840064,15.4178329 0.119952019,15.2578968 L15.2578968,0.119952019 C15.4178329,-0.0399840064 15.6657337,-0.0399840064 15.8256697,0.119952019 L19.880048,4.17433027 C20.039984,4.33426629 20.039984,4.58216713 19.880048,4.74210316 L4.74210316,19.880048 C4.66213515,19.960016 4.55817673,20 4.45421831,20 Z M0.967612955,15.5457817 L4.45421831,19.032387 L19.0243902,4.46221511 L15.5377849,0.975609756 L14.2902839,2.22311076 L16.7852859,4.71811275 L16.217513,5.28588565 L13.722511,2.79088365 L12.3630548,4.15033986 L13.9704118,5.76569372 L13.4026389,6.33346661 L11.7872851,4.72610956 L10.4278289,6.08556577 L12.0351859,7.70091963 L11.467413,8.26869252 L9.85205918,6.66133547 L8.49260296,8.02079168 L10.987605,10.5157937 L10.4198321,11.0835666 L7.92483007,8.58856457 L6.56537385,9.94802079 L8.17273091,11.5633747 L7.60495802,12.1311475 L5.99760096,10.5157937 L4.63814474,11.8752499 L6.2455018,13.482607 L5.67772891,14.0503798 L4.07037185,12.4430228 L2.71091563,13.802479 L5.24590164,16.337465 L4.67812875,16.9052379 L2.14314274,14.3702519 L0.967612955,15.5457817 Z" id="Ruler"></path>
                        </g>
                    </g>
                </g>
            </g>
        </g>
    </g>
</svg>