<svg height="10" viewBox="0 0 13 10" width="13" xmlns="http://www.w3.org/2000/svg"><path d="m29.3816435 30c.8928863 0 1.6183565-.7319035 1.6183565-1.6327078v-6.7345844c0-.9008043-.7254702-1.6327078-1.6183565-1.6327078h-9.763287c-.8928863 0-1.6183565.7319035-1.6183565 1.6327078v6.7319035c0 .9008042.7254702 1.6327077 1.6183565 1.6327077h9.763287zm-9.7260834-7.7265416c-.1674162-.1447721-.1886754-.3967828-.0451758-.5656836s.3932952-.1903485.5607114-.0455764l4.3289043 3.7050938 4.3315617-3.7077748c.1674162-.1447721.4198692-.1233244.5607114.0455764.1434996.1689008.1222404.4235925-.0451758.5656837l-3.090556 2.6487935 3.1065004 2.9490617c.159444.152815.1674162.4075067.0159444.5683646-.079722.0831099-.1833606.1260054-.2896566.1260054-.0983238 0-.1966476-.0375335-.2737122-.1099196l-3.170278-3.0080429-.8849141.7587132c-.0744072.0643431-.1674162.0965147-.2577678.0965147-.093009 0-.1833606-.0321716-.2577678-.0965147l-.8875715-.7587132-3.170278 3.0107239c-.0770646.072386-.1753884.1099195-.2737122.1099195-.106296 0-.212592-.0428954-.2896566-.1260053-.1514718-.1608579-.1434996-.4155496.0159444-.5683646l3.1065004-2.9517427z" fill="#111" transform="translate(-18 -20)"/></svg>