<?xml version="1.0" encoding="UTF-8"?>
<svg width="14px" height="18px" viewBox="0 0 14 18" version="1.1" xmlns="http://www.w3.org/2000/svg" xmlns:xlink="http://www.w3.org/1999/xlink">
    <!-- Generator: Sketch 48.2 (47327) - http://www.bohemiancoding.com/sketch -->
    <title>XMLID_799_</title>
    <desc>Created with Sketch.</desc>
    <defs></defs>
    <g id="02-5-Stories-Detail-Page-option5" stroke="none" stroke-width="1" fill="none" fill-rule="evenodd" transform="translate(-1257.000000, -539.000000)">
        <g id="Pop-up" transform="translate(995.000000, 438.000000)" fill="#111111" fill-rule="nonzero">
            <g id="Share" transform="translate(64.000000, 50.000000)">
                <g id="Pinterest" transform="translate(180.000000, 35.000000)">
                    <path d="M30.1843341,17.8445348 C28.9582253,16.6550967 27.2614244,16 25.4065198,16 C22.5730606,16 20.8303568,17.1737052 19.8673714,18.158266 C18.6805587,19.3716229 18,20.9827171 18,22.5785428 C18,24.5822074 18.8293556,26.1200938 20.2182217,26.6922293 C20.3114638,26.7308361 20.4052805,26.7502847 20.4972588,26.7502847 C20.7902564,26.7502847 21.0224139,26.5565539 21.1028446,26.2457836 C21.1497242,26.0674956 21.2583632,25.6276682 21.3055875,25.4367242 C21.4067004,25.0596546 21.3250057,24.8782897 21.1045107,24.6157053 C20.7028167,24.1354133 20.5157579,23.5674578 20.5157579,22.828297 C20.5157579,20.6327595 22.1335642,18.2993405 25.1320213,18.2993405 C27.5111618,18.2993405 28.9890762,19.6657894 28.9890762,21.8653908 C28.9890762,23.2534363 28.6932061,24.5388981 28.155814,25.4851423 C27.7823857,26.1426192 27.1257263,26.9263666 26.1176422,26.9263666 C25.6817078,26.9263666 25.2901251,26.745408 25.0430304,26.4299352 C24.809609,26.1317048 24.7326828,25.7464495 24.8265569,25.3449386 C24.9326106,24.8912941 25.0772135,24.4180849 25.2171629,23.9606086 C25.4724155,23.1250759 25.7137077,22.3359295 25.7137077,21.7063191 C25.7137077,20.6293922 25.0585421,19.9057903 24.0835495,19.9057903 C22.8444568,19.9057903 21.8737156,21.1775509 21.8737156,22.801069 C21.8737156,23.5972982 22.0831227,24.1928301 22.177916,24.4215101 C22.021823,25.0898434 21.0941121,29.0632101 20.9181412,29.8124725 C20.8163964,30.2498616 20.2034569,33.7044456 21.2179754,33.9799183 C22.357851,34.2894114 23.3767358,30.9248712 23.480434,30.5446667 C23.5644841,30.2354639 23.8585733,29.066287 24.0387955,28.3475617 C24.5890565,28.8831804 25.4750583,29.2452717 26.3371606,29.2452717 C27.9623781,29.2452717 29.4239766,28.506227 30.4527429,27.1643935 C31.4504859,25.8629085 32,24.0489108 32,22.0567993 C32,20.4994063 31.3381701,18.9640743 30.1843341,17.8445348 Z" id="XMLID_799_"></path>
                </g>
            </g>
        </g>
    </g>
</svg>