<?xml version="1.0" encoding="UTF-8"?>
<svg width="161px" height="77px" viewBox="0 0 161 77" version="1.1" xmlns="http://www.w3.org/2000/svg" xmlns:xlink="http://www.w3.org/1999/xlink">
    <!-- Generator: Sketch 52.6 (67491) - http://www.bohemiancoding.com/sketch -->
    <title>Group 18</title>
    <desc>Created with Sketch.</desc>
    <defs>
        <polygon id="path-1" points="0 0.342439024 160.64243 0.342439024 160.64243 76.0974032 0 76.0974032"></polygon>
    </defs>
    <g id="Page-1" stroke="none" stroke-width="1" fill="none" fill-rule="evenodd">
        <g id="Tiger" transform="translate(-67.000000, -55.000000)">
            <g id="Group-18" transform="translate(67.000000, 54.000000)">
                <g id="Group-3" transform="translate(0.000000, 1.560000)">
                    <mask id="mask-2" fill="white">
                        <use xlink:href="#path-1"></use>
                    </mask>
                    <g id="Clip-2"></g>
                    <path d="M158.939013,27.2427366 L155.438199,30.0963951 L152.704943,30.0963951 C152.31742,30.0944927 151.974827,30.3608341 151.881222,30.7432244 L151.319594,33.1783463 L148.904594,33.1783463 L146.283664,30.9524927 L148.342966,27.1476146 C148.571362,26.7328829 148.423466,26.2097122 148.01535,25.9776146 C147.607234,25.7455171 147.092408,25.8958098 146.864013,26.3105415 L144.99192,29.8300537 L144.299245,29.259322 C144.155094,29.1280537 143.969757,29.0538585 143.775059,29.0500537 L141.154129,29.0500537 L144.430292,19.9944439 C144.591292,19.5511756 144.370385,19.0584439 143.932315,18.8948341 L143.924827,18.8910293 C143.49799,18.729322 143.02435,18.9500049 142.865222,19.383761 C142.86335,19.3913707 142.859606,19.397078 142.857734,19.4046878 L139.581571,28.4222488 L137.110408,26.1773707 C136.960641,26.0289805 136.758455,25.9452732 136.54878,25.949078 L132.242966,25.949078 L132.242966,21.3261512 L135.294478,17.7115171 C135.599629,17.3481512 135.558443,16.8040537 135.200873,16.4939561 C134.845176,16.1838585 134.307885,16.2257122 134.002734,16.589078 L130.764013,20.3939561 C130.631094,20.5461512 130.558083,20.7421024 130.558083,20.9456634 L130.558083,26.4246878 L116.311455,42.3481024 C116.12799,42.5535659 116.051234,42.8370293 116.105524,43.109078 L119.194478,56.6354195 L117.322385,62.3427366 L107.550059,70.8846878 L105.191222,70.8846878 L105.191222,67.3271268 L110.901106,60.3832244 C111.112652,60.0883463 111.112652,59.6888341 110.901106,59.3939561 L108.392501,55.1134683 L111.706106,53.686639 C112.134815,53.5021024 112.335129,53.001761 112.155408,52.5642 C111.973815,52.1285415 111.479583,51.923078 111.050873,52.1076146 L107.493897,53.6295659 L104.798083,49.1207854 L109.103897,47.5798098 C109.534478,47.4314195 109.762873,46.9539073 109.61685,46.5163463 C109.613106,46.5087366 109.611234,46.5030293 109.609362,46.4954195 C109.457722,46.0483463 108.980338,45.8105415 108.542269,45.9627366 L103.918199,47.7320049 L99.3502919,40.1222488 L102.776222,25.1881024 C102.888548,24.7410293 102.62271,24.2844439 102.182769,24.1702976 C102.167792,24.1664927 102.152815,24.1626878 102.13971,24.1607854 C101.690408,24.0542488 101.239234,24.3339073 101.12878,24.7885902 L97.6092453,40.0081024 C97.5250012,40.2154683 97.5250012,40.4475659 97.6092453,40.6549317 L99.032036,42.766639 L83.9242453,42.766639 L83.21285,32.5124927 L89.1848267,13.7163951 C89.33085,13.2674195 89.0912221,12.7822976 88.6494081,12.6339073 C88.647536,12.6339073 88.6437919,12.6320049 88.6419198,12.6320049 C88.2113384,12.4855171 87.7451872,12.723322 87.601036,13.1627854 C87.599164,13.1703951 87.5972919,13.1761024 87.5935477,13.1837122 L81.5654081,32.2081024 C81.5466872,32.3089317 81.5466872,32.4116634 81.5654081,32.5124927 L82.1831988,42.766639 L80.6855244,42.766639 L74.7884314,38.961761 L74.4514547,34.8144439 L74.4514547,34.5481024 L70.0333151,23.7612732 C69.8929081,23.3103951 69.4192686,23.0611756 68.9755826,23.2019561 C68.5318965,23.3465415 68.2866523,23.8278585 68.4270593,24.2768341 C68.440164,24.3224927 68.4588849,24.3662488 68.4794779,24.4081024 L72.8227337,35.1188341 L73.3469198,41.6442 L65.3343616,36.6788341 L59.4185477,25.5876146 C59.1957686,25.1747854 58.6903035,25.0149805 58.2765709,25.2261512 C57.8684547,25.4525415 57.7186872,25.9719073 57.9395942,26.386639 L63.9490128,37.7061512 C64.0238965,37.8355171 64.1249895,37.9458585 64.2485477,38.0295659 L73.272036,43.7368829 L73.4030826,43.7368829 L74.0021523,51.099322 L68.3858733,50.8329805 C67.9272105,50.831078 67.5453035,51.1868341 67.5059895,51.6510293 C67.4835244,52.1171268 67.8336058,52.5147366 68.2922686,52.5451756 L74.1893616,52.8115171 L74.6948267,58.6710293 L71.3625012,58.1573707 C70.9057105,58.1002976 70.4844895,58.4180049 70.4077337,58.8802976 C70.3403384,59.3463951 70.6585942,59.7820537 71.1191291,59.8505415 L74.9756407,60.459322 L80.4234314,68.2783463 C80.5526058,68.4685902 80.758536,68.5960537 80.9850593,68.6207854 L88.1738965,69.6481024 L89.5218035,71.5505415 L79.99285,74.3661512 L66.5137802,61.6768829 L62.7695942,49.1207854 C62.724664,48.9666878 62.6422919,48.8297122 62.5262221,48.7212732 L49.945757,37.1924927 L42.3076174,18.9671268 C42.1204081,18.539078 41.6317919,18.3374195 41.2030826,18.5105415 C40.7743733,18.6931756 40.5721872,19.1954195 40.7537802,19.6329805 L48.4855244,37.9724927 C48.5435593,38.0809317 48.6128267,38.1836634 48.6914547,38.2768829 L49.2343616,38.7715171 L43.8052919,44.6120049 L39.1250593,39.0188341 C38.7880826,38.6992244 38.2657686,38.6992244 37.9269198,39.0188341 C37.5955593,39.351761 37.5936872,39.8939561 37.9194314,40.2306878 C37.9213035,40.2325902 37.9250477,40.2344927 37.9269198,40.2363951 L42.8318035,45.9437122 L28.6038965,61.1632244 C28.4560012,61.3249317 28.3680128,61.5322976 28.3605244,61.7529805 L28.3605244,67.4602976 C28.3605244,67.8464927 28.613257,68.1889317 28.9783151,68.2973707 L34.7443616,70.0095659 L34.388664,72.3305415 L23.8487802,72.3305415 L23.8487802,53.7246878 L28.7162221,49.2539561 C28.8116988,49.1474195 28.8884547,49.0256634 28.9408733,48.8924927 L30.5134314,44.4407854 L33.9580826,47.7320049 C34.1172105,47.8765902 34.3250128,47.9583951 34.5384314,47.9602976 C34.7743151,47.9602976 35.0008384,47.8556634 35.1562221,47.6749317 C35.4819663,47.3534195 35.4894547,46.822639 35.1711988,46.4916146 C35.1655826,46.4859073 35.1618384,46.4821024 35.1562221,46.4763951 L31.2061058,42.6715171 L38.413664,22.3534683 C38.5447105,22.0262488 38.45485,21.6495659 38.1890128,21.4212732 C37.9213035,21.1948829 37.5468849,21.1492244 37.2342453,21.3071268 L29.7458733,25.3402976 C19.2995942,31.4661512 11.024943,31.5042 5.01552442,25.3402976 C1.42485,21.6781024 0.661036047,16.0411756 3.1434314,11.5285902 C5.23268721,7.90254146 9.56658256,6.30639512 13.458664,7.7237122 C13.9210709,7.83215122 14.2880012,8.18980976 14.4134314,8.65590732 C14.5444779,9.23805366 14.3759895,9.84683415 13.9641291,10.2729805 C13.6271523,10.6059073 13.1347919,10.7162488 12.6911058,10.5583463 C10.1038733,9.60141951 7.20961744,10.5963951 5.72691977,12.9554195 C3.90911744,16.043078 4.20303605,19.9602 6.45703605,22.7339561 C9.45238488,26.386639 14.3198267,26.8622488 16.9033151,26.8242 C21.1847919,26.6035171 25.3239895,25.1881024 28.8659895,22.7339561 C29.2216872,22.4676146 37.32785,16.2846878 39.0314547,14.5154195 L45.5837802,8.71298049 L56.8163384,4.26127317 L60.1861058,20.0134683 C60.2722221,20.4072732 60.612943,20.6907366 61.0098267,20.6983463 L61.1783151,20.6983463 C61.6313616,20.6032244 61.9252802,20.1523463 61.8335477,19.6900537 L58.4076174,3.67151707 L60.5979663,2.79639512 L70.9506407,2.79639512 L70.2954081,9.55005366 C70.25235,10.0199561 70.5930709,10.4384927 71.05735,10.4822488 L71.0629663,10.4822488 C71.4935477,10.4841512 71.8567337,10.1569317 71.9054081,9.72127317 L72.5606407,2.79639512 L86.2643616,2.79639512 L92.4797105,3.97590732 L92.348664,8.6939561 C92.348664,9.16385854 92.71185,9.54815122 93.1723849,9.56907805 C93.6273035,9.57859024 94.0035942,9.21332195 94.0148267,8.75102927 L94.0148267,8.73200488 L94.1458733,4.28029756 L102.401803,5.85932195 L102.12099,17.2739561 C102.111629,17.745761 102.480431,18.1376634 102.94471,18.149078 C103.403373,18.149078 103.77592,17.7762 103.787152,17.3120049 L104.067966,6.20176098 L107.119478,6.77249268 C107.31792,6.80673659 107.521978,6.77249268 107.699827,6.67737073 L114.233431,2.87249268 L133.478548,4.5846878 L139.394362,6.71541951 L138.701687,7.62859024 C138.591234,7.7826878 138.533199,7.97102927 138.533199,8.16127317 L138.533199,14.249078 C138.533199,14.7208829 138.911362,15.1051756 139.375641,15.1051756 C139.841792,15.1051756 140.218083,14.7208829 140.218083,14.249078 L140.218083,8.38956585 L143.119827,4.5846878 L144.523897,4.5846878 L147.20099,8.38956585 L147.20099,10.9578585 L144.954478,13.2407854 C144.62499,13.5737122 144.621245,14.1159073 144.94699,14.4507366 C144.948862,14.4545415 144.950734,14.4564439 144.954478,14.4583463 C145.282094,14.7855659 145.80628,14.7855659 146.133897,14.4583463 L148.642501,11.909078 C148.797885,11.753078 148.885873,11.5419073 148.885873,11.319322 L148.885873,8.96029756 L149.952966,8.96029756 L152.85471,12.2705415 L148.342966,15.8661512 C148.138908,16.0335659 148.022838,16.2846878 148.02471,16.5510293 L148.02471,19.5949317 C148.02471,19.8042 148.097722,20.0058585 148.230641,20.1656634 L151.450641,23.799322 C151.613513,23.9819561 151.845652,24.0846878 152.087152,24.0846878 C152.29121,24.0827854 152.491524,24.0085902 152.64878,23.8754195 C152.97078,23.5367854 152.97078,22.9983951 152.64878,22.6578585 L149.747036,19.1954195 L149.747036,16.9695659 L154.015408,13.4881024 L155.887501,15.5998098 L158.939013,24.3700537 L158.939013,27.2427366 Z M119.43785,68.2212732 C119.552048,68.4857122 119.791676,68.6740537 120.074362,68.7159073 L125.578315,69.6100537 L126.701571,72.3495659 L115.01971,72.3495659 L113.428431,68.1261512 L117.752966,64.3212732 L119.43785,68.2212732 Z M147.800059,2.07346829 L147.987269,2.07346829 L150.065292,4.64176098 L150.065292,7.26712683 L148.511455,7.26712683 L146.096455,3.78566341 L147.800059,2.07346829 Z M160.586455,23.9324927 L157.403897,14.9149317 C157.364583,14.8160049 157.30842,14.7246878 157.235408,14.6485902 L151.750176,8.38956585 L151.750176,4.31834634 C151.75392,4.12429756 151.686524,3.93405366 151.562966,3.78566341 L149.035641,0.665663415 C148.874641,0.464004878 148.635013,0.346053659 148.380408,0.34224878 L147.444362,0.34224878 C147.221583,0.346053659 147.008164,0.435468293 146.845292,0.589565854 L144.654943,2.8344439 L142.78285,2.8344439 C142.518885,2.84015122 142.271769,2.9657122 142.108897,3.17688293 L140.555059,5.23151707 L134.021455,2.89151707 L133.815524,2.89151707 L114.177269,1.16029756 C114.00878,1.14317561 113.840292,1.17741951 113.690524,1.25541951 L107.194362,5.06029756 L86.4515709,1.0842 L60.4294779,1.0842 C60.3321291,1.05756585 60.2272919,1.05756585 60.129943,1.0842 L44.7413384,7.21005366 C44.6477337,7.23478537 44.5616174,7.28805366 44.4979663,7.36224878 L37.7771523,13.3168829 C36.1297105,15.029078 27.8550593,21.3451756 27.8176174,21.3642 C24.5526872,23.6338098 20.7392337,24.9483951 16.7909895,25.169078 C14.525757,25.169078 10.2012221,24.8076146 7.65517558,21.6876146 C5.89540814,19.4845902 5.65016395,16.4083463 7.03738488,13.9446878 C8.1344314,12.2248829 10.2686174,11.5247854 12.1481988,12.2705415 C13.1834663,12.6129805 14.3198267,12.3485415 15.1061058,11.5856634 C15.954164,10.7333707 16.296757,9.48917561 16.0047105,8.31346829 C15.733257,7.25000488 14.9170244,6.42054146 13.8705244,6.1446878 C9.24271047,4.50478537 4.12253605,6.44717561 1.68319884,10.7676146 C-1.18297558,15.9460537 -0.32742907,22.425761 3.77994302,26.6529805 C10.3697105,33.3495659 19.3744779,33.406639 30.5134314,26.8432244 L36.1297105,23.8754195 L27.4244779,48.1124927 L22.4259895,52.7163951 C22.2575012,52.8876146 22.1620244,53.1216146 22.1638965,53.3632244 L22.1638965,73.2056634 C22.1638965,73.6793707 22.5420593,74.061761 23.0063384,74.061761 L35.0064547,74.061761 C35.4201872,74.0655659 35.7740128,73.7573707 35.8301756,73.3388341 L36.4105244,69.5339561 C36.4666872,69.1097122 36.2120826,68.7082976 35.8114547,68.5827366 L29.9330826,66.8324927 L29.9330826,62.1144439 L50.5261058,39.9129805 L61.2719198,49.7676146 L64.9225012,62.3046878 C64.9749198,62.453078 65.0572919,62.5919561 65.1658733,62.7042 L79.1691291,75.869078 C79.3188965,76.0174683 79.5210826,76.0992732 79.730757,76.0973707 L79.9741291,76.0973707 L91.1130826,72.8061512 C91.384536,72.7338585 91.6016988,72.5245902 91.6934314,72.2544439 C91.7739314,71.9881024 91.7271291,71.6989317 91.5623849,71.4744439 L89.2784314,68.3734683 C89.1417686,68.1908341 88.9395826,68.0671756 88.7168035,68.0310293 L81.5466872,67.0227366 L76.5669198,59.6412732 L75.0505244,41.1305415 L80.0864547,44.3456634 C80.2193733,44.4369805 80.3766291,44.482639 80.535757,44.4788341 L100.042966,44.4788341 L109.234943,59.6983463 L103.618664,66.3949317 C103.48949,66.5490293 103.416478,66.743078 103.412734,66.946639 L103.412734,71.7978585 C103.412734,72.2696634 103.789024,72.6539561 104.255176,72.6539561 L107.793431,72.6539561 C108.010594,72.6691756 108.224013,72.6006878 108.392501,72.4637122 L112.136687,69.3246878 L113.727966,73.5100537 C113.860885,73.8353707 114.167908,74.0503463 114.514245,74.061761 L128.049478,74.061761 C128.332164,74.0560537 128.596129,73.9152732 128.760873,73.6812732 C128.890048,73.4244439 128.890048,73.1200537 128.760873,72.8632244 L126.88878,68.506639 C126.770838,68.2402976 126.533083,68.0481512 126.252269,67.9929805 L120.729594,67.0988341 L118.857501,62.8944439 L120.729594,57.0159073 C120.767036,56.8599073 120.767036,56.6962976 120.729594,56.5402976 L117.678083,43.2232244 L131.606455,27.6612732 L136.062036,27.6612732 L139.375641,30.6100537 C139.532897,30.7451268 139.731338,30.819322 139.937269,30.819322 L143.438083,30.819322 L148.062152,34.7383463 C148.219408,34.8562976 148.40849,34.9228829 148.605059,34.9285902 L151.974827,34.9285902 C152.367966,34.9304927 152.710559,34.6527366 152.798548,34.2627366 L153.360176,31.846639 L155.756455,31.846639 C155.945536,31.8409317 156.130873,31.7743463 156.280641,31.6563951 L160.324362,28.3651756 C160.52842,28.197761 160.64449,27.946639 160.642617,27.6802976 L160.642617,24.2559073 C160.646362,24.1455659 160.627641,24.0352244 160.586455,23.9324927 Z" id="Fill-1" fill="#000000" mask="url(#mask-2)"></path>
                </g>
                <path d="M154.090479,19.5572634 C153.759119,19.2395561 153.242421,19.2395561 152.91106,19.5572634 C152.755677,19.7284829 152.667688,19.9529707 152.667688,20.1850683 C152.677049,20.4095561 152.763165,20.6245317 152.91106,20.7938488 C153.075805,20.9441415 153.289223,21.0240439 153.508258,21.0221415 C153.725421,21.0278488 153.935095,20.9460439 154.090479,20.7938488 C154.176595,20.7120439 154.245863,20.616922 154.294537,20.5084829 C154.313258,20.4000439 154.313258,20.2916049 154.294537,20.1850683 C154.311386,19.945361 154.214037,19.7132634 154.034316,19.5572634 L154.090479,19.5572634 Z" id="Fill-4" fill="#000000"></path>
                <path d="M94.6131477,17.5404878 C94.1638453,17.4225366 93.7051826,17.6983902 93.5872407,18.1549756 C93.5853686,18.1587805 93.5853686,18.1644878 93.5834965,18.1682927 L89.5210547,34.6814634 C89.4162174,35.1380488 89.6914151,35.5965366 90.1388453,35.7087805 L90.3466477,35.7087805 C90.7266826,35.7030732 91.058043,35.4386341 91.1497756,35.0619512 L95.2871012,18.5868293 C95.3975547,18.1283415 95.1204849,17.6641463 94.6693105,17.5519024 C94.6524616,17.5480976 94.6318686,17.5423902 94.6131477,17.5404878" id="Fill-6" fill="#000000"></path>
                <path d="M82.7261058,10.5773707 C82.3198616,10.3681024 81.8256291,10.5317122 81.6178267,10.9445415 C81.6122105,10.9559561 81.6084663,10.9654683 81.60285,10.9768829 L77.5404081,19.5378585 C77.5273035,19.6329805 77.5273035,19.7300049 77.5404081,19.8232244 L76.7915709,27.2998098 C76.7372802,27.7697122 77.0686407,28.1958585 77.5310477,28.2510293 C77.5329198,28.2510293 77.536664,28.2510293 77.5404081,28.2510293 L77.6340128,28.2510293 C78.0720826,28.2529317 78.4371407,27.9142976 78.4764547,27.4710293 L79.2065709,20.146639 L83.1941291,11.7188341 C83.3869547,11.3002976 83.2091058,10.8018585 82.7953733,10.6078098 C82.7729081,10.5963951 82.750443,10.5849805 82.7261058,10.5773707" id="Fill-8" fill="#000000"></path>
                <path d="M51.3120105,14.5159902 C51.2109174,14.0536976 50.759743,13.7645268 50.3048244,13.8672585 C50.3048244,13.869161 50.3029523,13.869161 50.3010802,13.869161 C49.8555221,13.960478 49.5653477,14.3999415 49.6552081,14.8546244 C49.6589523,14.8679415 49.6608244,14.8812585 49.6645686,14.896478 L52.9594523,30.2681854 C53.053057,30.6543805 53.3919058,30.9283317 53.7831733,30.934039 L53.9703826,30.934039 C54.4159407,30.8408195 54.704243,30.3975512 54.6125105,29.9447707 C54.6106384,29.937161 54.6087663,29.9314537 54.6068942,29.9257463 L51.3120105,14.5159902 Z" id="Fill-10" fill="#000000"></path>
                <path d="M116.51701,9.77834634 C116.088301,9.60902927 115.605301,9.8202 115.431197,10.2539561 L108.392127,28.0037122 L106.126894,40.0651756 C106.046394,40.5312732 106.344057,40.9783463 106.80272,41.0734683 L106.969336,41.0734683 C107.37558,41.0715659 107.721917,40.7747854 107.793057,40.3695659 L110.003999,28.4602976 L116.928871,10.881761 C117.093615,10.461322 116.915766,9.98190732 116.51701,9.77834634" id="Fill-12" fill="#000000"></path>
                <path d="M117.378173,25.0174537 C116.921383,24.9603805 116.500162,25.2780878 116.423406,25.7403805 L115.227138,34.7769659 C115.169103,35.2430634 115.49672,35.6692098 115.955383,35.7281854 L116.067708,35.7281854 C116.485185,35.722478 116.837138,35.4066732 116.891429,34.9862341 L118.110162,25.9686732 C118.164452,25.5006732 117.836836,25.0764293 117.378173,25.0174537" id="Fill-14" fill="#000000"></path>
                <path d="M130.671157,10.5967756 L123.369994,15.0484829 C123.130366,15.1759463 122.97311,15.421361 122.958134,15.6953122 L122.359064,21.6499463 C122.304773,22.1084341 122.628645,22.5250683 123.07982,22.5783366 L123.107901,22.5821415 C123.540355,22.5745317 123.903541,22.2416049 123.948471,21.8021415 L124.511971,16.2660439 L131.511727,12.0616537 C131.914227,11.8238488 132.05089,11.300678 131.816878,10.8916537 C131.815006,10.8878488 131.813134,10.8840439 131.811262,10.8821415 C131.566017,10.4959463 131.066169,10.3722878 130.671157,10.5967756" id="Fill-16" fill="#000000"></path>
            </g>
        </g>
    </g>
</svg>