<?xml version="1.0" encoding="UTF-8"?>
<svg width="86px" height="25px" viewBox="0 0 86 25" version="1.1" xmlns="http://www.w3.org/2000/svg" xmlns:xlink="http://www.w3.org/1999/xlink">
    <!-- Generator: Sketch 52.6 (67491) - http://www.bohemiancoding.com/sketch -->
    <title>马 (Mǎ)</title>
    <desc>Created with Sketch.</desc>
    <g id="Page-1" stroke="none" stroke-width="1" fill="none" fill-rule="evenodd">
        <g id="Names" transform="translate(-141.000000, -640.000000)" fill="#000000">
            <g id="Answer-Copy-6" transform="translate(100.000000, 571.000000)">
                <path d="M41.79,86.468 L57.936,86.468 L57.936,87.872 L41.79,87.872 L41.79,86.468 Z M58.118,72.584 L43.818,72.584 L43.818,71.18 L59.704,71.18 L58.326,81.19 L63.578,81.19 C63.318,86.936 62.85,90.368 62.2,91.512 C61.524,92.682 60.172,93.28 58.092,93.28 L54.92,93.202 L54.53,91.85 C55.83,91.928 57,91.98 58.092,91.98 C59.496,91.98 60.458,91.564 60.952,90.758 C61.472,89.952 61.836,87.222 62.07,82.594 L45.664,82.594 L47.276,74.456 L48.706,74.612 L47.406,81.19 L56.844,81.19 L58.118,72.584 Z M79.958,69.698 L81.388,69.698 C80.348,71.388 79.516,73.182 78.918,75.106 C78.164,77.394 77.8,79.63 77.8,81.84 C77.8,84.024 78.164,86.286 78.918,88.574 C79.516,90.472 80.348,92.266 81.388,93.982 L79.958,93.982 C78.866,92.318 78.008,90.524 77.384,88.626 C76.63,86.338 76.266,84.076 76.266,81.84 C76.266,79.604 76.63,77.342 77.384,75.08 C78.008,73.156 78.866,71.362 79.958,69.698 Z M85.054,72.636 L87.16,72.636 L94.44,89.198 L94.518,89.198 L101.746,72.636 L103.852,72.636 L103.852,91.2 L102.266,91.2 L102.266,75.262 L102.188,75.262 L95.22,91.2 L93.686,91.2 L86.744,75.262 L86.64,75.262 L86.64,91.2 L85.054,91.2 L85.054,72.636 Z M109.364,72.584 L110.586,72.584 L112.952,75.054 L115.318,72.584 L116.488,72.584 L113.602,75.886 L112.328,75.886 L109.364,72.584 Z M113.082,77.394 C114.954,77.394 116.358,77.888 117.268,78.928 C118.048,79.786 118.464,80.982 118.464,82.542 L118.464,91.2 L116.982,91.2 L116.982,88.626 C116.436,89.406 115.708,90.082 114.798,90.628 C113.732,91.252 112.562,91.564 111.288,91.564 C109.988,91.564 108.922,91.226 108.142,90.576 C107.284,89.9 106.868,88.99 106.868,87.898 C106.868,86.338 107.492,85.194 108.766,84.466 C109.858,83.764 111.444,83.4 113.472,83.4 L116.904,83.348 L116.904,82.542 C116.904,79.994 115.604,78.72 113.004,78.72 C111.912,78.72 111.028,78.928 110.326,79.396 C109.546,79.89 109.052,80.592 108.844,81.528 L107.31,81.424 C107.57,80.072 108.246,79.032 109.338,78.356 C110.3,77.706 111.548,77.394 113.082,77.394 Z M116.904,84.57 L113.55,84.622 C110.144,84.648 108.454,85.74 108.454,87.872 C108.454,88.6 108.74,89.172 109.312,89.614 C109.884,90.056 110.664,90.29 111.6,90.29 C112.952,90.29 114.2,89.822 115.292,88.886 C116.358,88.002 116.904,87.014 116.904,85.974 L116.904,84.57 Z M121.87,69.698 L123.3,69.698 C124.366,71.362 125.224,73.156 125.874,75.08 C126.602,77.342 126.992,79.604 126.992,81.84 C126.992,84.076 126.602,86.338 125.874,88.626 C125.224,90.524 124.366,92.318 123.3,93.982 L121.87,93.982 C122.91,92.266 123.716,90.472 124.34,88.574 C125.068,86.286 125.458,84.024 125.458,81.84 C125.458,79.63 125.068,77.394 124.34,75.106 C123.716,73.182 122.91,71.388 121.87,69.698 Z" id="马-(Mǎ)"></path>
            </g>
        </g>
    </g>
</svg>