<?xml version="1.0" encoding="UTF-8"?>
<svg width="94px" height="25px" viewBox="0 0 94 25" version="1.1" xmlns="http://www.w3.org/2000/svg" xmlns:xlink="http://www.w3.org/1999/xlink">
    <!-- Generator: Sketch 52.6 (67491) - http://www.bohemiancoding.com/sketch -->
    <title>猪 (Zhū)</title>
    <desc>Created with Sketch.</desc>
    <g id="Page-1" stroke="none" stroke-width="1" fill="none" fill-rule="evenodd">
        <g id="Names" transform="translate(-458.000000, -986.000000)" fill="#000000">
            <g id="Answer-Copy-11" transform="translate(421.000000, 917.000000)">
                <path d="M47.146,73.182 L51.384,73.182 L51.384,70.062 L52.762,70.062 L52.762,73.182 L56.948,73.182 L56.948,74.456 L52.762,74.456 L52.762,78.2 L54.296,78.2 C56.168,76.276 57.78,74.066 59.08,71.518 L60.276,72.168 C59.08,74.456 57.702,76.484 56.194,78.2 L60.562,78.2 L60.562,79.526 L54.92,79.526 C53.828,80.566 52.658,81.476 51.462,82.308 L58.69,82.308 L58.69,93.67 L57.338,93.67 L57.338,92.448 L49.902,92.448 L49.902,93.722 L48.524,93.722 L48.524,83.998 C47.614,84.44 46.704,84.83 45.794,85.168 L45.014,83.998 C48.004,82.958 50.63,81.45 52.892,79.526 L45.794,79.526 L45.794,78.2 L51.384,78.2 L51.384,74.456 L47.146,74.456 L47.146,73.182 Z M49.902,87.976 L49.902,91.2 L57.338,91.2 L57.338,87.976 L49.902,87.976 Z M57.338,86.728 L57.338,83.582 L49.902,83.582 L49.902,86.728 L57.338,86.728 Z M44.858,70.53 L46.028,71.258 C44.988,72.974 43.896,74.352 42.804,75.444 C42.986,75.808 43.142,76.198 43.298,76.588 C44.026,78.616 44.442,81.476 44.52,85.22 C44.52,89.406 44,91.928 42.986,92.786 C42.414,93.228 41.582,93.462 40.438,93.462 C39.762,93.462 39.242,93.436 38.852,93.436 L38.436,92.11 C39.034,92.162 39.606,92.214 40.152,92.214 C41.088,92.214 41.738,92.032 42.076,91.72 C42.778,90.992 43.142,88.808 43.142,85.168 C43.116,83.92 43.064,82.802 42.986,81.814 C41.66,83.816 40.074,85.506 38.202,86.884 L37.396,85.662 C39.684,84.05 41.452,82.126 42.752,79.864 C42.596,78.85 42.362,77.966 42.102,77.212 C41.998,76.9 41.868,76.64 41.764,76.406 C40.724,77.29 39.554,78.122 38.254,78.902 L37.474,77.68 C38.852,76.978 40.074,76.146 41.114,75.158 C40.36,73.858 39.398,72.688 38.228,71.648 L39.346,70.79 C40.464,71.908 41.374,73.052 42.102,74.196 C43.142,73.104 44.052,71.882 44.858,70.53 Z M76.24,69.698 L77.67,69.698 C76.63,71.388 75.798,73.182 75.2,75.106 C74.446,77.394 74.082,79.63 74.082,81.84 C74.082,84.024 74.446,86.286 75.2,88.574 C75.798,90.472 76.63,92.266 77.67,93.982 L76.24,93.982 C75.148,92.318 74.29,90.524 73.666,88.626 C72.912,86.338 72.548,84.076 72.548,81.84 C72.548,79.604 72.912,77.342 73.666,75.08 C74.29,73.156 75.148,71.362 76.24,69.698 Z M80.868,72.636 L94.154,72.636 L94.154,74.014 L82.142,89.796 L94.778,89.796 L94.778,91.2 L80.088,91.2 L80.088,89.822 L92.126,74.04 L80.868,74.04 L80.868,72.636 Z M97.066,72.272 L98.652,72.272 L98.652,80.202 C99.12,79.292 99.744,78.59 100.524,78.096 C101.278,77.628 102.136,77.394 103.072,77.394 C104.606,77.394 105.802,77.836 106.66,78.746 C107.518,79.656 107.96,80.956 107.96,82.62 L107.96,91.2 L106.4,91.2 L106.4,82.828 C106.4,81.528 106.062,80.514 105.412,79.786 C104.736,79.084 103.826,78.746 102.63,78.746 C101.512,78.746 100.576,79.188 99.796,80.098 C99.016,80.982 98.652,82.1 98.652,83.426 L98.652,91.2 L97.066,91.2 L97.066,72.272 Z M112.926,73.832 L120.492,73.832 L120.492,74.846 L112.926,74.846 L112.926,73.832 Z M111.236,77.758 L112.796,77.758 L112.796,85.974 C112.796,87.378 113.082,88.418 113.68,89.12 C114.304,89.848 115.266,90.212 116.566,90.212 C117.606,90.212 118.516,89.796 119.296,89.016 C120.076,88.236 120.518,87.196 120.622,85.922 L120.622,77.758 L122.182,77.758 L122.182,91.2 L120.622,91.2 L120.622,88.938 C119.582,90.68 118.074,91.564 116.15,91.564 C112.874,91.564 111.236,89.718 111.236,86.052 L111.236,77.758 Z M125.588,69.698 L127.018,69.698 C128.084,71.362 128.942,73.156 129.592,75.08 C130.32,77.342 130.71,79.604 130.71,81.84 C130.71,84.076 130.32,86.338 129.592,88.626 C128.942,90.524 128.084,92.318 127.018,93.982 L125.588,93.982 C126.628,92.266 127.434,90.472 128.058,88.574 C128.786,86.286 129.176,84.024 129.176,81.84 C129.176,79.63 128.786,77.394 128.058,75.106 C127.434,73.182 126.628,71.388 125.588,69.698 Z" id="猪-(Zhū)"></path>
            </g>
        </g>
    </g>
</svg>