<?xml version="1.0" encoding="UTF-8"?>
<svg width="110px" height="28px" viewBox="0 0 110 28" version="1.1" xmlns="http://www.w3.org/2000/svg" xmlns:xlink="http://www.w3.org/1999/xlink">
    <!-- Generator: Sketch 52.6 (67491) - http://www.bohemiancoding.com/sketch -->
    <title>龙 (Lóng)</title>
    <desc>Created with Sketch.</desc>
    <g id="Page-1" stroke="none" stroke-width="1" fill="none" fill-rule="evenodd">
        <g id="Names" transform="translate(-129.000000, -144.000000)" fill="#000000">
            <g id="Answer" transform="translate(100.000000, 75.000000)">
                <path d="M49.941,93.358 L44.481,93.358 C43.207,93.358 42.583,92.604 42.583,91.148 L42.583,89.432 C41.075,90.394 39.437,91.174 37.721,91.798 L36.941,90.602 C39.021,89.874 40.893,88.938 42.583,87.742 L42.583,77.212 L38.917,77.212 C38.709,79.136 38.423,80.904 38.059,82.516 C36.915,87.04 34.419,90.732 30.545,93.592 L29.635,92.448 C33.093,89.9 35.407,86.65 36.577,82.672 C36.993,81.034 37.331,79.214 37.539,77.212 L30.207,77.212 L30.207,75.86 L37.669,75.86 C37.825,74.04 37.903,72.064 37.903,69.984 L39.281,69.984 C39.281,72.09 39.203,74.04 39.047,75.86 L52.957,75.86 L52.957,77.212 L43.987,77.212 L43.987,86.676 C46.223,84.778 48.095,82.412 49.577,79.578 L50.825,80.254 C49.031,83.634 46.743,86.39 43.987,88.47 L43.987,90.862 C43.987,91.642 44.273,92.058 44.897,92.058 L49.681,92.058 C50.227,92.058 50.617,91.85 50.825,91.46 C51.111,90.94 51.319,89.484 51.423,87.066 L52.749,87.508 C52.593,90.238 52.307,91.928 51.839,92.604 C51.449,93.098 50.825,93.358 49.941,93.358 Z M45.053,70.036 C47.003,71.284 48.641,72.558 49.967,73.806 L49.005,74.768 C47.783,73.572 46.145,72.298 44.091,70.946 L45.053,70.036 Z M68.609,69.698 L70.039,69.698 C68.999,71.388 68.167,73.182 67.569,75.106 C66.815,77.394 66.451,79.63 66.451,81.84 C66.451,84.024 66.815,86.286 67.569,88.574 C68.167,90.472 68.999,92.266 70.039,93.982 L68.609,93.982 C67.517,92.318 66.659,90.524 66.035,88.626 C65.281,86.338 64.917,84.076 64.917,81.84 C64.917,79.604 65.281,77.342 66.035,75.08 C66.659,73.156 67.517,71.362 68.609,69.698 Z M73.705,72.636 L75.291,72.636 L75.291,89.796 L86.445,89.796 L86.445,91.2 L73.705,91.2 L73.705,72.636 Z M95.883,72.428 L97.755,72.428 L94.297,76.224 L93.153,76.224 L95.883,72.428 Z M94.557,77.394 C96.533,77.394 98.119,78.096 99.315,79.552 C100.407,80.852 100.953,82.516 100.953,84.492 C100.953,86.442 100.407,88.08 99.315,89.406 C98.119,90.836 96.533,91.564 94.557,91.564 C92.555,91.564 90.969,90.836 89.799,89.406 C88.707,88.08 88.161,86.442 88.161,84.492 C88.161,82.516 88.707,80.852 89.799,79.552 C90.995,78.096 92.581,77.394 94.557,77.394 Z M94.557,78.746 C93.049,78.746 91.879,79.292 90.995,80.41 C90.163,81.476 89.773,82.828 89.773,84.492 C89.773,86.13 90.163,87.482 90.995,88.522 C91.879,89.64 93.049,90.212 94.557,90.212 C96.039,90.212 97.235,89.64 98.119,88.522 C98.951,87.482 99.367,86.13 99.367,84.492 C99.367,82.828 98.951,81.476 98.119,80.41 C97.235,79.292 96.039,78.746 94.557,78.746 Z M109.637,77.394 C112.965,77.394 114.629,79.24 114.629,82.932 L114.629,91.2 L113.069,91.2 L113.069,83.036 C113.069,80.176 111.795,78.746 109.247,78.746 C108.155,78.746 107.271,79.136 106.543,79.916 C105.763,80.696 105.347,81.762 105.269,83.088 L105.269,91.2 L103.709,91.2 L103.709,77.758 L105.269,77.758 L105.269,79.968 C105.737,79.162 106.335,78.538 107.089,78.07 C107.843,77.602 108.701,77.394 109.637,77.394 Z M123.443,77.394 C125.653,77.394 127.265,78.408 128.253,80.462 L128.253,77.758 L129.813,77.758 L129.813,90.212 C129.813,94.528 127.785,96.712 123.781,96.712 C122.013,96.712 120.661,96.322 119.699,95.568 C118.789,94.84 118.217,93.774 117.983,92.344 L119.543,92.344 C119.725,93.332 120.141,94.086 120.791,94.58 C121.467,95.126 122.455,95.412 123.781,95.412 C126.745,95.412 128.253,93.722 128.253,90.394 L128.253,87.82 C127.265,89.848 125.653,90.888 123.443,90.888 C121.571,90.888 120.063,90.212 118.945,88.886 C117.905,87.638 117.385,86.078 117.385,84.154 C117.385,82.256 117.905,80.67 118.945,79.422 C120.063,78.07 121.571,77.394 123.443,77.394 Z M123.625,78.72 C122.143,78.72 120.999,79.24 120.167,80.332 C119.361,81.32 118.971,82.594 118.971,84.154 C118.971,85.662 119.335,86.91 120.089,87.898 C120.895,88.99 122.065,89.536 123.599,89.536 C125.081,89.536 126.251,89.016 127.083,87.976 C127.863,86.988 128.253,85.714 128.253,84.154 C128.253,82.594 127.863,81.32 127.083,80.332 C126.251,79.24 125.081,78.72 123.625,78.72 Z M133.219,69.698 L134.649,69.698 C135.715,71.362 136.573,73.156 137.223,75.08 C137.951,77.342 138.341,79.604 138.341,81.84 C138.341,84.076 137.951,86.338 137.223,88.626 C136.573,90.524 135.715,92.318 134.649,93.982 L133.219,93.982 C134.259,92.266 135.065,90.472 135.689,88.574 C136.417,86.286 136.807,84.024 136.807,81.84 C136.807,79.63 136.417,77.394 135.689,75.106 C135.065,73.182 134.259,71.388 133.219,69.698 Z" id="龙-(Lóng)"></path>
            </g>
        </g>
    </g>
</svg>