<?xml version="1.0" encoding="UTF-8"?>
<svg width="98px" height="25px" viewBox="0 0 98 25" version="1.1" xmlns="http://www.w3.org/2000/svg" xmlns:xlink="http://www.w3.org/1999/xlink">
    <!-- Generator: Sketch 52.6 (67491) - http://www.bohemiancoding.com/sketch -->
    <title>猴 (Hóu)</title>
    <desc>Created with Sketch.</desc>
    <g id="Page-1" stroke="none" stroke-width="1" fill="none" fill-rule="evenodd">
        <g id="Names" transform="translate(-135.000000, -805.000000)" fill="#000000">
            <g id="Answer-Copy-8" transform="translate(100.000000, 736.000000)">
                <path d="M53.373,87.3 C53.191,87.976 52.983,88.574 52.749,89.068 C51.813,90.914 50.305,92.5 48.173,93.826 L47.289,92.708 C49.265,91.538 50.669,90.134 51.501,88.496 C51.813,87.872 52.073,87.144 52.281,86.286 L47.393,86.286 L47.393,85.012 L52.541,85.012 C52.697,83.972 52.827,82.802 52.879,81.502 L49.889,81.502 C49.343,82.542 48.745,83.452 48.069,84.258 L47.211,83.218 C48.355,81.814 49.291,80.072 49.967,77.94 L51.241,78.2 C51.007,78.928 50.773,79.578 50.513,80.202 L58.365,80.202 L58.365,81.502 L54.179,81.502 C54.101,82.828 53.997,83.998 53.841,85.012 L59.353,85.012 L59.353,86.286 L54.179,86.286 C55.219,88.678 56.987,90.784 59.535,92.656 L58.651,93.748 C56.259,91.798 54.491,89.64 53.373,87.3 Z M55.427,72.558 L49.265,72.558 L49.265,71.284 L56.883,71.284 L56.415,75.912 L59.067,75.912 L59.067,77.212 L47.653,77.212 L47.653,75.912 L55.063,75.912 L55.427,72.558 Z M44.741,78.226 C44.117,79.266 43.467,80.254 42.765,81.19 L42.349,79.786 C44.299,76.926 45.703,73.728 46.587,70.14 L47.809,70.712 C47.341,72.428 46.769,74.04 46.093,75.548 L46.093,93.67 L44.741,93.67 L44.741,78.226 Z M41.959,70.296 L43.077,70.998 C42.115,72.766 41.153,74.196 40.217,75.288 C40.425,75.704 40.581,76.146 40.737,76.588 C41.413,78.616 41.777,81.502 41.829,85.272 C41.829,89.016 41.543,91.33 41.023,92.214 C40.503,92.994 39.567,93.41 38.267,93.41 C37.695,93.41 37.149,93.384 36.681,93.358 L36.343,92.006 C36.941,92.058 37.487,92.084 37.981,92.084 C39.021,92.084 39.671,91.798 39.983,91.226 C40.295,90.394 40.477,88.366 40.477,85.116 C40.477,83.972 40.425,82.958 40.373,82.074 C39.255,83.868 37.955,85.376 36.447,86.598 L35.667,85.402 C37.591,83.946 39.099,82.152 40.165,80.046 C40.009,78.798 39.775,77.706 39.463,76.822 C39.385,76.64 39.307,76.484 39.255,76.328 C38.345,77.212 37.305,78.07 36.135,78.902 L35.381,77.706 C36.629,76.978 37.721,76.094 38.657,75.08 C38.007,73.91 37.175,72.792 36.187,71.726 L37.331,70.998 C38.215,72.012 38.969,73.026 39.567,74.04 C40.451,72.948 41.231,71.7 41.959,70.296 Z M74.563,69.698 L75.993,69.698 C74.953,71.388 74.121,73.182 73.523,75.106 C72.769,77.394 72.405,79.63 72.405,81.84 C72.405,84.024 72.769,86.286 73.523,88.574 C74.121,90.472 74.953,92.266 75.993,93.982 L74.563,93.982 C73.471,92.318 72.613,90.524 71.989,88.626 C71.235,86.338 70.871,84.076 70.871,81.84 C70.871,79.604 71.235,77.342 71.989,75.08 C72.613,73.156 73.471,71.362 74.563,69.698 Z M79.659,72.636 L81.245,72.636 L81.245,80.878 L92.763,80.878 L92.763,72.636 L94.349,72.636 L94.349,91.2 L92.763,91.2 L92.763,82.308 L81.245,82.308 L81.245,91.2 L79.659,91.2 L79.659,72.636 Z M105.087,72.428 L106.959,72.428 L103.501,76.224 L102.357,76.224 L105.087,72.428 Z M103.761,77.394 C105.737,77.394 107.323,78.096 108.519,79.552 C109.611,80.852 110.157,82.516 110.157,84.492 C110.157,86.442 109.611,88.08 108.519,89.406 C107.323,90.836 105.737,91.564 103.761,91.564 C101.759,91.564 100.173,90.836 99.003,89.406 C97.911,88.08 97.365,86.442 97.365,84.492 C97.365,82.516 97.911,80.852 99.003,79.552 C100.199,78.096 101.785,77.394 103.761,77.394 Z M103.761,78.746 C102.253,78.746 101.083,79.292 100.199,80.41 C99.367,81.476 98.977,82.828 98.977,84.492 C98.977,86.13 99.367,87.482 100.199,88.522 C101.083,89.64 102.253,90.212 103.761,90.212 C105.243,90.212 106.439,89.64 107.323,88.522 C108.155,87.482 108.571,86.13 108.571,84.492 C108.571,82.828 108.155,81.476 107.323,80.41 C106.439,79.292 105.243,78.746 103.761,78.746 Z M112.913,77.758 L114.473,77.758 L114.473,85.974 C114.473,87.378 114.759,88.418 115.357,89.12 C115.981,89.848 116.943,90.212 118.243,90.212 C119.283,90.212 120.193,89.796 120.973,89.016 C121.753,88.236 122.195,87.196 122.299,85.922 L122.299,77.758 L123.859,77.758 L123.859,91.2 L122.299,91.2 L122.299,88.938 C121.259,90.68 119.751,91.564 117.827,91.564 C114.551,91.564 112.913,89.718 112.913,86.052 L112.913,77.758 Z M127.265,69.698 L128.695,69.698 C129.761,71.362 130.619,73.156 131.269,75.08 C131.997,77.342 132.387,79.604 132.387,81.84 C132.387,84.076 131.997,86.338 131.269,88.626 C130.619,90.524 129.761,92.318 128.695,93.982 L127.265,93.982 C128.305,92.266 129.111,90.472 129.735,88.574 C130.463,86.286 130.853,84.024 130.853,81.84 C130.853,79.63 130.463,77.394 129.735,75.106 C129.111,73.182 128.305,71.388 127.265,69.698 Z" id="猴-(Hóu)"></path>
            </g>
        </g>
    </g>
</svg>