<?xml version="1.0" encoding="UTF-8"?>
<svg width="80px" height="25px" viewBox="0 0 80 25" version="1.1" xmlns="http://www.w3.org/2000/svg" xmlns:xlink="http://www.w3.org/1999/xlink">
    <!-- Generator: Sketch 52.6 (67491) - http://www.bohemiancoding.com/sketch -->
    <title>兔 (Tù)</title>
    <desc>Created with Sketch.</desc>
    <g id="Page-1" stroke="none" stroke-width="1" fill="none" fill-rule="evenodd">
        <g id="Names" transform="translate(-144.000000, -477.000000)" fill="#000000">
            <g id="Answer-Copy-4" transform="translate(100.000000, 408.000000)">
                <path d="M47.523,77.524 C46.795,78.07 46.041,78.59 45.261,79.084 L44.299,77.966 C47.809,75.86 50.591,73.208 52.671,69.984 L54.075,70.322 C53.581,71.102 53.061,71.882 52.489,72.61 L61.719,72.61 L61.719,73.702 C60.419,75.08 59.145,76.224 57.897,77.134 L64.917,77.134 L64.917,84.414 L58.287,84.414 L58.287,90.836 C58.287,91.668 58.755,92.11 59.691,92.11 L63.877,92.11 C64.683,92.11 65.229,91.928 65.541,91.616 C65.957,91.2 66.217,90.004 66.373,88.028 L67.725,88.47 C67.543,90.758 67.153,92.188 66.555,92.734 C66.035,93.15 65.229,93.358 64.137,93.358 L59.275,93.358 C57.689,93.358 56.909,92.604 56.909,91.148 L56.909,84.414 L55.947,84.414 C55.479,85.792 54.933,86.936 54.257,87.872 C52.541,90.134 49.707,92.084 45.755,93.696 L44.845,92.552 C48.641,91.096 51.319,89.354 52.931,87.326 C53.555,86.52 54.049,85.558 54.465,84.414 L47.523,84.414 L47.523,77.524 Z M55.791,77.134 C57.195,76.198 58.547,75.132 59.847,73.91 L51.423,73.91 C50.383,75.054 49.265,76.146 48.017,77.134 L55.791,77.134 Z M63.539,83.088 L63.539,78.46 L56.987,78.46 C56.831,80.202 56.623,81.736 56.311,83.088 L63.539,83.088 Z M54.855,83.088 C55.219,81.71 55.453,80.176 55.609,78.46 L48.901,78.46 L48.901,83.088 L54.855,83.088 Z M61.147,85.922 C62.629,87.378 63.747,88.626 64.527,89.718 L63.435,90.498 C62.603,89.328 61.459,88.028 60.055,86.624 L61.147,85.922 Z M83.247,69.698 L84.677,69.698 C83.637,71.388 82.805,73.182 82.207,75.106 C81.453,77.394 81.089,79.63 81.089,81.84 C81.089,84.024 81.453,86.286 82.207,88.574 C82.805,90.472 83.637,92.266 84.677,93.982 L83.247,93.982 C82.155,92.318 81.297,90.524 80.673,88.626 C79.919,86.338 79.555,84.076 79.555,81.84 C79.555,79.604 79.919,77.342 80.673,75.08 C81.297,73.156 82.155,71.362 83.247,69.698 Z M86.913,72.636 L102.123,72.636 L102.123,74.04 L95.311,74.04 L95.311,91.2 L93.725,91.2 L93.725,74.04 L86.913,74.04 L86.913,72.636 Z M107.011,72.428 L108.883,72.428 L111.613,76.224 L110.469,76.224 L107.011,72.428 Z M104.229,77.758 L105.789,77.758 L105.789,85.974 C105.789,87.378 106.075,88.418 106.673,89.12 C107.297,89.848 108.259,90.212 109.559,90.212 C110.599,90.212 111.509,89.796 112.289,89.016 C113.069,88.236 113.511,87.196 113.615,85.922 L113.615,77.758 L115.175,77.758 L115.175,91.2 L113.615,91.2 L113.615,88.938 C112.575,90.68 111.067,91.564 109.143,91.564 C105.867,91.564 104.229,89.718 104.229,86.052 L104.229,77.758 Z M118.581,69.698 L120.011,69.698 C121.077,71.362 121.935,73.156 122.585,75.08 C123.313,77.342 123.703,79.604 123.703,81.84 C123.703,84.076 123.313,86.338 122.585,88.626 C121.935,90.524 121.077,92.318 120.011,93.982 L118.581,93.982 C119.621,92.266 120.427,90.472 121.051,88.574 C121.779,86.286 122.169,84.024 122.169,81.84 C122.169,79.63 121.779,77.394 121.051,75.106 C120.427,73.182 119.621,71.388 118.581,69.698 Z" id="兔-(Tù)"></path>
            </g>
        </g>
    </g>
</svg>