<?xml version="1.0" encoding="UTF-8"?>
<svg width="140px" height="84px" viewBox="0 0 140 84" version="1.1" xmlns="http://www.w3.org/2000/svg" xmlns:xlink="http://www.w3.org/1999/xlink">
    <!-- Generator: Sketch 52.6 (67491) - http://www.bohemiancoding.com/sketch -->
    <title>Group 8</title>
    <desc>Created with Sketch.</desc>
    <defs>
        <polygon id="path-1" points="0 0.807438596 139.470833 0.807438596 139.470833 84.9122807 0 84.9122807"></polygon>
    </defs>
    <g id="Page-1" stroke="none" stroke-width="1" fill="none" fill-rule="evenodd">
        <g id="Pig" transform="translate(-77.000000, -49.000000)">
            <g id="Group-8" transform="translate(77.000000, 47.000000)">
                <g id="Group-3" transform="translate(0.000000, 0.737039)">
                    <mask id="mask-2" fill="white">
                        <use xlink:href="#path-1"></use>
                    </mask>
                    <g id="Clip-2"></g>
                    <path d="M135.977313,16.0645614 C135.695313,16.5647719 135.441203,17.0788772 135.219632,17.6084211 C134.770291,18.5964912 134.32095,19.6 133.670181,19.8161404 C133.262676,19.9041404 132.839676,19.8269474 132.491049,19.6 C131.55983,19.1090526 130.730873,18.4498246 130.042917,17.6547368 C129.50061,17.0835088 129.051269,16.6203509 128.386555,16.6203509 C127.957357,16.6512281 127.563797,16.872 127.315884,17.2224561 C126.603137,18.1024561 127.315884,19.2603509 127.983698,20.6035088 C128.507412,21.4279298 128.883928,22.3372632 129.099302,23.2898246 C128.104555,21.6981053 126.973456,20.194386 125.7215,18.797193 C125.275258,17.730386 125.275258,16.5292632 125.7215,15.4624561 C126.254511,14.8047719 127.07417,14.4481404 127.92172,14.5052632 C129.796555,14.4126316 130.538742,15.7249123 131.235994,17.2996491 C131.592368,18.1178947 131.919302,18.8435088 132.676983,18.8435088 C133.422269,18.8435088 133.885555,18.1178947 134.474346,16.7901754 C134.939181,15.7249123 135.76039,14.5052632 136.99995,14.7677193 L137.402808,14.8912281 C136.784577,15.0734035 136.265511,15.4964211 135.961819,16.0645614 L135.977313,16.0645614 Z M130.059961,45.0582456 C127.455335,49.8735439 124.247972,54.3399298 120.515346,58.3508772 C116.283797,63.2449123 112.642588,67.4596491 113.016005,72.3691228 C113.350687,75.0106667 113.026852,77.6938947 112.069291,80.1810526 C112.080137,79.7534035 111.742357,79.3998596 111.314709,79.3890526 C111.023412,79.3813333 110.752258,79.538807 110.614357,79.7950877 L108.133687,84.1024561 C107.281489,85.0133333 104.895335,84.5192982 103.485335,84.1024561 C103.858753,83.1298246 104.556005,81.3080702 105.392709,79.2238596 C106.678753,76.0126316 108.923906,67.3978947 107.622368,61.2533333 C106.664808,55.0485614 106.049676,48.7974737 105.780071,42.5263158 C105.780071,42.1002105 105.431445,41.754386 105.005346,41.754386 C104.576148,41.754386 104.230621,42.1002105 104.230621,42.5263158 C104.230621,42.8968421 104.556005,48.9642105 105.158742,54.645614 C99.4722581,57.0077193 91.6010493,55.2168421 85.8061043,53.9045614 C83.8475988,53.4058947 81.8612032,53.029193 79.8562141,52.7775439 C75.3783021,52.666386 70.9019394,53.0708772 66.5154449,53.9817544 C67.2281922,52.9272982 68.0106647,51.9222456 68.8551152,50.9712281 L68.9635768,50.8168421 C68.9635768,50.7087719 74.4811702,40.0098246 66.3155658,31.92 C66.010324,31.6174035 65.5175988,31.6174035 65.2154559,31.92 C64.9102141,32.2225965 64.9102141,32.7135439 65.2154559,33.0161404 C72.2948955,40.1642105 68.111379,49.1185965 67.6465438,50.1221053 C61.0474339,57.5326316 57.6370933,70.0070175 57.4991922,70.5473684 C57.4898955,70.6137544 57.4898955,70.6801404 57.4991922,70.7465263 L57.4991922,74.237193 L57.3117087,74.005614 C57.0452032,73.6721404 56.5586757,73.6181053 56.2239944,73.8836491 C56.0520054,74.0195088 55.9466427,74.2202105 55.9326977,74.4378947 L55.624357,78.4982456 C55.4368735,80.9684211 52.9267636,82.1108772 51.5322581,82.5585965 L51.5322581,80.4435088 C51.5307087,80.32 51.4997196,80.1980351 51.4392911,80.0884211 C49.4404999,75.898386 48.3837746,71.3254737 48.34039,66.6877193 C48.371379,64.2437895 48.6471812,61.8060351 49.1615988,59.4161404 C49.6620713,57.5233684 49.7984229,55.5549474 49.5644559,53.6112281 C49.5381152,52.9720702 49.3630273,52.3483509 49.0531372,51.7894737 C49.0345438,51.730807 49.0097526,51.6721404 48.9772141,51.6196491 C47.4277636,48.64 42.9637966,45.8301754 42.3610603,45.4442105 C41.9969394,45.218807 41.5181592,45.3284211 41.2919394,45.6912281 C41.0641702,46.0540351 41.1741812,46.5295439 41.5383021,46.7564912 C43.4239834,47.9221053 45.1392251,49.3393684 46.6359944,50.9712281 C40.554401,49.8426667 34.5425328,48.3636491 28.631379,46.5403509 L28.2750054,46.5403509 C21.6882911,47.5299649 15.016357,47.8402807 8.36611525,47.4666667 C5.26721415,47.1578947 3.49929107,42.5263158 2.7400603,40.4421053 C2.56187349,40.0607719 2.56187349,39.6192281 2.7400603,39.2378947 C2.99726909,38.9183158 3.37068667,38.7114386 3.77819217,38.6666667 C3.99511525,38.6666667 9.18577459,37.5859649 13.4018295,30.8084211 C13.9890713,29.7230877 14.5112361,28.6053333 14.9652251,27.4582456 C15.5090823,26.1197193 16.1737966,24.8336842 16.9485218,23.6140351 C17.8084669,22.4700351 18.8016647,21.4341053 19.9079724,20.5263158 C23.2083021,17.8091228 27.5002801,16.157193 32.6769944,14.6750877 L33.1402801,14.5361404 L35.7898405,13.7796491 C34.7795988,14.8943158 34.0374119,16.2251228 33.6206098,17.6701754 C33.2131043,19.7574737 33.4780603,21.9188772 34.3798405,23.845614 C34.5781702,24.2254035 35.0461043,24.373614 35.4257196,24.1775439 C35.8068845,23.9814737 35.9556317,23.5152281 35.7588515,23.1354386 C35.0399065,21.4603509 34.8710163,19.6015439 35.2785218,17.8245614 C35.6937746,16.5230877 36.4049724,15.3343158 37.356335,14.3508772 C37.7746867,13.8414035 38.1930383,13.3319298 38.6098405,12.8070175 C38.6718185,12.7529825 38.7229504,12.6912281 38.7647856,12.6217544 C40.7806207,10.3522807 42.731379,8.65403509 43.3201702,8.73122807 C43.3201702,8.73122807 43.7850054,9.0245614 44.4202801,10.9698246 C44.4605658,11.0933333 44.5287416,11.2044912 44.6232581,11.2940351 C46.0425548,13.9309474 47.1659065,16.7160702 47.9685218,19.6 L47.9685218,20.0168421 C48.1095218,21.437193 48.3868735,24.4014035 46.6669834,25.7908772 C45.2724779,26.9178947 42.762368,26.9487719 39.2141262,25.7908772 C38.7864779,25.6673684 38.3386867,25.9128421 38.2147306,26.3389474 C38.0907746,26.7650526 38.3371372,27.2112281 38.7647856,27.3347368 C42.855335,28.6315789 45.9542361,28.5080702 47.7361043,27.0877193 C50.0912691,25.1733333 49.7519394,21.6533333 49.5954449,19.9550877 L49.5954449,19.5536842 C48.9121372,16.717614 47.8709065,13.978807 46.4965438,11.4021053 C53.8409394,10.1978947 60.8289614,9.62666667 60.8924889,9.62666667 L60.9684119,9.62666667 C80.956324,5.9522807 102.896544,8.23719298 114.254016,12.405614 C118.236104,13.9942456 121.77195,16.5215439 124.559412,19.7698246 C126.096467,21.4634386 127.432093,23.3284211 128.53995,25.3277193 C128.535302,25.3786667 128.535302,25.4311579 128.53995,25.4821053 C132.289621,32.3059649 132.862917,39.4385965 130.042917,45.0582456 L130.059961,45.0582456 Z M127.146994,70.2231579 C127.085016,70.9719298 126.874291,71.7021754 126.525665,72.3691228 L126.525665,71.9368421 C126.612434,71.5107368 126.333533,71.0954386 125.905884,71.0105263 C125.479786,70.925614 125.062983,71.2004211 124.976214,71.6280702 C124.196841,73.0576842 123.316753,74.4286316 122.342148,75.7347368 C120.42083,76.5838596 119.646104,76.4449123 119.399742,76.3368421 L120.451819,74.2202105 C121.691379,71.7515789 120.281379,63.413193 119.91106,61.4385965 L121.691379,59.3698246 C123.350841,57.4554386 125.10017,55.4175439 126.804566,53.194386 C126.178588,58.0822456 126.225071,63.0318596 126.944016,67.9073684 C127.081917,68.6715789 127.150093,69.4465965 127.146994,70.2231579 Z M40.9495109,57.285614 C40.8224559,58.1146667 40.6256757,58.9298246 40.3622691,59.7249123 C39.59839,62.2167018 39.079324,64.7748772 38.8128185,67.3670175 C38.5184229,70.0070175 38.2999504,72.1375439 38.1450054,73.6814035 L37.4477526,72.1375439 C37.2804119,71.7454035 36.8248735,71.5647719 36.431313,71.7315088 C36.1957966,71.8334035 36.025357,72.0418246 35.9757746,72.290386 C35.4505109,74.6849123 34.426324,77.0315789 33.9614889,77.2168421 C32.5685328,77.4067368 31.1569834,77.4067368 29.7624779,77.2168421 C30.7231372,75.2561404 32.6289614,71.1494737 32.6289614,69.2026667 C32.1579284,62.170386 31.121346,55.1844211 29.5300603,48.3157895 C31.7147856,48.9796491 36.1942471,50.2610526 41.1679834,51.4035088 C41.1819284,52.7775439 41.1369944,55.7108772 40.9495109,57.285614 Z M17.2134779,6.89403509 C17.3157416,5.75312281 17.6752141,4.64926316 18.2655548,3.66736842 C18.4576867,3.98849123 18.5986867,4.33740351 18.6839065,4.70175439 C20.1124999,8.94273684 22.9712361,12.5584561 26.7720383,14.9375439 C24.2169944,15.8901053 21.8060493,17.1931228 19.6135768,18.8126316 C16.9950054,15.5087719 16.6541262,10.3985965 17.2134779,6.89403509 Z M137.371819,13.1929825 C136.349181,12.9768421 134.427862,13.0849123 133.11083,16.1108772 C132.986873,16.4042105 132.878412,16.6203509 132.800939,16.7901754 L132.800939,16.6357895 C132.198203,15.277193 131.082599,12.7915789 127.983698,12.9150877 C126.536511,12.8224561 125.154401,13.5202807 124.373478,14.7368421 C124.021753,15.3698246 123.840467,16.0815439 123.845115,16.805614 C121.232742,14.221193 118.116797,12.1987368 114.689412,10.8617544 C103.146005,6.63157895 80.8788515,4.28491228 60.6290823,8.00561404 C60.0232471,8.00561404 52.9887416,8.65403509 45.7218185,9.85824561 C45.1175328,8.20631579 44.5287416,7.43438596 43.7695109,7.23368421 C42.2200603,6.81684211 39.5875438,9.37964912 37.6817196,11.525614 L32.8458845,12.8996491 L32.3825988,13.0385965 C31.1275438,13.3936842 29.8709394,13.7796491 28.631379,14.2119298 C27.3298405,13.4554386 21.7518185,9.9045614 20.1868735,4.25403509 C20.0474229,3.72912281 19.5996317,2.10807018 18.4204999,2 C17.9401702,2 17.2274229,2.15438596 16.6076427,3.40491228 C15.0581922,6.49263158 14.4709504,14.7831579 18.4204999,19.754386 C17.4288515,20.6266667 16.5301702,21.5992982 15.7399504,22.6568421 C14.8939504,23.9660351 14.1734559,25.3508772 13.5862141,26.794386 C13.1291262,27.8519298 12.6131592,28.8832281 12.0367636,29.8821053 C8.21117019,36.0575439 3.49929107,37.0301754 3.49929107,37.0301754 C2.64089547,37.1475088 1.87236799,37.6168421 1.37654382,38.3270175 C0.910159202,39.1421754 0.874521839,40.1364211 1.28357678,40.9824561 C2.13732404,43.2673684 4.11907129,48.7017544 8.22511525,48.9950877 C14.7761922,49.3640702 21.3489614,49.08 27.8411592,48.1459649 C29.5130163,55.1087719 30.5898845,62.1997193 31.0655658,69.3431579 C31.0655658,71.1185965 28.74139,75.9508772 27.8566537,77.6645614 C27.658324,78.0412632 27.8039724,78.5090526 28.1820383,78.7066667 C28.2688076,78.7529825 28.363324,78.7823158 28.4609394,78.7915789 C28.74139,78.7915789 30.4597306,79.0077193 32.0556647,79.0077193 C32.8598295,79.0385965 33.6624449,78.9552281 34.4418185,78.7607018 C35.5574229,78.3901754 36.3941262,76.4912281 36.9209394,74.8084211 L37.9125878,76.954386 C37.9854119,77.3804912 38.391368,77.6676491 38.8190163,77.5950877 C39.2466647,77.5225263 39.5348625,77.1180351 39.4620383,76.6919298 C39.4620383,76.6919298 39.7564339,73.3417544 40.4072032,67.5677193 C40.6830054,65.0635789 41.2020713,62.5918596 41.9566537,60.1880702 C42.2541482,59.3018947 42.4726207,58.3925614 42.6074229,57.4708772 C42.7794119,55.9270175 42.824346,53.2870175 42.84139,51.8666667 C44.5132471,52.2217544 46.2176427,52.5459649 47.9065438,52.8084211 C48.027401,53.0816842 48.0955768,53.3750175 48.1095218,53.6729825 C48.103324,53.7239298 48.103324,53.7764211 48.1095218,53.8273684 C48.3140493,55.6012632 48.1776977,57.3998596 47.7051152,59.122807 C47.1705548,61.6084211 46.8839065,64.1434386 46.8529174,66.6877193 C46.8684119,71.4875789 47.9251372,76.2272281 49.9518185,80.5824561 L49.9518185,83.5312281 C49.953368,83.7581754 50.0556317,83.9727719 50.2307196,84.1178947 C50.4058076,84.2676491 50.6397746,84.3294035 50.8659944,84.2877193 C51.1139065,84.2877193 56.80039,83.1915789 57.1567636,78.5754386 L57.3272032,76.4140351 L57.6680823,76.8308772 C57.9361372,77.1643509 58.4242141,77.2168421 58.757346,76.9497544 C58.9448295,76.8 59.0517416,76.5745965 59.0486427,76.3368421 L59.0486427,70.8561404 C60.5578076,65.634807 62.6898515,60.6110877 65.3998405,55.8961404 C67.0902911,55.5564912 74.9444559,54.0280702 79.7647966,54.3522807 C81.6954119,54.6008421 83.6105328,54.9667368 85.4962141,55.4484211 C91.3531372,56.7761404 99.272379,58.5361404 105.375665,56.2666667 C105.608082,58.1964912 105.871489,60.0012632 106.182928,61.4385965 C107.3915,67.1663158 105.206775,75.5649123 104.029192,78.5136842 C102.85006,81.4624561 101.734456,84.2105263 101.734456,84.2105263 C101.587258,84.6026667 101.77939,85.0411228 102.169852,85.1985965 C103.513225,85.7312281 104.93872,86.0353684 106.382808,86.0940351 C107.481368,86.1804912 108.562884,85.7729123 109.328313,84.9824561 L109.405786,84.874386 L110.535335,82.9136842 C110.704225,83.3058246 111.159764,83.4864561 111.553324,83.3181754 C111.604456,83.2965614 111.652489,83.2703158 111.697423,83.2378947 C111.836873,83.1452632 115.183687,80.6905263 114.532917,72.2147368 C114.285005,69.1270175 116.004895,66.1936842 118.578533,62.9515789 C119.213808,66.8112281 119.754566,72.0294737 119.027873,73.4652632 L117.771269,75.9663158 C117.721687,76.1222456 117.721687,76.2889825 117.771269,76.4449123 C117.884379,76.965193 118.226808,77.4067368 118.702489,77.6491228 C119.0945,77.8498246 119.531445,77.9501754 119.971489,77.9424561 C121.118082,77.8714386 122.238335,77.5611228 123.256324,77.0315789 C123.374082,76.976 123.476346,76.8895439 123.55072,76.7845614 C123.55072,76.7845614 124.340939,75.7347368 125.10017,74.5305263 L125.10017,74.6385965 C125.114115,75.0647018 125.473588,75.3981754 125.901236,75.3842807 C126.102665,75.3765614 126.293247,75.293193 126.434247,75.1480702 C127.6955,73.8265263 128.490368,72.1298246 128.696445,70.3157895 C128.705742,69.4141754 128.628269,68.5156491 128.462478,67.6294737 C127.656764,61.9295439 127.731137,56.1400702 128.679401,50.4617544 C129.694291,48.9487719 130.614665,47.3771228 131.437423,45.7529825 C134.412368,39.84 133.933588,32.3677193 130.135884,25.2042105 C131.390939,23.6603509 130.135884,21.3754386 129.347214,19.8624561 C129.079159,19.4039298 128.842093,18.9299649 128.634467,18.4421053 L128.897873,18.72 C129.712884,19.6494035 130.695236,20.4197895 131.795346,20.9894737 C132.523588,21.4032281 133.39128,21.5020351 134.196994,21.2673684 C135.435005,20.8350877 136.023797,19.5073684 136.597093,18.1796491 C136.798522,17.7087719 137.026291,17.2502456 137.280401,16.805614 C137.559302,16.3578947 137.79017,16.3270175 137.869192,16.3115789 C138.351071,16.3594386 138.797313,16.5848421 139.122698,16.9445614 C139.410895,17.2595088 139.900522,17.2842105 140.21661,16.9970526 C140.3855,16.8457544 140.476917,16.629614 140.47072,16.4042105 C140.184071,14.8094035 138.961555,13.5418947 137.371819,13.1929825 Z" id="Fill-1" stroke="#000000" stroke-width="0.25" fill="#000000" mask="url(#mask-2)"></path>
                </g>
                <path d="M21.821067,28.7156351 C20.9688692,28.0363368 20.0856824,27.3261614 19.2489791,27.4342316 C18.8662648,27.4928982 18.5284846,27.7121263 18.3193088,28.0363368 C17.4516165,29.255986 17.0797484,29.3949333 17.0642538,29.4103719 C16.8504297,29.431986 16.6939352,29.6218807 16.7156275,29.8349333 C16.7373198,30.047986 16.9279022,30.2039158 17.1417264,30.1823018 C18.2573308,29.992407 19.393078,29.9507228 20.5195286,30.058793 C21.1486055,30.1020211 21.7807813,30.1020211 22.4098582,30.058793 C22.6236824,30.0464421 22.7863747,29.8642667 22.7739791,29.6496702 C22.7662319,29.5277053 22.6996055,29.4150035 22.5957923,29.3486175 C22.4098582,29.178793 22.1154626,28.947214 21.821067,28.7156351" id="Fill-4" fill="#000000"></path>
                <path d="M37.5486099,24.1925895 C37.9576648,24.0675368 38.1869835,23.6368 38.0630275,23.2276772 C38.061478,23.2261333 38.061478,23.2230456 38.0599286,23.2199579 C36.510478,18.3722386 37.5795989,14.991186 41.1588297,13.2003088 C41.4857637,13.4905544 41.7259286,13.8641684 41.8560824,14.2810105 C41.9846868,14.7071158 42.4355769,14.9495018 42.8632253,14.8213614 C43.2908736,14.6932211 43.5341374,14.2439579 43.405533,13.8178526 C43.1700165,12.9532912 42.6168626,12.2091509 41.8560824,11.7336421 C41.4563242,11.5560982 41.0007857,11.5560982 40.6010275,11.7336421 L40.5235549,11.7336421 C34.9920165,14.4508351 35.3328956,19.6999579 36.572456,23.6213614 C36.6747198,23.9440281 36.9753132,24.1632561 37.3161923,24.1617123 L37.5486099,24.1925895 Z" id="Fill-6" fill="#000000"></path>
            </g>
        </g>
    </g>
</svg>