<?xml version="1.0" encoding="UTF-8"?>
<svg width="177px" height="107px" viewBox="0 0 177 107" version="1.1" xmlns="http://www.w3.org/2000/svg" xmlns:xlink="http://www.w3.org/1999/xlink">
    <!-- Generator: Sketch 52.6 (67491) - http://www.bohemiancoding.com/sketch -->
    <title>Group 8</title>
    <desc>Created with Sketch.</desc>
    <defs>
        <polygon id="path-1" points="0 0.549637489 176.95234 0.549637489 176.95234 106.19982 0 106.19982"></polygon>
    </defs>
    <g id="Page-1" stroke="none" stroke-width="1" fill="none" fill-rule="evenodd">
        <g id="horse" transform="translate(-60.000000, -40.000000)">
            <g id="Group-8" transform="translate(60.000000, 39.000000)">
                <g id="Group-3" transform="translate(0.000000, 1.250100)">
                    <mask id="mask-2" fill="white">
                        <use xlink:href="#path-1"></use>
                    </mask>
                    <g id="Clip-2"></g>
                    <path d="M161.852954,43.55982 C157.881291,42.65982 155.713944,41.03982 154.628464,39.95982 C154.269046,39.59982 153.725403,39.59982 153.365985,39.95982 C153.00476,40.31982 153.00476,40.85982 153.365985,41.21982 C154.989689,43.01982 157.520066,44.27982 160.769281,45.17982 C157.520066,45.53982 151.198638,45.17982 144.152954,37.97982 C139.820066,33.47982 134.401699,31.31982 130.607036,30.41982 L128.622107,26.45982 C130.065199,26.09982 131.871321,25.55982 133.316219,24.47982 C137.289689,21.59982 145.056015,17.99982 151.919281,25.55982 C156.97823,31.13982 162.214179,33.11982 165.465199,33.83982 C163.478464,34.55982 160.949893,35.09982 158.601934,34.01982 C158.240709,33.83982 157.881291,34.01982 157.520066,34.19982 C157.337648,34.55982 157.337648,34.91982 157.520066,35.27982 C157.520066,35.27982 163.299658,41.93982 173.233332,39.05982 C171.244791,41.21982 166.911903,44.81982 161.852954,43.55982 M126.452954,48.95982 C118.325403,56.15982 117.422342,63.35982 120.312138,67.49982 C121.034587,68.39982 121.215199,69.29982 120.855781,70.01982 C120.312138,71.81982 117.602954,73.25982 116.158056,73.79982 C113.810097,74.69982 104.960097,80.63982 104.600679,80.81982 C104.239454,80.99982 101.891495,82.79982 100.988434,84.95982 C100.627209,85.13982 98.9998929,84.95982 97.3761888,84.59982 C97.0149643,84.41982 96.6519337,84.59982 96.4731276,84.95982 C96.1119031,85.49982 95.0264235,85.49982 94.3057806,85.31982 C95.0264235,84.05982 95.9294847,82.79982 96.8325459,81.35982 C97.3761888,80.45982 97.9180255,79.73982 98.6386684,79.01982 C99.724148,78.47982 104.600679,76.31982 108.572342,73.97982 C112.545811,71.63982 112.184587,68.21982 111.463944,66.59982 C107.488668,58.49982 104.779485,45.89982 104.779485,45.71982 C104.600679,45.17982 104.239454,44.99982 103.697617,44.99982 C103.153974,45.17982 102.973362,45.53982 102.973362,46.07982 C102.973362,46.43982 103.697617,50.03982 104.960097,54.53982 C102.973362,55.79982 100.444791,56.69982 97.9180255,57.41982 C89.2468316,59.39982 78.4100969,57.95982 75.7009133,57.05982 C73.7141786,56.33982 71.1856071,56.51982 69.3794847,56.87982 L69.5600969,56.87982 C72.6323112,54.35982 71.72925,44.81982 71.5468316,43.73982 C71.5468316,43.19982 71.0049949,42.83982 70.6437704,43.01982 C70.1019337,43.01982 69.9231276,43.55982 69.9231276,43.91982 C70.2825459,47.69982 70.2825459,53.99982 68.4764235,55.43982 C67.9345867,55.79982 67.2139439,56.69982 66.1284643,57.77982 C63.601699,60.47982 60.1682602,64.97982 57.097852,68.75982 C56.1947908,70.01982 55.8335663,71.63982 56.0141786,73.07982 C56.3772092,74.51982 57.2802704,75.95982 58.54275,76.67982 C61.7955765,78.47982 63.7805051,79.73982 64.6835663,80.09982 C65.4078214,80.45982 66.3108827,80.63982 67.5733622,81.17982 C67.2139439,82.25982 66.4896888,83.51982 65.947852,83.87982 C65.2254031,84.41982 65.2254031,85.13982 65.2254031,86.03982 C63.9611173,85.13982 62.6986378,84.05982 61.2519337,82.97982 C58.0009133,80.45982 55.1111173,78.29982 53.3049949,77.75982 C50.7764235,77.03982 49.5121378,74.87982 49.3315255,74.33982 C49.3315255,73.61982 50.9588418,66.23982 52.4019337,59.21982 C52.9437704,56.87982 53.3049949,54.71982 53.8468316,52.73982 C54.0274439,52.19982 53.6680255,51.83982 53.1243827,51.65982 C52.5825459,51.47982 52.2213214,51.83982 52.0407092,52.37982 C51.8619031,53.63982 51.3182602,55.61982 50.7764235,57.95982 C44.6374133,55.07982 43.5519337,50.57982 42.4682602,44.81982 C41.9282296,42.11982 41.2039745,39.23982 39.9396888,36.35982 C37.4129235,30.59982 31.0914949,26.45982 28.0192806,25.01982 C28.9223418,22.67982 29.4641786,20.51982 29.6447908,19.97982 C29.8254031,19.43982 29.4641786,19.07982 29.1029541,18.89982 C28.5611173,18.71982 28.1998929,19.07982 28.0192806,19.43982 C27.2968316,22.49982 25.4907092,27.53982 23.6845867,28.43982 C23.14275,28.79982 22.420301,28.97982 21.5172398,29.33982 C19.7111173,29.87982 17.7243827,30.59982 15.5570357,32.03982 C13.570301,33.29982 12.1272092,35.09982 10.8611173,37.61982 C10.6805051,37.97982 10.6805051,38.33982 10.6805051,38.87982 C10.6805051,39.41982 10.4998929,39.95982 10.3210867,40.13982 C8.15193367,41.75982 4.35907653,40.31982 3.09659694,39.95982 C2.91417857,39.95982 2.91417857,39.77982 2.73356633,39.77982 C2.55295408,39.59982 1.8305051,38.87982 1.29047449,37.43982 C0.927443878,36.35982 0.927443878,35.27982 1.46928061,34.37982 C2.37234184,32.57982 3.63662755,30.05982 4.72030102,28.43982 C5.80578061,26.81982 8.15193367,22.31982 8.51496429,20.87982 C8.69377041,19.97982 9.0549949,19.07982 9.59683163,18.17982 L12.6672398,14.75982 C13.0302704,15.11982 13.3896888,15.29982 13.7509133,15.47982 C14.29275,15.65982 14.6539745,15.65982 15.1958112,15.65982 C16.2794847,15.65982 17.1825459,15.29982 17.7243827,15.11982 C17.9049949,15.11982 18.0856071,14.93982 18.2662194,14.75982 C18.4486378,14.39982 18.4486378,14.03982 18.2662194,13.67982 C18.0856071,13.49982 17.9049949,13.49982 17.7243827,13.31982 C17.5455765,13.13982 17.3631582,12.59982 17.1825459,11.87982 C17.1825459,11.69982 17.1825459,11.33982 17.3631582,11.15982 C17.7243827,10.43982 18.8080561,9.89982 20.0723418,9.53982 C19.8917296,9.89982 20.0723418,10.43982 20.4335663,10.61982 C20.7947908,10.79982 21.3366276,10.61982 21.5172398,10.25982 C21.5172398,10.25982 22.420301,8.45982 24.7700663,5.93982 L25.1294847,5.57982 C25.6731276,7.19982 26.3937704,10.07982 24.7700663,11.69982 C24.4070357,12.05982 24.4070357,12.59982 24.7700663,12.95982 C24.9488724,13.13982 25.1294847,13.13982 25.3100969,13.13982 C25.4907092,13.13982 25.6731276,13.13982 25.8519337,12.95982 C27.2968316,11.51982 27.47925,9.71982 27.2968316,8.09982 C28.9223418,8.27982 31.0914949,8.99982 31.9945561,10.25982 C33.6182602,12.59982 35.2437704,15.47982 35.2437704,15.47982 C35.4243827,15.83982 35.7856071,16.01982 35.9662194,15.83982 C36.3274439,15.83982 36.5098622,15.65982 36.6886684,15.29982 C36.6886684,15.11982 37.9529541,12.41982 36.8692806,9.89982 C39.2190459,10.79982 42.6488724,12.59982 43.9131582,15.47982 L45.8998929,19.43982 C46.0805051,19.79982 46.2611173,19.97982 46.6223418,19.97982 C46.9835663,19.97982 47.3465969,19.79982 47.3465969,19.43982 C47.3465969,19.25982 48.4284643,16.01982 46.9835663,12.41982 C48.4284643,12.95982 50.0557806,13.31982 51.8619031,13.13982 L51.8619031,13.31982 C52.0407092,13.49982 54.2080561,16.55982 59.265199,17.27982 C60.7100969,17.45982 62.3356071,17.99982 64.3223418,18.71982 C67.9345867,19.97982 72.0886684,21.41982 76.965199,21.41982 C78.4100969,21.41982 79.856801,21.23982 81.4805051,21.05982 C87.4407092,21.77982 93.4027194,21.23982 99.1823112,20.87982 C104.960097,20.51982 111.100913,19.97982 116.699893,20.69982 C120.673362,21.23982 123.924383,23.21982 126.274148,26.45982 L128.800913,31.67982 C131.510097,37.97982 130.245811,45.71982 126.452954,48.95982 M92.6784643,100.07982 C91.7754031,99.53982 90.3305051,98.81982 88.3437704,99.35982 C87.4407092,99.53982 86.8988724,99.53982 86.537648,99.71982 C88.7049949,96.83982 91.2335663,93.23982 92.4996582,91.43982 C92.4996582,91.61982 92.6784643,91.79982 92.6784643,91.97982 C93.0396888,92.69982 93.5815255,93.05982 94.3057806,93.23982 C94.4845867,93.23982 94.8458112,93.41982 95.0264235,93.41982 C95.5700663,93.41982 95.9294847,93.23982 96.4731276,93.05982 C96.6519337,93.05982 96.6519337,92.87982 96.8325459,92.87982 C95.387648,94.85982 93.7639439,97.91982 92.6784643,100.07982 M88.5243827,104.75982 C84.3721071,105.29982 82.9254031,104.93982 82.5659847,104.75982 C82.9254031,104.39982 83.8284643,103.13982 85.2751684,101.33982 C85.9958112,101.51982 87.0812908,101.51982 88.7049949,101.15982 C90.5111173,100.79982 91.5965969,101.51982 91.9578214,101.87982 C91.7754031,102.41982 91.5965969,102.77982 91.5965969,103.13982 C91.5965969,104.57982 88.7049949,104.75982 88.5243827,104.75982 M95.5700663,91.43982 C95.387648,91.61982 95.0264235,91.61982 94.8458112,91.61982 C94.6670051,91.61982 94.4845867,91.43982 94.3057806,91.25982 C93.7639439,89.99982 93.220301,89.09982 93.220301,88.19982 C93.220301,88.01982 93.4027194,87.65982 93.5815255,87.11982 C94.1233622,87.29982 94.6670051,87.29982 95.387648,87.29982 C96.2907092,87.29982 97.0149643,87.11982 97.5549949,86.57982 C98.4580561,86.75982 99.5417296,86.93982 100.627209,86.93982 C100.444791,87.65982 99.1823112,89.27982 95.5700663,91.43982 M109.836628,67.31982 C109.836628,67.49982 111.100913,70.37982 107.669281,72.53982 C107.488668,72.71982 107.127444,72.89982 106.948638,73.07982 L108.572342,64.43982 C108.933566,65.33982 109.294791,66.23982 109.836628,67.31982 M105.682546,56.15982 C106.224383,57.77982 106.766219,59.57982 107.309862,61.19982 L104.779485,73.79982 C101.16724,75.77982 97.7356071,77.21982 97.5549949,77.39982 C97.3761888,77.39982 97.3761888,77.57982 97.1937704,77.57982 C97.5549949,75.23982 97.7356071,72.17982 97.7356071,70.73982 C97.7356071,68.57982 98.6386684,60.83982 98.8210867,58.67982 C101.53027,58.31982 103.697617,57.41982 105.682546,56.15982 M72.4498929,84.95982 L73.8947908,88.91982 L73.8947908,89.27982 C73.8947908,89.27982 73.7141786,89.45982 73.5353724,89.45982 C72.0886684,89.09982 69.9231276,88.55982 67.9345867,87.65982 C67.39275,86.75982 67.0315255,85.67982 67.0315255,85.31982 C67.9345867,84.59982 68.837648,82.97982 69.1988724,81.89982 C70.8261888,82.43982 71.9080561,83.51982 72.4498929,84.95982 M34.5213214,67.67982 C32.8976173,68.75982 31.8121378,70.91982 35.606801,84.77982 C35.606801,84.95982 35.606801,84.95982 35.7856071,85.13982 C35.7856071,85.13982 35.7856071,85.31982 35.9662194,85.49982 C35.0631582,86.21982 33.8006786,86.93982 33.2570357,86.75982 C33.0764235,86.75982 32.715199,86.57982 32.3539745,86.93982 C31.9945561,87.11982 31.8121378,87.47982 31.8121378,88.19982 C31.8121378,88.55982 31.6315255,88.91982 31.4509133,89.09982 C30.7284643,87.47982 30.1884337,85.85982 29.4641786,83.87982 C28.7417296,81.89982 29.1029541,78.47982 29.2853724,75.23982 C29.4641786,72.89982 29.6447908,70.55982 29.4641786,68.57982 C29.2853724,65.51982 29.8254031,64.79982 31.0914949,63.35982 C31.6315255,62.63982 32.3539745,61.91982 33.0764235,60.65982 C34.8825459,57.77982 39.5784643,49.49982 41.565199,46.25982 C42.4682602,50.75982 43.734352,55.07982 48.2496582,58.13982 C45.5404745,59.93982 35.4243827,67.13982 34.5213214,67.67982 M37.5917296,91.79982 C37.5917296,91.79982 37.5917296,91.97982 37.5917296,91.79982 L34.3407092,94.13982 L34.1600969,94.13982 C34.1600969,94.13982 33.9794847,94.13982 33.9794847,93.95982 C33.6182602,93.05982 32.8976173,91.97982 32.1733622,90.35982 C32.5345867,89.99982 33.0764235,89.27982 33.437648,88.19982 C34.1600969,88.19982 35.2437704,87.83982 36.8692806,86.57982 C37.0498929,87.11982 37.4129235,87.65982 37.5917296,88.19982 C37.9529541,89.63982 37.7723418,91.07982 37.5917296,91.79982 M12.847852,9.53982 C13.2090765,8.45982 14.29275,7.91982 15.015199,7.55982 L18.2662194,5.93982 C19.351699,5.57982 20.7947908,5.21982 22.9639439,5.03982 C22.2396888,5.93982 21.5172398,6.65982 21.1578214,7.37982 C20.0723418,7.55982 16.8213214,8.63982 15.5570357,10.43982 C15.1958112,11.15982 15.015199,11.69982 15.1958112,12.41982 C15.3764235,13.13982 15.5570357,13.67982 15.7394541,14.03982 C15.1958112,14.21982 14.6539745,14.21982 14.29275,14.03982 C13.7509133,13.85982 13.3896888,13.49982 13.2090765,12.77982 L13.2090765,12.59982 C13.2090765,12.41982 13.0302704,12.23982 13.0302704,12.05982 C12.6672398,10.97982 12.6672398,10.25982 12.847852,9.53982 M16.0988724,4.31982 C16.2794847,4.49982 16.4600969,4.67982 16.4600969,4.85982 L15.5570357,5.39982 L15.5570357,3.77982 C15.7394541,3.95982 15.9182602,4.13982 16.0988724,4.31982 M32.8976173,4.85982 C35.4243827,5.03982 41.2039745,6.29982 44.4549949,7.01982 C45.8998929,7.37982 47.1641786,7.91982 48.0672398,8.63982 C49.3315255,9.71982 51.6794847,10.97982 54.9305051,8.27982 C56.5560153,6.83982 58.0009133,6.65982 59.0863929,6.65982 C58.1833316,7.19982 57.820301,7.73982 57.820301,7.91982 C57.2802704,8.81982 56.3772092,9.53982 55.2917296,9.89982 L55.1111173,9.89982 C49.8733622,13.49982 45.1774439,9.17982 44.9968316,8.99982 C44.6374133,8.63982 44.0937704,8.63982 43.734352,8.99982 C43.3713214,9.35982 43.3713214,9.89982 43.734352,10.25982 C45.5404745,12.23982 46.0805051,14.39982 46.0805051,16.01982 L45.3580561,14.57982 C43.0100969,9.53982 35.0631582,7.37982 34.7037398,7.19982 C34.3407092,7.01982 33.9794847,7.19982 33.8006786,7.55982 C33.6182602,7.91982 33.6182602,8.27982 33.9794847,8.63982 C35.2437704,9.71982 35.4243827,11.33982 35.4243827,12.59982 C34.8825459,11.51982 33.9794847,10.25982 33.0764235,8.99982 C31.4509133,6.83982 28.0192806,6.11982 26.5761888,5.93982 C26.3937704,5.39982 26.2131582,5.03982 26.2131582,4.67982 C28.1998929,4.67982 30.3672398,4.67982 32.8976173,4.85982 M67.39275,11.87982 C69.3794847,12.95982 72.4498929,13.31982 74.9784643,13.49982 C74.797852,13.67982 74.6172398,13.67982 74.2560153,13.85982 C72.8111173,14.93982 69.9231276,14.75982 68.837648,14.57982 C68.4764235,14.57982 68.2958112,14.57982 68.1170051,14.93982 C67.9345867,15.11982 67.9345867,15.47982 67.9345867,15.83982 C67.9345867,16.01982 68.4764235,17.09982 69.9231276,17.63982 C71.9080561,18.53982 74.6172398,18.17982 78.0506786,16.73982 C79.6743827,16.01982 80.7598622,15.65982 81.6629235,15.47982 C80.7598622,16.19982 80.0356071,17.09982 79.4937704,18.53982 C79.3131582,18.89982 79.3131582,19.07982 79.1325459,19.25982 L79.1325459,19.43982 C73.8947908,19.79982 69.1988724,18.17982 65.4078214,16.73982 C63.4192806,16.01982 61.6131582,15.29982 59.9894541,15.11982 C56.5560153,14.57982 54.7498929,12.95982 54.0274439,12.23982 C54.7498929,12.05982 55.474148,11.69982 56.1947908,11.15982 C57.820301,11.15982 64.3223418,10.25982 67.39275,11.87982 M176.845577,36.35982 C176.663158,35.99982 176.121321,35.99982 175.760097,36.17982 C169.259862,39.05982 164.562138,37.61982 161.852954,36.17982 C165.647617,36.17982 169.077444,34.01982 169.259862,33.83982 C169.621087,33.65982 169.799893,33.29982 169.621087,32.93982 C169.438668,32.57982 169.259862,32.21982 168.718026,32.39982 C168.718026,32.39982 160.769281,32.57982 153.365985,24.47982 C145.78027,16.01982 137.110883,19.97982 132.595577,23.21982 C131.148872,24.29982 129.34275,24.83982 127.897852,25.01982 C125.371087,21.59982 121.758842,19.43982 117.422342,18.89982 C111.64275,18.17982 105.50374,18.71982 99.5417296,19.07982 C93.4027194,19.61982 87.2600969,19.97982 81.1192806,19.25982 C82.5659847,15.83982 84.7315255,16.55982 85.09275,16.73982 C85.2751684,16.91982 85.6345867,16.73982 85.815199,16.73982 C85.9958112,16.55982 86.1782296,16.37982 86.1782296,16.01982 C86.1782296,15.47982 85.9958112,14.93982 85.2751684,14.39982 C83.8284643,13.49982 81.2998929,13.85982 77.3264235,15.47982 C74.9784643,16.37982 73.3529541,16.73982 72.0886684,16.73982 C73.1723418,16.55982 74.2560153,16.37982 75.1590765,15.65982 C77.1476173,14.21982 79.3131582,14.03982 79.3131582,13.85982 C79.6743827,13.85982 80.0356071,13.31982 80.0356071,12.95982 C80.0356071,12.59982 79.6743827,12.23982 79.1325459,12.23982 C79.1325459,12.23982 71.5468316,12.41982 67.9345867,10.61982 C65.5866276,9.35982 61.7955765,9.35982 58.9039745,9.53982 C59.0863929,9.35982 59.265199,9.17982 59.4458112,8.81982 C59.4458112,8.81982 59.9894541,7.91982 61.7955765,7.55982 C62.1549949,7.55982 62.3356071,7.19982 62.5162194,6.83982 C62.5162194,6.47982 62.5162194,6.11982 62.1549949,5.93982 C60.8925153,5.03982 57.4590765,3.95982 53.8468316,7.01982 C52.2213214,8.45982 50.5958112,8.45982 49.1527194,7.37982 C48.0672398,6.47982 46.6223418,5.75982 44.8162194,5.39982 C40.84275,4.49982 35.4243827,3.41982 32.8976173,3.23982 C30.0060153,3.05982 27.2968316,3.05982 25.1294847,3.23982 L24.9488724,3.23982 C22.2396888,3.23982 19.8917296,3.59982 18.0856071,4.13982 C17.9049949,3.95982 17.5455765,3.59982 17.3631582,3.23982 C15.5570357,0.89982 14.8363929,0.17982 14.1121378,0.71982 C13.7509133,0.89982 13.3896888,1.25982 13.7509133,2.15982 C13.9333316,3.05982 13.9333316,4.49982 13.9333316,6.29982 C13.0302704,6.65982 11.9447908,7.55982 11.4029541,8.99982 C10.8611173,9.89982 10.8611173,11.15982 11.224148,12.23982 L11.224148,12.41982 C11.224148,12.59982 11.4029541,12.77982 11.4029541,12.95982 C11.4029541,13.13982 11.5835663,13.31982 11.5835663,13.31982 L8.87438265,17.09982 C8.15193367,18.17982 7.79070918,19.25982 7.42948469,20.33982 C7.24887245,21.23982 5.08152551,25.55982 3.99965816,27.17982 C2.73356633,28.97982 1.46928061,31.49982 0.566219388,33.47982 C-0.156229592,34.91982 -0.156229592,36.53982 0.387413265,37.97982 C0.927443878,39.23982 1.8305051,40.85982 2.73356633,41.21982 C2.73356633,41.21982 2.91417857,41.21982 3.09659694,41.39982 C4.53968878,41.93982 8.87438265,43.55982 11.7641786,41.39982 C12.6672398,40.85982 12.847852,39.59982 12.847852,38.87982 C12.847852,38.69982 12.847852,38.33982 13.0302704,38.15982 C14.1121378,35.99982 15.3764235,34.37982 17.0019337,33.29982 C18.9886684,32.03982 20.9754031,31.31982 22.6009133,30.77982 C23.5039745,30.41982 24.4070357,30.23982 25.1294847,29.87982 C26.2131582,29.33982 27.2968316,27.89982 28.0192806,26.27982 C30.9090765,27.71982 36.6886684,31.49982 39.0366276,36.71982 C40.1221071,39.05982 40.6621378,41.39982 41.2039745,43.73982 L41.0251684,43.91982 C41.0251684,44.09982 33.9794847,55.97982 31.8121378,59.57982 C31.0914949,60.65982 30.547852,61.37982 30.0060153,62.09982 C28.7417296,63.53982 27.8386684,64.79982 28.0192806,68.39982 C28.1998929,70.37982 28.0192806,72.71982 27.8386684,74.87982 C27.6580561,78.47982 27.2968316,81.89982 28.0192806,84.05982 C29.6447908,88.73982 31.6315255,92.69982 32.5345867,94.67982 C32.715199,95.21982 33.2570357,95.57982 33.8006786,95.75982 L34.3407092,95.75982 C34.7037398,95.75982 35.2437704,95.57982 35.4243827,95.39982 L38.4947908,93.23982 C38.8560153,92.87982 39.2190459,92.51982 39.2190459,91.97982 C39.397852,91.07982 39.5784643,89.45982 39.0366276,87.83982 C38.4947908,86.03982 37.4129235,84.41982 37.0498929,84.05982 C34.5213214,74.87982 33.9794847,70.01982 35.2437704,69.11982 C36.3274439,68.39982 48.2496582,60.11982 49.69275,58.85982 C50.0557806,59.03982 50.415199,59.21982 50.7764235,59.39982 C49.3315255,65.87982 47.8866276,73.61982 47.8866276,74.15982 C47.8866276,75.41982 49.69275,78.29982 52.9437704,79.19982 C54.3886684,79.55982 57.4590765,82.07982 60.3488724,84.23982 C62.8774439,86.21982 65.2254031,88.01982 66.8509133,88.91982 C68.837648,89.99982 71.3662194,90.53982 72.9917296,90.89982 C73.7141786,91.07982 74.4384337,90.71982 74.9784643,90.17982 C75.520301,89.63982 75.520301,88.91982 75.3414949,88.19982 L74.0754031,84.23982 C73.1723418,82.07982 71.5468316,80.45982 69.3794847,79.73982 C67.7539745,79.19982 66.4896888,78.83982 65.7672398,78.47982 C65.0447908,78.29982 63.601699,77.57982 59.6264235,75.23982 C58.7233622,74.69982 58.0009133,73.79982 57.820301,72.71982 C57.6396888,71.63982 57.820301,70.55982 58.54275,69.65982 C62.3356071,64.79982 65.2254031,61.19982 67.2139439,58.85982 C68.2958112,58.49982 72.4498929,57.41982 75.1590765,58.31982 C77.5070357,59.03982 87.984352,60.65982 97.1937704,58.85982 C96.8325459,61.73982 96.1119031,68.57982 96.1119031,70.55982 C96.1119031,72.71982 95.2088418,79.01982 95.0264235,80.27982 C93.94275,81.89982 92.8608827,83.69982 92.1366276,85.13982 C91.5965969,86.21982 91.2335663,87.29982 91.4141786,87.83982 C91.4141786,88.19982 91.5965969,88.55982 91.5965969,88.91982 C87.8019337,94.13982 81.8417296,102.41982 81.2998929,102.95982 C80.7598622,103.49982 80.5774439,104.21982 80.7598622,104.93982 C81.1192806,105.47982 81.8417296,106.19982 84.5509133,106.19982 C85.6345867,106.19982 86.8988724,106.01982 88.5243827,105.83982 C90.1498929,105.83982 93.0396888,105.11982 93.220301,102.59982 C93.4027194,100.79982 97.5549949,93.77982 100.085372,89.63982 C101.347852,88.37982 102.070301,87.29982 102.070301,86.39982 C102.070301,84.59982 104.41826,82.61982 105.321321,81.89982 C107.851699,80.27982 114.713158,75.59982 116.519281,75.05982 C117.243536,74.69982 121.397617,73.07982 122.300679,70.01982 C122.661903,68.75982 122.479485,67.31982 121.397617,66.05982 C119.049658,62.63982 119.770301,56.33982 127.177209,49.85982 C131.148872,46.43982 132.595577,38.87982 130.96826,31.85982 C134.401699,32.75982 138.917005,34.73982 142.52925,38.69982 C153.365985,50.03982 163.11724,45.89982 163.478464,45.71982 C163.659077,45.53982 163.841495,45.35982 164.020301,45.17982 C171.244791,44.81982 176.301934,37.43982 176.484352,37.07982 C177.024383,37.07982 177.024383,36.71982 176.845577,36.35982" id="Fill-1" fill="#000000" mask="url(#mask-2)"></path>
                </g>
                <path d="M4.35943776,36.8901 C3.63698878,36.3501 3.09515204,37.0701 3.09515204,37.0701 C4.17882551,37.6101 3.27576429,40.1301 4.90127449,39.7701 C6.52678469,39.4101 5.08188673,37.4301 4.35943776,36.8901" id="Fill-4" fill="#000000"></path>
                <path d="M18.2669418,19.7901 C18.2669418,19.7901 17.3638806,19.4301 15.5577582,19.7901 C13.932248,19.9701 13.3904112,21.0501 13.3904112,21.5901 L13.3904112,21.7701 C13.932248,22.4901 14.4740847,22.6701 14.8353092,22.6701 C16.4608194,22.6701 18.0863296,20.5101 18.2669418,20.3301 C18.2669418,20.1501 18.4475541,20.1501 18.2669418,19.9701 C18.6281663,19.9701 18.4475541,19.7901 18.2669418,19.7901" id="Fill-6" fill="#000000"></path>
            </g>
        </g>
    </g>
</svg>