<?xml version="1.0" encoding="UTF-8"?>
<svg width="154px" height="78px" viewBox="0 0 154 78" version="1.1" xmlns="http://www.w3.org/2000/svg" xmlns:xlink="http://www.w3.org/1999/xlink">
    <!-- Generator: Sketch 52.6 (67491) - http://www.bohemiancoding.com/sketch -->
    <title>Group 6</title>
    <desc>Created with Sketch.</desc>
    <defs>
        <polygon id="path-1" points="0 0.960021739 154.001111 0.960021739 154.001111 79 0 79"></polygon>
    </defs>
    <g id="Page-1" stroke="none" stroke-width="1" fill="none" fill-rule="evenodd">
        <g id="Ox" transform="translate(-60.000000, -57.000000)">
            <g id="Group-6" transform="translate(60.000000, 56.000000)">
                <g id="Group-3">
                    <mask id="mask-2" fill="white">
                        <use xlink:href="#path-1"></use>
                    </mask>
                    <g id="Clip-2"></g>
                    <path d="M151.633572,48.0031478 C151.239183,47.7214957 150.736294,47.3299304 150.297128,46.989887 C148.883183,45.8907565 147.124794,44.523713 145.459406,43.7491696 C142.68835,42.4611261 138.08485,33.441387 137.296072,29.4089522 C136.495239,25.3095391 131.519739,25.287213 129.871572,25.3902565 C129.289461,24.5058 128.681517,23.6659957 128.033961,22.9223652 C136.806961,22.8021478 138.852961,28.0934304 141.193461,34.1626913 C142.51785,37.5974739 143.887017,41.1490391 146.57885,43.931213 C148.194294,45.6005174 150.622628,45.6640609 152.088239,45.511213 C151.947017,46.3235391 151.774794,47.2921478 151.633572,48.0031478 Z M129.797517,48.6574739 C129.676961,48.9734739 129.752739,49.3324087 129.99385,49.5728435 L133.045628,52.5954522 C138.253628,60.2824957 146.389406,72.8434957 147.777517,76.3418217 C144.849739,77.1988 139.724406,76.6080174 137.289183,76.2490826 L139.908683,72.6545826 C140.087794,72.410713 140.123961,72.0895609 140.005128,71.8113435 C139.860461,71.4781696 136.453906,63.6039304 132.789017,59.9510391 C132.585794,59.7501043 132.30335,59.6642348 132.015739,59.7140391 C130.780906,59.9527565 129.666628,60.3529087 128.590239,60.7410391 C123.363294,62.6267348 118.847628,64.2548217 105.164572,39.3183 C104.935517,38.9009739 104.406794,38.7498435 103.995183,38.9782565 C103.578406,39.2049522 103.425128,39.7270391 103.654183,40.1426478 C104.964794,42.5332565 106.197906,44.6834304 107.36385,46.6275174 C104.65135,47.9705174 96.9375167,51.8552565 94.1457944,53.9916913 C92.9316278,52.5473652 91.56935,52.1626696 91.5039056,52.1437783 C91.4436278,52.1266043 91.38335,52.1180174 91.32135,52.1163 C82.0471833,51.6285609 66.9622389,50.1018 63.6796833,47.9859739 C64.3289611,46.7889522 64.8352944,45.5421261 65.1780167,44.2437783 C67.21885,36.5138 63.0459056,29.8898217 62.8667944,29.6116043 C62.6119056,29.2114522 62.0780167,29.0929522 61.6784611,29.3505609 C61.2789056,29.6064522 61.1617944,30.1371261 61.4184056,30.5372783 C61.4580167,30.5991043 65.3640167,36.7971696 63.5126278,43.8058435 C62.2071833,48.750213 58.3752389,52.9251913 52.1252944,56.2191478 C52.0305722,56.2689522 51.9444611,56.3393652 51.87385,56.4200826 C43.4935167,66.169713 41.0565722,67.1881261 40.7086833,67.2877348 C40.5519611,67.2705609 40.3935167,67.2946043 40.24885,67.3650174 C40.00085,67.4818 39.8234611,67.7084957 39.7700722,67.9781261 C39.1931278,70.9114304 38.0306278,75.4333217 37.2556278,76.2920174 C36.0621278,77.3756913 26.74835,77.6058217 25.2844611,76.6406478 C25.7976833,75.3045174 30.7456278,71.0385174 35.2457944,67.6861696 C35.3749611,67.5899957 35.4731278,67.4611913 35.5316833,67.3117783 C38.2441833,60.4250391 42.0399611,52.8461913 43.3419611,52.5439304 C43.6674611,52.5439304 43.9636833,52.3601696 44.1100722,52.0716478 C44.2564611,51.7814087 44.2271833,51.4344957 44.0342944,51.1751696 C42.9234611,49.675887 40.9807944,45.6125391 39.4704056,40.7746478 C39.4652389,40.7574739 39.45835,40.7437348 39.4549056,40.7282783 C37.8962944,35.7238 36.8061278,29.8984087 37.5897389,25.2064957 C37.6672389,24.7376478 37.35035,24.2962783 36.8819056,24.2172783 C36.4082944,24.1382783 35.9674056,24.4559957 35.8899056,24.9248435 C35.0959611,29.6751478 36.0879611,35.495387 37.6104056,40.613213 L31.8151278,44.7624304 C31.7272944,44.8242565 31.6084611,44.9032565 31.5499056,44.9925609 C31.5085722,45.0561043 31.0625167,45.7310391 30.5424056,46.6618652 C29.6675167,45.6984087 28.6049056,45.054387 27.3494056,44.7675826 C24.2890167,44.0686043 21.0426278,45.6486043 19.6941278,46.4231478 C19.71135,44.7710174 19.6992944,43.4486261 19.5546278,42.4370826 C19.5942389,42.3838435 19.6476278,42.3323217 19.6837944,42.2773652 C19.9421278,41.8806478 19.8284611,41.3482565 19.4306278,41.0889304 C19.3307389,41.025387 19.2239611,40.9841696 19.1137389,40.9635609 C19.02935,40.8193 18.9466833,40.6750391 18.8399056,40.5668435 C18.6762944,40.4036913 18.8502389,40.2800391 18.6521833,40.2010391 C18.9001833,39.1276696 20.2900167,36.3935826 21.6729611,34.0785391 C23.2040167,33.5495826 28.7977944,31.3976913 29.7140167,27.9405826 C30.0860167,27.7808652 30.2169056,27.4940609 30.2547944,27.239887 C30.3546833,26.5546478 30.1084056,26.1665174 27.3080722,25.2854957 C29.8655722,21.3629739 40.4469056,6.30316957 53.8647389,3.29086522 C64.5614611,0.886517391 71.7259056,6.16921304 78.0481833,10.8284957 C80.9277389,12.9494739 83.6471278,14.9519522 86.50085,16.1266478 C92.0429611,18.4090609 101.720128,18.6460609 109.495961,18.8366913 C114.674683,18.9637783 119.147294,19.0736913 120.986628,19.7211478 C123.223794,20.507713 127.453572,23.6247783 129.93185,28.9830391 C132.589239,34.7242783 132.544461,41.5268652 129.797517,48.6574739 Z M121.353461,64.5021261 L118.482517,70.6641261 C118.429128,70.7791913 118.401572,70.9011261 118.401572,71.0264957 C118.401572,73.2814304 117.824628,76.5599304 116.74135,76.851887 C115.088017,77.3001261 109.311683,76.5616478 107.203683,75.9691478 C108.462628,74.5866478 111.76585,71.3802783 114.829683,68.5191043 C114.920961,68.4332348 114.993294,68.3301913 115.039794,68.2151261 L118.067461,60.7513435 C119.634683,62.078887 121.026239,62.8311043 122.311017,63.1986261 L121.444739,64.3509957 C121.408572,64.3973652 121.379294,64.448887 121.353461,64.5021261 Z M69.3854056,64.3218 C69.3974611,64.3544304 70.7235722,67.5831261 70.3309056,70.3120609 C69.9864611,72.7232783 70.2155167,75.4333217 70.3429611,76.5805391 C69.7315722,76.8896696 68.3124611,77.4100391 65.7825167,77.2554739 C63.4024056,77.1146478 61.7146278,76.5290174 60.8087389,76.1254304 L66.1286833,68.1910826 C66.3146833,67.9111478 66.3215722,67.5487783 66.1459056,67.2636913 C63.2215722,62.5219739 59.6100722,57.0417783 57.3711833,54.9637348 C59.6376278,53.2875609 61.4339056,51.436213 62.7841278,49.4268652 C63.5591278,49.8836913 64.6751278,50.2993 66.0150167,50.6754087 L69.3854056,64.3218 Z M21.2957944,52.226213 C20.7067944,52.0149739 21.3836278,51.6371478 19.6614056,51.0755609 L19.6614056,50.0605826 C19.6614056,49.4698 19.6665722,48.9133652 19.6717389,48.3741043 C19.7854056,48.3534957 19.89735,48.3122783 19.9989611,48.2453 C20.03685,48.2195391 23.7895722,45.7276043 26.9670722,46.4420391 C28.0865167,46.6979304 28.9751833,47.3436696 29.6916278,48.3586478 C29.3471833,49.1263217 29.04235,49.935213 28.8907944,50.6908652 C27.2409056,51.5169304 23.3900167,52.9732783 21.2957944,52.226213 Z M10.8074611,44.7899087 C11.5755722,43.970713 12.3247389,43.0295826 12.7036278,42.1468435 C12.70535,42.1434087 12.7036278,42.1399739 12.70535,42.1365391 C14.2209056,41.4908 15.6279611,40.7952565 16.8042389,40.0894087 C16.6681833,40.8055609 16.8007944,41.0820609 16.8834611,41.2297565 C17.09185,41.5972783 17.26235,41.8085174 17.6171278,41.775887 C17.6481278,41.8033652 17.6670722,41.8789304 17.6946278,41.9218652 C16.3581833,43.0639304 13.4717389,44.0909304 10.8074611,44.7899087 Z M25.3705722,26.3914957 C25.4687389,26.4876696 25.58585,26.5632348 25.7219056,26.6044522 C26.5227389,26.8380174 27.4251833,27.1385609 28.0555167,27.3738435 C27.5681278,29.8520391 22.6804611,31.9386696 20.7877389,32.5483435 C20.5914056,32.6136043 20.37785,32.7458435 20.26935,32.9227348 C19.1912389,34.7036696 18.4369056,36.0896043 17.9047389,37.1801478 C16.1790722,38.9971478 10.4147944,41.4616043 5.76996111,42.7685391 C12.2644611,38.2329087 22.2929611,29.197713 25.3705722,26.3914957 Z M153.720906,43.8281696 C153.503906,43.632387 153.205961,43.5619739 152.920072,43.632387 C152.88735,43.6426913 149.518683,44.4979522 147.817128,42.7376261 C145.368128,40.2061913 144.062683,36.821213 142.802017,33.5478652 C140.31685,27.0990609 137.730072,20.4493217 126.435739,21.2891261 C124.730739,19.7039739 122.98785,18.6031261 121.558406,18.0999304 C119.462461,17.3631696 115.08285,17.2549739 109.539017,17.1193 C101.904406,16.9321043 92.4046278,16.6985391 87.1570167,14.5397783 C84.50135,13.4458 81.8629056,11.5034304 79.0711833,9.44771304 C72.4509611,4.57032174 64.9489611,-0.964830435 53.4841278,1.6146913 C39.33435,4.79186522 28.6221278,20.0611913 25.89585,24.2808217 C25.5910167,24.1468652 25.2241833,24.1949522 24.9624056,24.4336696 C16.9006833,31.8459304 3.78423889,43.0896913 0.696294444,43.6839087 C0.260572222,43.7680609 -0.0390944444,44.1699304 0.00396111111,44.6095826 C0.0452944444,45.0509522 0.417294444,45.3875609 0.861627778,45.3875609 C2.81807222,45.3875609 6.37446111,44.5048217 9.89468333,43.237387 C8.98707222,44.264387 7.88140556,45.2295609 7.35612778,45.6451696 C7.04785,45.8907565 6.94623889,46.3132348 7.10812778,46.6721696 C7.24935,46.9830174 7.55935,47.1770826 7.89346111,47.1770826 C7.94340556,47.1770826 7.99335,47.1719304 8.04501667,47.1633435 C8.84757222,47.0208 14.7926833,45.9010609 18.0235722,43.8058435 C18.0872944,45.5764739 17.9391833,48.1250826 17.9391833,50.0571478 L17.9391833,51.255887 C17.9391833,51.3658 18.3197944,51.475713 18.3611278,51.5787565 C18.8106278,52.6847565 19.9610722,53.4455609 21.0736278,53.8422783 C24.53185,55.0788 30.0291833,52.1351913 30.2599611,52.0098217 C30.5062389,51.8775826 30.6715722,51.633713 30.7042944,51.3589304 C30.9350722,49.4698 32.6039056,46.6944957 33.0000167,46.0573435 L38.15635,42.351213 C39.42735,46.1947348 40.9360167,49.4904087 42.0985167,51.374387 C39.4497389,53.5022348 36.0362944,61.3541478 34.0195722,66.4565174 C28.9476278,70.2450826 23.1041278,75.1018652 23.5587944,77.0665609 C23.7947389,78.0849739 25.1019056,78.4215826 25.5324611,78.5314957 C26.63985,78.8183 28.4051278,78.9642783 30.2892389,78.9642783 C33.7457389,78.9642783 37.6035167,78.471387 38.52835,77.4478217 C39.7666278,76.0739087 40.9446278,70.8204087 41.3510722,68.8471261 C43.41085,68.0708652 47.3392389,64.3235174 53.0742389,57.6617565 C54.1092944,57.1121913 55.0565167,56.5282783 55.96585,55.9306261 C57.2885167,56.9370174 61.1824611,62.5391478 64.3892389,67.6947565 L58.8436833,75.965713 C58.7162389,76.1563435 58.6697389,76.3881913 58.7145167,76.6114522 C58.7592944,76.834713 58.8919056,77.032213 59.08135,77.1593 C59.1777944,77.2228435 61.4769611,78.7221261 65.6791833,78.9694304 C66.0287944,78.9900391 66.3611833,79.0003435 66.67635,79.0003435 C70.2034611,79.0003435 71.66735,77.8067565 71.8361278,77.6607783 C72.0531278,77.4684304 72.1581833,77.1799087 72.1185722,76.8948217 C72.1134056,76.8604739 71.6277389,73.4050826 72.0376278,70.554213 C72.4957389,67.3529957 71.0370167,63.8117348 71.01635,63.7876913 L67.9042944,51.1494087 C75.8712944,52.9440826 88.8017389,53.6997348 91.1164056,53.8251043 C91.4057389,53.9281478 92.45285,54.3866913 93.2709056,55.7108 C93.4155722,55.9460826 93.6635722,56.097213 93.9374056,56.1178217 C93.9597944,56.1195391 93.9821833,56.1212565 94.0045722,56.1212565 C94.2560167,56.1212565 94.4936833,56.0113435 94.6590167,55.820713 C95.7836278,54.5103435 103.156461,50.6170174 108.261128,48.1010391 C111.598794,53.5211261 114.35435,57.141387 116.717239,59.4959304 L113.513906,67.394213 C105.269628,75.1001478 105.130128,75.7836696 105.071572,76.0790609 C105.013017,76.3710174 105.169739,76.7986478 105.388461,77.0013 C106.290906,77.8411043 111.786517,78.691213 115.14485,78.691213 C116.005961,78.691213 116.724128,78.6345391 117.192572,78.5091696 C119.848239,77.7930174 120.103128,72.6751913 120.122072,71.2205609 L122.877628,65.3075826 L124.250239,63.483713 C125.967294,63.5060391 127.541406,62.9444522 129.175794,62.355387 C130.050683,62.0411043 130.949683,61.7165174 131.890017,61.4966913 C134.735128,64.5553652 137.478628,70.396213 138.22435,72.0466261 L135.072683,76.3693 C134.898739,76.6063 134.859128,76.9171478 134.967628,77.190213 C135.07785,77.4632783 135.318961,77.664213 135.610017,77.7174522 C135.861461,77.7638217 139.824294,78.493713 143.68035,78.493713 C145.734961,78.493713 147.762017,78.2859087 149.177683,77.6590609 C149.527294,77.5027783 149.732239,77.1369739 149.680572,76.7574304 C149.236239,73.5029739 135.982017,53.8611696 134.368294,51.5066261 L131.602406,48.750213 C135.03135,39.445387 133.452072,32.4882348 131.49735,28.2634522 C131.306183,27.8529957 131.087461,27.4751696 130.879072,27.0853217 C132.52035,27.1128 135.169128,27.5078 135.603128,29.7369739 C136.407406,33.8398217 141.13835,43.6375391 144.732628,45.3068435 C146.218906,45.9972348 147.892906,47.2990174 149.237961,48.3431913 C150.727683,49.500713 151.475128,50.0829087 152.115794,50.0829087 C152.231183,50.0829087 152.339683,50.0640174 152.451628,50.0279522 C152.723739,49.9386478 153.02685,49.6140609 153.102628,49.3375609 C153.338572,48.490887 153.924128,44.9994304 153.989572,44.6044304 C154.037794,44.3176261 153.936183,44.0256696 153.720906,43.8281696 Z" id="Fill-1" fill="#000000" mask="url(#mask-2)"></path>
                </g>
                <path d="M22,39.5 C22,39.224 22.224,39 22.5,39 C22.776,39 23,39.224 23,39.5 C23,40.05 22,40.05 22,39.5 M22.5,37 C21.122,37 20,38.122 20,39.5 C20,40.878 21.122,42 22.5,42 C23.878,42 25,40.878 25,39.5 C25,38.122 23.878,37 22.5,37" id="Fill-4" fill="#000000"></path>
            </g>
        </g>
    </g>
</svg>