<?xml version="1.0" encoding="UTF-8"?>
<svg width="70px" height="25px" viewBox="0 0 70 25" version="1.1" xmlns="http://www.w3.org/2000/svg" xmlns:xlink="http://www.w3.org/1999/xlink">
    <!-- Generator: Sketch 52.6 (67491) - http://www.bohemiancoding.com/sketch -->
    <title>鸡 (Jī)</title>
    <desc>Created with Sketch.</desc>
    <g id="Page-1" stroke="none" stroke-width="1" fill="none" fill-rule="evenodd">
        <g id="Names" transform="translate(-470.000000, -805.000000)" fill="#000000">
            <g id="Answer-Copy-9" transform="translate(421.000000, 736.000000)">
                <path d="M51.397,76.952 C52.905,78.954 54.283,80.956 55.583,82.958 C56.519,80.176 57.065,77.134 57.273,73.806 L50.565,73.806 L50.565,72.454 L58.599,72.454 L58.599,73.52 C58.417,77.576 57.715,81.216 56.493,84.414 C57.663,86.338 58.755,88.236 59.743,90.16 L58.755,91.174 C57.897,89.432 56.935,87.664 55.869,85.896 C54.569,88.73 52.827,91.2 50.669,93.332 L49.811,92.318 C52.047,90.108 53.763,87.508 55.011,84.492 C53.659,82.334 52.125,80.124 50.461,77.862 L51.397,76.952 Z M60.159,87.352 L68.765,87.352 L68.765,88.678 L60.159,88.678 L60.159,87.352 Z M65.047,74.976 C66.113,76.12 66.919,77.16 67.491,78.044 L66.555,78.72 C65.983,77.758 65.151,76.718 64.111,75.6 L65.047,74.976 Z M62.629,82.906 L72.691,82.906 C72.639,88.34 72.327,91.512 71.703,92.422 C71.105,93.228 70.091,93.644 68.635,93.644 L66.165,93.644 L65.749,92.344 C66.919,92.37 67.907,92.396 68.687,92.396 C69.623,92.396 70.273,92.084 70.637,91.512 C71.079,90.836 71.313,88.392 71.313,84.206 L61.303,84.206 L61.303,72.402 L63.591,72.402 C63.981,71.544 64.267,70.66 64.475,69.776 L65.879,69.958 C65.671,70.842 65.385,71.648 65.021,72.402 L71.053,72.402 C70.845,76.744 70.507,79.318 70.091,80.124 C69.649,80.904 68.843,81.32 67.647,81.32 L66.269,81.32 L65.879,80.098 L67.647,80.098 C68.323,80.098 68.765,79.864 69.025,79.396 C69.285,78.876 69.493,77.004 69.649,73.728 L62.629,73.728 L62.629,82.906 Z M88.655,69.698 L90.085,69.698 C89.045,71.388 88.213,73.182 87.615,75.106 C86.861,77.394 86.497,79.63 86.497,81.84 C86.497,84.024 86.861,86.286 87.615,88.574 C88.213,90.472 89.045,92.266 90.085,93.982 L88.655,93.982 C87.563,92.318 86.705,90.524 86.081,88.626 C85.327,86.338 84.963,84.076 84.963,81.84 C84.963,79.604 85.327,77.342 86.081,75.08 C86.705,73.156 87.563,71.362 88.655,69.698 Z M101.499,72.636 L103.111,72.636 L103.111,85.298 C103.111,87.274 102.695,88.782 101.915,89.822 C101.005,90.966 99.549,91.564 97.547,91.564 C95.883,91.564 94.583,91.096 93.699,90.186 C92.711,89.224 92.243,87.846 92.243,86.052 L92.243,85.35 L93.829,85.35 L93.829,86.026 C93.829,88.73 95.077,90.108 97.573,90.108 C98.977,90.108 99.991,89.692 100.615,88.886 C101.187,88.106 101.499,86.91 101.499,85.272 L101.499,72.636 Z M104.437,73.832 L111.977,73.832 L111.977,74.846 L104.437,74.846 L104.437,73.832 Z M107.427,77.758 L108.987,77.758 L108.987,91.2 L107.427,91.2 L107.427,77.758 Z M113.173,69.698 L114.603,69.698 C115.669,71.362 116.527,73.156 117.177,75.08 C117.905,77.342 118.295,79.604 118.295,81.84 C118.295,84.076 117.905,86.338 117.177,88.626 C116.527,90.524 115.669,92.318 114.603,93.982 L113.173,93.982 C114.213,92.266 115.019,90.472 115.643,88.574 C116.371,86.286 116.761,84.024 116.761,81.84 C116.761,79.63 116.371,77.394 115.643,75.106 C115.019,73.182 114.213,71.388 113.173,69.698 Z" id="鸡-(Jī)"></path>
            </g>
        </g>
    </g>
</svg>